<?xml version="1.0" standalone="no"?>
<!DOCTYPE svg PUBLIC "-//W3C//DTD SVG 1.1//EN" "http://www.w3.org/Graphics/SVG/1.1/DTD/svg11.dtd" >
<svg xmlns="http://www.w3.org/2000/svg" xmlns:xlink="http://www.w3.org/1999/xlink" version="1.1">
<metadata>
Created by FontForge 20141024 at Sun Nov  8 13:01:01 2015
 By Jimmy Warting
(c) 2012 Microsoft Corporation. All Rights Reserved.
</metadata>
<defs>
<font id="SegoePro" horiz-adv-x="1104" >
  <font-face 
    font-family="Segoe Pro"
    font-weight="400"
    font-stretch="normal"
    units-per-em="2048"
    panose-1="2 11 5 2 4 5 4 2 2 3"
    ascent="1638"
    descent="-410"
    x-height="1024"
    cap-height="1434"
    bbox="-348 -578 2398 2129"
    underline-thickness="119"
    underline-position="-119"
    unicode-range="U+000D-FB02"
  />
<missing-glyph horiz-adv-x="1024" 
d="M128 0v750h768v-750h-768zM256 128h512v494h-512v-494z" />
    <glyph glyph-name=".notdef" horiz-adv-x="1024" 
d="M128 0v750h768v-750h-768zM256 128h512v494h-512v-494z" />
    <glyph glyph-name="uni000D" unicode="&#xd;" horiz-adv-x="0" 
 />
    <glyph glyph-name="glyph2" horiz-adv-x="565" 
 />
    <glyph glyph-name="space" unicode=" " horiz-adv-x="477" 
 />
    <glyph glyph-name="exclam" unicode="!" horiz-adv-x="582" 
d="M375 1434v-1031h-154v1031h154zM401 92q0 -46 -32.5 -78t-77.5 -32q-47 0 -79 32t-32 78q0 45 33 78t78 33q44 0 77 -33t33 -78z" />
    <glyph glyph-name="quotedbl" unicode="&#x22;" horiz-adv-x="772" 
d="M596 1434v-447h-127v447h127zM313 1434v-447h-125v447h125z" />
    <glyph glyph-name="numbersign" unicode="#" horiz-adv-x="1210" 
d="M1165 1032l-22 -106h-260l-64 -299h281l-27 -107h-274l-88 -397h-127l86 397h-250l-84 -397h-125l84 397h-262l20 107h264l62 299h-277l21 106h276l84 402h127l-84 -402h252l86 402h123l-84 -402h262zM758 926h-252l-66 -299h254z" />
    <glyph glyph-name="dollar" unicode="$" 
d="M977 371q0 -144 -94.5 -239.5t-266.5 -123.5v-217h-104v209q-85 0 -191 26t-155 60v174q52 -48 155 -84.5t191 -36.5v512q-216 105 -283 193.5t-67 214.5q0 143 99.5 249.5t250.5 127.5v180h104v-176q194 -6 271 -56v-170q-101 78 -271 86v-528q138 -67 215 -126
t111.5 -123.5t34.5 -151.5zM512 827v467q-85 -17 -133.5 -74t-48.5 -141q0 -87 39 -141t143 -111zM809 356q0 138 -193 244v-453q193 42 193 209z" />
    <glyph glyph-name="percent" unicode="%" horiz-adv-x="1675" 
d="M1599 356q0 -172 -94.5 -275.5t-247.5 -103.5q-146 0 -234.5 98t-88.5 261q0 174 93.5 279.5t250.5 105.5q154 0 237.5 -96.5t83.5 -268.5zM1468 354q0 121 -51.5 187.5t-144.5 66.5q-97 0 -151 -70.5t-54 -193.5q0 -121 53.5 -187.5t147.5 -66.5t147 70.5t53 193.5z
M1364 1434l-920 -1444h-143l920 1444h143zM745 1094q0 -172 -94.5 -275.5t-247.5 -103.5q-148 0 -235.5 98t-87.5 260q0 177 94.5 280t249.5 103q153 0 237 -95.5t84 -266.5zM614 1090q0 120 -52.5 188t-143.5 68q-96 0 -150.5 -71.5t-54.5 -193.5q0 -121 54 -188.5
t147 -67.5q94 0 147 70.5t53 194.5z" />
    <glyph glyph-name="ampersand" unicode="&#x26;" horiz-adv-x="1446" 
d="M1425 0h-229l-154 158q-194 -183 -469 -183q-202 0 -328 106.5t-126 280.5q0 253 327 420q-155 199 -155 338q0 148 107.5 243t269.5 95q151 0 246.5 -83.5t95.5 -215.5t-70.5 -220.5t-253.5 -178.5q177 -188 375 -383q44 64 78.5 172t36.5 209h151q-1 -270 -172 -486z
M850 1145q0 78 -52 130t-126 52q-98 0 -157.5 -57t-59.5 -150q0 -109 141 -266q254 122 254 291zM948 256q-236 243 -409 426q-138 -70 -195 -141.5t-57 -171.5q0 -113 81 -183.5t205 -70.5q220 0 375 141z" />
    <glyph glyph-name="quotesingle" unicode="'" horiz-adv-x="469" 
d="M303 1434v-447h-125v447h125z" />
    <glyph glyph-name="parenleft" unicode="(" horiz-adv-x="618" 
d="M596 -326h-145q-312 354 -312 873t312 887h147q-313 -379 -313 -885q0 -501 311 -875z" />
    <glyph glyph-name="parenright" unicode=")" horiz-adv-x="618" 
d="M481 547q0 -518 -311 -873h-145q311 374 311 875q0 506 -313 885h147q311 -368 311 -887z" />
    <glyph glyph-name="asterisk" unicode="*" horiz-adv-x="854" 
d="M780 1104l-274 -55l190 -244l-110 -76l-156 264l-158 -264l-110 76l190 244l-276 55l45 125l262 -99l-23 304h138l-23 -304l262 99z" />
    <glyph glyph-name="plus" unicode="+" horiz-adv-x="1401" 
d="M1171 530h-403v-403h-133v403h-404v134h404v403h133v-403h403v-134z" />
    <glyph glyph-name="comma" unicode="," horiz-adv-x="444" 
d="M315 227l-159 -491h-117l117 491h159z" />
    <glyph glyph-name="hyphen" unicode="-" horiz-adv-x="819" 
d="M690 506h-547v129h547v-129z" />
    <glyph glyph-name="period" unicode="." horiz-adv-x="444" 
d="M336 90q0 -45 -32.5 -79t-80.5 -34q-46 0 -78 33.5t-32 79.5q0 47 32.5 80t77.5 33q46 0 79.5 -33.5t33.5 -79.5z" />
    <glyph glyph-name="slash" unicode="/" horiz-adv-x="799" 
d="M813 1434l-688 -1672h-154l686 1672h156z" />
    <glyph glyph-name="zero" unicode="0" 
d="M1020 723q0 -355 -125 -551.5t-356 -196.5q-216 0 -334.5 185t-118.5 528q0 374 123 572t360 198q451 0 451 -735zM852 707q0 612 -291 612q-307 0 -307 -623q0 -581 301 -581q297 0 297 592z" />
    <glyph glyph-name="one" unicode="1" horiz-adv-x="798" 
d="M415 0v1239q-43 -43 -145.5 -96t-186.5 -74v166q108 30 233 97t201 134h62v-1466h-164z" />
    <glyph glyph-name="two" unicode="2" 
d="M772 1058q0 121 -71 191t-193 70q-89 0 -179.5 -47t-163.5 -128v176q69 67 154.5 102.5t208.5 35.5q185 0 298 -104.5t113 -281.5q0 -154 -70.5 -270.5t-248.5 -244.5q-177 -126 -235 -181t-81.5 -106t-23.5 -123h714v-147h-885v71q0 113 30.5 193.5t101.5 157t257 212.5
q149 107 211.5 203.5t62.5 220.5z" />
    <glyph glyph-name="three" unicode="3" 
d="M961 406q0 -194 -139 -312.5t-365 -118.5q-205 0 -326 78v176q145 -114 332 -114q151 0 240.5 74.5t89.5 201.5q0 281 -400 281h-119v139h113q354 0 354 264q0 244 -270 244q-152 0 -285 -102v159q137 82 326 82q178 0 287.5 -94.5t109.5 -247.5q0 -283 -286 -364v-4
q152 -17 245 -110t93 -232z" />
    <glyph glyph-name="four" unicode="4" horiz-adv-x="1149" 
d="M886 1434v-947h224v-150h-224v-337h-162v337h-674v142q214 241 391.5 496.5t269.5 458.5h175zM235 487h489v702q-190 -332 -385 -573z" />
    <glyph glyph-name="five" unicode="5" 
d="M969 438q0 -209 -138.5 -336t-369.5 -127q-200 0 -297 60v174q146 -94 299 -94q152 0 245 85t93 228q0 140 -94 219.5t-273 79.5q-143 0 -243 -12l49 719h663v-148h-521l-29 -421l132 5q224 0 354 -113t130 -319z" />
    <glyph glyph-name="six" unicode="6" 
d="M1022 455q0 -136 -58.5 -247t-161.5 -172t-231 -61q-215 0 -337.5 173t-122.5 483q0 246 72.5 434.5t205.5 290.5t307 102q148 0 238 -41v-155q-111 57 -234 57q-190 0 -304.5 -170.5t-114.5 -454.5h4q99 203 327 203q186 0 298 -121.5t112 -320.5zM854 434
q0 150 -73.5 237t-205.5 87q-120 0 -202 -84.5t-82 -204.5q0 -151 81.5 -252.5t205.5 -101.5q123 0 199.5 88.5t76.5 230.5z" />
    <glyph glyph-name="seven" unicode="7" horiz-adv-x="1054" 
d="M981 1339q-211 -364 -348 -714t-171 -625h-176q24 173 93.5 388t181 457t227.5 441h-719v148h912v-95z" />
    <glyph glyph-name="eight" unicode="8" 
d="M90 400q0 122 73.5 227.5t191.5 150.5q-93 52 -148 133.5t-55 180.5q0 157 114.5 261.5t288.5 104.5q113 0 206.5 -48t145 -132t51.5 -186q0 -99 -55 -180.5t-146 -133.5q117 -45 190 -151t73 -227q0 -189 -130 -306t-335 -117q-134 0 -241 54t-165.5 150.5t-58.5 218.5z
M268 414q0 -133 78 -212.5t210 -79.5q126 0 207.5 80t81.5 212q0 124 -81.5 207.5t-207.5 83.5q-125 0 -206.5 -82.5t-81.5 -208.5zM319 1079q0 -101 70 -170.5t167 -69.5q99 0 168.5 71t69.5 169q0 103 -69 172t-169 69q-101 0 -169 -68t-68 -173z" />
    <glyph glyph-name="nine" unicode="9" 
d="M1004 803q0 -394 -153.5 -611t-428.5 -217q-142 0 -250 50v157q119 -67 254 -67q195 0 303.5 156.5t108.5 445.5h-4q-92 -185 -320 -185q-185 0 -302.5 125t-117.5 322q0 210 129 344.5t332 134.5q216 0 332.5 -170.5t116.5 -484.5zM827 950q0 163 -80 266t-206 103
q-121 0 -200 -91.5t-79 -226.5q0 -150 78 -236.5t211 -86.5q113 0 194.5 79t81.5 193z" />
    <glyph glyph-name="colon" unicode=":" horiz-adv-x="444" 
d="M336 936q0 -45 -32.5 -79t-80.5 -34q-46 0 -78 33.5t-32 79.5q0 47 33 79t77 32q45 0 79 -32t34 -79zM336 90q0 -45 -32.5 -79t-80.5 -34q-46 0 -78 33.5t-32 79.5q0 47 32.5 80t77.5 33q46 0 79.5 -33.5t33.5 -79.5z" />
    <glyph glyph-name="semicolon" unicode=";" horiz-adv-x="444" 
d="M338 936q0 -45 -32.5 -79t-80.5 -34q-46 0 -78 33.5t-32 79.5q0 47 33 79t77 32q45 0 79 -32t34 -79zM315 227l-159 -491h-117l117 491h159z" />
    <glyph glyph-name="less" unicode="&#x3c;" horiz-adv-x="1401" 
d="M1133 127l-861 432v59l861 482v-150l-644 -356v-4l644 -314v-149z" />
    <glyph glyph-name="equal" unicode="=" horiz-adv-x="1401" 
d="M1171 743h-940v134h940v-134zM1171 317h-940v134h940v-134z" />
    <glyph glyph-name="greater" unicode="&#x3e;" horiz-adv-x="1401" 
d="M1133 559l-861 -432v149l643 312v6l-643 356v150l861 -482v-59z" />
    <glyph glyph-name="question" unicode="?" horiz-adv-x="918" 
d="M817 1114q0 -206 -207 -381q-96 -82 -121.5 -128.5t-25.5 -127.5v-74h-152v78q0 102 38.5 172.5t129.5 145.5q176 144 176 301q0 100 -64.5 159.5t-166.5 59.5q-169 0 -293 -133v176q153 96 318 96t266.5 -94.5t101.5 -249.5zM498 92q0 -46 -32.5 -78t-78.5 -32
q-47 0 -79 32t-32 78q0 45 33 78t78 33t78 -33t33 -78z" />
    <glyph glyph-name="at" unicode="@" horiz-adv-x="1956" 
d="M1788 733q0 -153 -53 -280.5t-146 -199t-205 -71.5q-220 0 -221 238h-4q-73 -238 -287 -238q-141 0 -223 104t-82 269q0 149 53.5 269.5t150.5 187.5t216 67q71 0 128.5 -36.5t72.5 -92.5h4l10 115h125l-47 -561q0 -207 119 -207q108 0 180 121t72 299q0 184 -81 326
t-230.5 219t-346.5 77q-298 0 -491 -208t-193 -519q0 -201 84.5 -357t240 -241.5t357.5 -85.5q248 0 422 82v-125q-171 -73 -432 -73q-236 0 -420.5 99t-286.5 281t-102 414q0 366 233 607t596 241q342 0 564.5 -202.5t222.5 -518.5zM1165 750q0 215 -180 215
q-122 0 -199 -117t-77 -295q0 -118 51.5 -186t136.5 -68q125 0 196.5 123t71.5 328z" />
    <glyph glyph-name="A" unicode="A" horiz-adv-x="1321" 
d="M1298 0h-186l-151 401h-609l-143 -401h-186l548 1434h174zM905 553l-225 610q-8 22 -23 97h-4q-9 -63 -22 -97l-223 -610h497z" />
    <glyph glyph-name="B" unicode="B" horiz-adv-x="1174" 
d="M1071 412q0 -179 -130.5 -295.5t-334.5 -116.5h-418v1434h408q181 0 292 -89t111 -239q0 -120 -65.5 -210.5t-181.5 -129.5v-4q147 -18 233 -110.5t86 -239.5zM823 1073q0 209 -274 209h-193v-463h172q137 0 216 66t79 188zM895 414q0 254 -346 254h-193v-516h228
q148 0 229.5 70.5t81.5 191.5z" />
    <glyph glyph-name="C" unicode="C" horiz-adv-x="1268" 
d="M1163 59q-158 -84 -395 -84q-199 0 -353 89t-237.5 252.5t-83.5 373.5q0 219 93 395.5t261 274.5t377 98q203 0 338 -59v-178q-154 86 -340 86q-162 0 -288 -75t-195.5 -214t-69.5 -318q0 -170 65 -301t184 -201.5t272 -70.5q216 0 372 96v-164z" />
    <glyph glyph-name="D" unicode="D" horiz-adv-x="1436" 
d="M1341 735q0 -219 -96 -386.5t-273 -258t-405 -90.5h-379v1434h396q757 0 757 -699zM1165 731q0 551 -585 551h-224v-1130h213q284 0 440 151.5t156 427.5z" />
    <glyph glyph-name="E" unicode="E" horiz-adv-x="1036" 
d="M948 0h-760v1434h727v-152h-559v-477h518v-152h-518v-501h592v-152z" />
    <glyph glyph-name="F" unicode="F" horiz-adv-x="999" 
d="M915 1282h-559v-496h518v-151h-518v-635h-168v1434h727v-152z" />
    <glyph glyph-name="G" unicode="G" horiz-adv-x="1405" 
d="M1260 98q-216 -123 -480 -123q-201 0 -358.5 91t-242.5 257t-85 375q0 330 209 545t535 215q234 0 393 -76v-186q-174 111 -412 111q-157 0 -282.5 -75.5t-196 -213.5t-70.5 -307q0 -271 142.5 -427.5t388.5 -156.5q167 0 291 68v401h-314v152h482v-650z" />
    <glyph glyph-name="H" unicode="H" horiz-adv-x="1454" 
d="M1266 0h-168v653h-742v-653h-168v1434h168v-629h742v629h168v-1434z" />
    <glyph glyph-name="I" unicode="I" horiz-adv-x="545" 
d="M356 0h-168v1434h168v-1434z" />
    <glyph glyph-name="I" unicode="&#x406;" horiz-adv-x="545" 
d="M356 0h-168v1434h168v-1434z" />
    <glyph glyph-name="J" unicode="J" horiz-adv-x="731" 
d="M555 514q0 -249 -106 -394t-291 -145q-84 0 -138 25v166q52 -39 140 -39q227 0 227 385v922h168v-920z" />
    <glyph glyph-name="J" unicode="&#x408;" horiz-adv-x="731" 
d="M555 514q0 -249 -106 -394t-291 -145q-84 0 -138 25v166q52 -39 140 -39q227 0 227 385v922h168v-920z" />
    <glyph glyph-name="K" unicode="K" horiz-adv-x="1188" 
d="M1186 0h-234l-555 655q-22 26 -37 52h-4v-707h-168v1434h168v-674h4l37 49l537 625h209l-615 -689z" />
    <glyph glyph-name="L" unicode="L" horiz-adv-x="965" 
d="M932 0h-744v1434h168v-1282h576v-152z" />
    <glyph glyph-name="M" unicode="M" horiz-adv-x="1839" 
d="M1651 0h-168v963q0 114 14 278h-4q-24 -97 -43 -139l-489 -1102h-82l-490 1094q-20 44 -43 147h-4q8 -86 8 -280v-961h-162v1434h222l440 -1000q50 -114 65 -172h7q50 138 69 176l449 996h211v-1434z" />
    <glyph glyph-name="N" unicode="N" horiz-adv-x="1532" 
d="M1343 0h-204l-740 1143q-26 40 -45 90h-6q8 -46 8 -197v-1036h-168v1434h218l718 -1125l58 -96h4q-10 62 -10 211v1010h167v-1434z" />
    <glyph glyph-name="O" unicode="O" horiz-adv-x="1544" 
d="M1450 735q0 -229 -83.5 -401.5t-240 -265.5t-360.5 -93q-197 0 -350.5 90.5t-237.5 257t-84 377.5q0 227 85 400t244 265.5t368 92.5q191 0 342.5 -91t234 -256t82.5 -376zM1274 713q0 280 -131 437t-365 157q-147 0 -263.5 -74.5t-180.5 -211.5t-64 -306
q0 -172 61.5 -306.5t175.5 -208t259 -73.5q238 0 373 156t135 430z" />
    <glyph glyph-name="P" unicode="P" horiz-adv-x="1147" 
d="M1065 1006q0 -208 -143.5 -335.5t-376.5 -127.5h-189v-543h-168v1434h394q230 0 356.5 -112.5t126.5 -315.5zM889 997q0 285 -336 285h-197v-588h176q173 0 265 78.5t92 224.5z" />
    <glyph glyph-name="Q" unicode="Q" horiz-adv-x="1544" 
d="M1450 735q0 -295 -133.5 -488.5t-380.5 -250.5l334 -348h-232l-282 327q-193 1 -344 92.5t-234.5 258t-83.5 374.5q0 229 85.5 401.5t244.5 264.5t371 92q189 0 340 -92t233 -258t82 -373zM1274 713q0 280 -131 437t-365 157q-147 0 -263.5 -74.5t-180.5 -211.5t-64 -306
q0 -172 61.5 -306.5t175.5 -208t259 -73.5q238 0 373 156t135 430z" />
    <glyph glyph-name="R" unicode="R" horiz-adv-x="1178" 
d="M1110 0h-201l-188 432q-78 178 -219 178h-146v-610h-168v1434h428q205 0 321 -102.5t116 -278.5q0 -153 -87.5 -259t-232.5 -139v-4q81 -29 148 -170zM877 1038q0 115 -74.5 179.5t-216.5 64.5h-230v-520h222q133 0 216 77t83 199z" />
    <glyph glyph-name="S" unicode="S" horiz-adv-x="1018" 
d="M920 362q0 -181 -128 -284t-348 -103q-80 0 -180.5 26.5t-142.5 55.5v199q61 -55 160.5 -92t185.5 -37q276 0 276 215q0 90 -59 154.5t-242 169.5q-177 100 -248 190t-71 219q0 170 127 276.5t328 106.5q193 0 282 -51v-188q-112 88 -291 88q-119 0 -194.5 -59.5
t-75.5 -157.5q0 -71 22.5 -114t76 -85t180.5 -113q190 -106 266 -200t76 -216z" />
    <glyph glyph-name="T" unicode="T" horiz-adv-x="1073" 
d="M1036 1282h-413v-1282h-168v1282h-414v152h995v-152z" />
    <glyph glyph-name="U" unicode="U" horiz-adv-x="1407" 
d="M1237 580q0 -605 -545 -605q-522 0 -522 582v877h168v-867q0 -440 373 -440q358 0 358 426v881h168v-854z" />
    <glyph glyph-name="V" unicode="V" horiz-adv-x="1272" 
d="M1253 1434l-530 -1434h-184l-521 1434h187l397 -1137q20 -60 29 -127h4q5 49 33 129l405 1135h180z" />
    <glyph glyph-name="W" unicode="W" horiz-adv-x="1913" 
d="M1888 1434l-405 -1434h-197l-295 1049q-17 59 -22 145h-4q-8 -74 -27 -143l-297 -1051h-195l-419 1434h184l305 -1100q19 -73 25 -144h4q5 61 30 144l318 1100h162l303 -1108q17 -62 24 -133h4q5 52 27 137l293 1104h182z" />
    <glyph glyph-name="X" unicode="X" horiz-adv-x="1208" 
d="M1178 0h-205l-330 549q-15 25 -33 72h-4l-35 -72l-340 -549h-204l479 721l-443 713h207l293 -504q28 -48 51 -101h4q29 61 56 105l305 500h192l-450 -711z" />
    <glyph glyph-name="Y" unicode="Y" horiz-adv-x="1133" 
d="M1120 1434l-473 -904v-530h-168v526l-461 908h191l321 -648l35 -88h2q10 33 39 88l336 648h178z" />
    <glyph glyph-name="Z" unicode="Z" horiz-adv-x="1167" 
d="M1124 1395l-839 -1243h819v-152h-1071v47l833 1235h-766v152h1024v-39z" />
    <glyph glyph-name="bracketleft" unicode="[" horiz-adv-x="618" 
d="M567 -326h-366v1760h366v-119h-221v-1522h221v-119z" />
    <glyph glyph-name="backslash" unicode="\" horiz-adv-x="776" 
d="M799 -240h-152l-674 1674h156z" />
    <glyph glyph-name="bracketright" unicode="]" horiz-adv-x="618" 
d="M420 -326h-367v119h221v1522h-221v119h367v-1760z" />
    <glyph glyph-name="asciicircum" unicode="^" horiz-adv-x="1401" 
d="M1174 625h-150l-332 618h-6l-309 -618h-148l422 833h66z" />
    <glyph glyph-name="underscore" unicode="_" horiz-adv-x="850" 
d="M850 -297h-850v119h850v-119z" />
    <glyph glyph-name="grave" unicode="`" horiz-adv-x="549" 
d="M471 1219h-127l-262 327h168z" />
    <glyph glyph-name="a" unicode="a" horiz-adv-x="1034" 
d="M891 0h-164v160h-4q-107 -185 -315 -185q-148 0 -237 80.5t-89 216.5q0 286 338 334l307 43q0 260 -211 260q-185 0 -334 -125v168q45 34 154 65.5t194 31.5q361 0 361 -383v-666zM727 518l-248 -35q-127 -18 -178 -60.5t-51 -137.5q0 -77 55 -123.5t141 -46.5
q122 0 201.5 86t79.5 215v102z" />
    <glyph glyph-name="b" unicode="b" horiz-adv-x="1196" 
d="M1108 543q0 -256 -126 -412t-341 -156q-202 0 -307 172h-4v-147h-164v1516h164v-672h4q121 205 354 205q192 0 306 -136t114 -370zM940 545q0 166 -78 265t-215 99q-141 0 -229 -98t-88 -250v-143q0 -129 84.5 -216t208.5 -87q148 0 232.5 114t84.5 316z" />
    <glyph glyph-name="c" unicode="c" horiz-adv-x="938" 
d="M856 47q-119 -72 -281 -72q-140 0 -251.5 64.5t-173.5 182.5t-62 265q0 254 145.5 408t387.5 154q134 0 237 -52v-168q-115 80 -244 80q-159 0 -258.5 -113.5t-99.5 -293.5q0 -179 94.5 -283t253.5 -104q134 0 252 88v-156z" />
    <glyph glyph-name="d" unicode="d" horiz-adv-x="1198" 
d="M1032 0h-164v174h-4q-114 -199 -352 -199q-194 0 -309 139.5t-115 372.5q0 254 127.5 408t341.5 154q210 0 307 -166h4v633h164v-1516zM868 463v151q0 127 -84.5 211t-205.5 84q-148 0 -235 -109.5t-87 -303.5q0 -176 82 -278.5t221 -102.5q135 0 222 98t87 250z" />
    <glyph glyph-name="e" unicode="e" horiz-adv-x="1055" 
d="M981 471h-723q4 -173 91.5 -264.5t242.5 -91.5q174 0 317 112v-153q-134 -99 -356 -99q-219 0 -342 141.5t-123 391.5q0 152 61.5 277.5t169.5 194.5t240 69q199 0 310.5 -129.5t111.5 -362.5v-86zM813 610q-2 142 -68.5 220.5t-187.5 78.5q-114 0 -195 -82t-102 -217
h553z" />
    <glyph glyph-name="f" unicode="f" horiz-adv-x="641" 
d="M672 1372q-48 27 -109 27q-172 0 -172 -217v-158h240v-139h-240v-885h-164v885h-174v139h174v166q0 156 92 252t234 96q75 0 119 -18v-148z" />
    <glyph glyph-name="g" unicode="g" horiz-adv-x="1198" 
d="M1032 82q0 -563 -540 -563q-188 0 -332 71v164q172 -96 329 -96q379 0 379 401v113h-4q-117 -197 -352 -197q-124 0 -221 62t-150 177t-53 265q0 262 127.5 416t341.5 154q207 0 307 -166h4v141h164v-942zM868 463v151q0 124 -85 209.5t-203 85.5q-153 0 -238.5 -111
t-85.5 -309q0 -168 82 -271t219 -103t224 97.5t87 250.5z" />
    <glyph glyph-name="h" unicode="h" horiz-adv-x="1159" 
d="M1016 0h-164v590q0 319 -238 319q-123 0 -203.5 -93.5t-80.5 -235.5v-580h-164v1516h164v-662h4q118 195 336 195q346 0 346 -418v-631z" />
    <glyph glyph-name="i" unicode="i" horiz-adv-x="496" 
d="M358 1391q0 -46 -32 -76.5t-76 -30.5q-45 0 -76 29.5t-31 77.5q0 43 30.5 74.5t76.5 31.5t77 -31t31 -75zM330 0h-164v1024h164v-1024z" />
    <glyph glyph-name="i" unicode="&#x456;" horiz-adv-x="496" 
d="M358 1391q0 -46 -32 -76.5t-76 -30.5q-45 0 -76 29.5t-31 77.5q0 43 30.5 74.5t76.5 31.5t77 -31t31 -75zM330 0h-164v1024h164v-1024z" />
    <glyph glyph-name="j" unicode="j" horiz-adv-x="496" 
d="M358 1391q0 -46 -32 -76.5t-76 -30.5q-45 0 -76 29.5t-31 77.5q0 43 30.5 74.5t76.5 31.5t77 -31t31 -75zM330 43q0 -252 -101 -388t-290 -136q-72 0 -138 30v154q75 -45 142 -45q223 0 223 358v1008h164v-981z" />
    <glyph glyph-name="j" unicode="&#x458;" horiz-adv-x="496" 
d="M358 1391q0 -46 -32 -76.5t-76 -30.5q-45 0 -76 29.5t-31 77.5q0 43 30.5 74.5t76.5 31.5t77 -31t31 -75zM330 43q0 -252 -101 -388t-290 -136q-72 0 -138 30v154q75 -45 142 -45q223 0 223 358v1008h164v-981z" />
    <glyph glyph-name="k" unicode="k" horiz-adv-x="1018" 
d="M1016 0h-230l-452 492h-4v-492h-164v1516h164v-961h4l430 469h215l-475 -494z" />
    <glyph glyph-name="l" unicode="l" horiz-adv-x="496" 
d="M330 0h-164v1516h164v-1516z" />
    <glyph glyph-name="m" unicode="m" horiz-adv-x="1763" 
d="M1620 0h-164v588q0 172 -52.5 246.5t-176.5 74.5q-105 0 -178.5 -96t-73.5 -229v-584h-164v608q0 301 -233 301q-108 0 -178 -90.5t-70 -234.5v-584h-164v1024h164v-162h4q109 187 317 187q100 0 180 -56t111 -157q114 213 340 213q338 0 338 -418v-631z" />
    <glyph glyph-name="n" unicode="n" horiz-adv-x="1159" 
d="M1016 0h-164v584q0 325 -238 325q-121 0 -202.5 -91.5t-81.5 -233.5v-584h-164v1024h164v-170h4q115 195 336 195q169 0 257.5 -110t88.5 -312v-627z" />
    <glyph glyph-name="o" unicode="o" horiz-adv-x="1184" 
d="M1096 516q0 -244 -138.5 -392.5t-371.5 -148.5q-227 0 -362.5 144.5t-135.5 380.5q0 254 139 401.5t383 147.5q228 0 357 -142.5t129 -390.5zM928 510q0 193 -85.5 296t-244.5 103q-158 0 -250 -105.5t-92 -297.5q0 -184 92.5 -287.5t249.5 -103.5q160 0 245 102t85 293z
" />
    <glyph glyph-name="p" unicode="p" horiz-adv-x="1196" 
d="M1108 543q0 -260 -127 -414t-340 -154q-202 0 -307 172h-4v-618h-164v1495h164v-180h4q121 205 354 205q192 0 306 -136t114 -370zM940 545q0 166 -78 265t-215 99q-141 0 -229 -98t-88 -250v-143q0 -129 84.5 -216t208.5 -87q148 0 232.5 114t84.5 316z" />
    <glyph glyph-name="q" unicode="q" horiz-adv-x="1198" 
d="M1032 -471h-164v647h-4q-107 -201 -350 -201q-195 0 -310.5 138t-115.5 374q0 252 127.5 407t343.5 155q211 0 305 -166h4v141h164v-1495zM868 461v149q0 127 -84 213t-209 86q-150 0 -234.5 -111t-84.5 -306q0 -174 81.5 -275.5t215.5 -101.5q138 0 226.5 96t88.5 250z
" />
    <glyph glyph-name="r" unicode="r" horiz-adv-x="713" 
d="M700 858q-44 33 -125 33q-109 0 -177 -102.5t-68 -266.5v-522h-164v1024h164v-211h4q34 106 105 167.5t163 61.5q64 0 98 -14v-170z" />
    <glyph glyph-name="s" unicode="s" horiz-adv-x="799" 
d="M725 274q0 -133 -102.5 -216t-272.5 -83q-145 0 -254 62v176q121 -98 266 -98q195 0 195 143q0 58 -38 94.5t-173 98.5q-136 58 -192 124.5t-56 176.5q0 127 102 212t259 85q121 0 219 -48v-165q-100 73 -232 73q-81 0 -130.5 -40t-49.5 -103q0 -68 38 -104.5t157 -86.5
q146 -62 205 -130t59 -171z" />
    <glyph glyph-name="t" unicode="t" horiz-adv-x="694" 
d="M641 10q-59 -33 -154 -33q-268 0 -268 302v606h-176v139h176v250l164 53v-303h258v-139h-258v-578q0 -103 35 -146.5t117 -43.5q61 0 106 33v-140z" />
    <glyph glyph-name="u" unicode="u" horiz-adv-x="1159" 
d="M993 0h-164v162h-4q-102 -187 -315 -187q-367 0 -367 437v612h164v-586q0 -323 248 -323q122 0 198 88.5t76 230.5v590h164v-1024z" />
    <glyph glyph-name="v" unicode="v" horiz-adv-x="981" 
d="M971 1024l-408 -1024h-162l-387 1024h181l260 -743q21 -59 34 -144h5q9 74 32 139l273 748h172z" />
    <glyph glyph-name="w" unicode="w" horiz-adv-x="1481" 
d="M1456 1024l-307 -1024h-170l-211 733q-11 38 -16 94h-4q-3 -35 -21 -92l-229 -735h-164l-309 1024h172l211 -770q10 -40 14 -92h8q2 38 19 94l235 768h150l213 -772q10 -39 14 -92h8q2 48 16 92l209 772h162z" />
    <glyph glyph-name="x" unicode="x" horiz-adv-x="940" 
d="M913 1024l-344 -518l338 -506h-190l-201 332l-45 78h-4l-252 -410h-188l348 502l-334 522h190q215 -378 242 -430h4l256 430h180z" />
    <glyph glyph-name="y" unicode="y" horiz-adv-x="991" 
d="M981 1024l-471 -1188q-126 -317 -354 -317q-64 0 -107 12v147q52 -18 96 -18q125 0 187 147l82 195l-400 1022h183l276 -788l21 -78h6q4 22 20 75l291 791h170z" />
    <glyph glyph-name="z" unicode="z" horiz-adv-x="926" 
d="M881 977l-607 -838h600v-139h-841v51l606 834h-549v139h791v-47z" />
    <glyph glyph-name="braceleft" unicode="{" horiz-adv-x="618" 
d="M555 -326q-307 4 -307 310v301q0 202 -156 211v116q156 10 156 215v293q0 310 307 314v-127q-160 -4 -160 -199v-293q0 -210 -149 -258v-4q149 -47 149 -256v-289q0 -111 37.5 -159t122.5 -50v-125z" />
    <glyph glyph-name="bar" unicode="|" horiz-adv-x="489" 
d="M319 -481h-147v2048h147v-2048z" />
    <glyph glyph-name="braceright" unicode="}" horiz-adv-x="618" 
d="M528 496q-155 -9 -155 -211v-301q0 -306 -307 -310v125q86 2 122.5 50t36.5 159v289q0 209 150 256v4q-150 48 -150 258v293q0 194 -159 199v127q307 -4 307 -314v-293q0 -204 155 -215v-116z" />
    <glyph glyph-name="asciitilde" unicode="~" horiz-adv-x="1401" 
d="M1194 750q-4 -144 -79.5 -227t-201.5 -83q-109 0 -264 109q-97 67 -160 67q-139 0 -145 -176h-135q6 146 80.5 228t199.5 82q108 0 236 -88q131 -91 197 -91q61 0 98 49t39 130h135z" />
    <glyph glyph-name="Adieresis" unicode="&#xc4;" horiz-adv-x="1321" 
d="M1298 0h-186l-151 401h-609l-143 -401h-186l548 1434h174zM905 553l-225 610q-8 22 -23 97h-4q-9 -63 -22 -97l-223 -610h497zM939 1664q0 -41 -29 -69.5t-70 -28.5q-40 0 -69 28.5t-29 69.5q0 42 28 70t68 28q43 0 72 -29t29 -69zM554 1664q0 -41 -29 -69.5t-70 -28.5
q-40 0 -70 28t-30 70q0 41 29 69.5t69 28.5q43 0 72 -29t29 -69z" />
    <glyph glyph-name="Aring" unicode="&#xc5;" horiz-adv-x="1321" 
d="M1298 0h-186l-151 401h-609l-143 -401h-186l528 1378q-100 51 -100 164q0 87 59.5 143t151.5 56q87 0 143.5 -54.5t56.5 -138.5q0 -112 -96 -166zM770 1548q0 49 -33 80t-82 31t-80.5 -31.5t-31.5 -79.5q0 -114 112 -114q47 0 81 32t34 82zM905 553l-225 610
q-8 22 -23 97h-4q-9 -63 -22 -97l-223 -610h497z" />
    <glyph glyph-name="Ccedilla" unicode="&#xc7;" horiz-adv-x="1268" 
d="M1163 59q-158 -84 -395 -84q-199 0 -353 89t-237.5 252.5t-83.5 373.5q0 219 93 395.5t261 274.5t377 98q203 0 338 -59v-178q-154 86 -340 86q-162 0 -288 -75t-195.5 -214t-69.5 -318q0 -170 65 -301t184 -201.5t272 -70.5q216 0 372 96v-164zM961 -256
q0 -176 -274 -176l-66 2v90q42 -6 70 -6q141 0 141 90q0 78 -129 78l-41 -4v182h109v-104q87 0 138.5 -40t51.5 -112z" />
    <glyph glyph-name="Eacute" unicode="&#xc9;" horiz-adv-x="1036" 
d="M948 0h-760v1434h727v-152h-559v-477h518v-152h-518v-501h592v-152zM803 1891l-262 -327h-127l223 327h166z" />
    <glyph glyph-name="Ntilde" unicode="&#xd1;" horiz-adv-x="1532" 
d="M1343 0h-204l-740 1143q-26 40 -45 90h-6q8 -46 8 -197v-1036h-168v1434h218l718 -1125l58 -96h4q-10 62 -10 211v1010h167v-1434zM1113 1803q0 -107 -49 -172t-129 -65q-71 0 -162 51q-77 43 -119 43q-88 0 -88 -113h-94q0 108 48.5 172t133.5 64q67 0 150 -52
q72 -45 127 -45q84 0 84 117h98z" />
    <glyph glyph-name="Odieresis" unicode="&#xd6;" horiz-adv-x="1544" 
d="M1450 735q0 -229 -83.5 -401.5t-240 -265.5t-360.5 -93q-197 0 -350.5 90.5t-237.5 257t-84 377.5q0 227 85 400t244 265.5t368 92.5q191 0 342.5 -91t234 -256t82.5 -376zM1274 713q0 280 -131 437t-365 157q-147 0 -263.5 -74.5t-180.5 -211.5t-64 -306
q0 -172 61.5 -306.5t175.5 -208t259 -73.5q238 0 373 156t135 430zM1067 1662q0 -41 -29 -69.5t-70 -28.5q-40 0 -69 28.5t-29 69.5q0 42 28 70t68 28q43 0 72 -29t29 -69zM682 1662q0 -41 -29 -69.5t-70 -28.5q-40 0 -70 28t-30 70q0 41 29 69.5t69 28.5q43 0 72 -29
t29 -69z" />
    <glyph glyph-name="Udieresis" unicode="&#xdc;" horiz-adv-x="1407" 
d="M1237 580q0 -605 -545 -605q-522 0 -522 582v877h168v-867q0 -440 373 -440q358 0 358 426v881h168v-854zM994 1666q0 -41 -29 -69.5t-70 -28.5q-40 0 -69 28.5t-29 69.5q0 42 28 70t68 28q43 0 72 -29t29 -69zM609 1666q0 -41 -29 -69.5t-70 -28.5q-40 0 -70 28t-30 70
q0 41 29 69.5t69 28.5q43 0 72 -29t29 -69z" />
    <glyph glyph-name="aacute" unicode="&#xe1;" horiz-adv-x="1034" 
d="M891 0h-164v160h-4q-107 -185 -315 -185q-148 0 -237 80.5t-89 216.5q0 286 338 334l307 43q0 260 -211 260q-185 0 -334 -125v168q45 34 154 65.5t194 31.5q361 0 361 -383v-666zM727 518l-248 -35q-127 -18 -178 -60.5t-51 -137.5q0 -77 55 -123.5t141 -46.5
q122 0 201.5 86t79.5 215v102zM749 1546l-262 -327h-127l223 327h166z" />
    <glyph glyph-name="agrave" unicode="&#xe0;" horiz-adv-x="1034" 
d="M891 0h-164v160h-4q-107 -185 -315 -185q-148 0 -237 80.5t-89 216.5q0 286 338 334l307 43q0 260 -211 260q-185 0 -334 -125v168q45 34 154 65.5t194 31.5q361 0 361 -383v-666zM727 518l-248 -35q-127 -18 -178 -60.5t-51 -137.5q0 -77 55 -123.5t141 -46.5
q122 0 201.5 86t79.5 215v102zM666 1219h-127l-262 327h168z" />
    <glyph glyph-name="acircumflex" unicode="&#xe2;" horiz-adv-x="1034" 
d="M891 0h-164v160h-4q-107 -185 -315 -185q-148 0 -237 80.5t-89 216.5q0 286 338 334l307 43q0 260 -211 260q-185 0 -334 -125v168q45 34 154 65.5t194 31.5q361 0 361 -383v-666zM727 518l-248 -35q-127 -18 -178 -60.5t-51 -137.5q0 -77 55 -123.5t141 -46.5
q122 0 201.5 86t79.5 215v102zM797 1219h-120l-164 229l-166 -229h-113l215 331h133z" />
    <glyph glyph-name="adieresis" unicode="&#xe4;" horiz-adv-x="1034" 
d="M891 0h-164v160h-4q-107 -185 -315 -185q-148 0 -237 80.5t-89 216.5q0 286 338 334l307 43q0 260 -211 260q-185 0 -334 -125v168q45 34 154 65.5t194 31.5q361 0 361 -383v-666zM727 518l-248 -35q-127 -18 -178 -60.5t-51 -137.5q0 -77 55 -123.5t141 -46.5
q122 0 201.5 86t79.5 215v102zM799 1317q0 -41 -29 -69.5t-70 -28.5q-40 0 -69 28.5t-29 69.5q0 42 28 70t68 28q43 0 72 -29t29 -69zM414 1317q0 -41 -29 -69.5t-70 -28.5q-40 0 -70 28t-30 70q0 41 29 69.5t69 28.5q43 0 72 -29t29 -69z" />
    <glyph glyph-name="atilde" unicode="&#xe3;" horiz-adv-x="1034" 
d="M891 0h-164v160h-4q-107 -185 -315 -185q-148 0 -237 80.5t-89 216.5q0 286 338 334l307 43q0 260 -211 260q-185 0 -334 -125v168q45 34 154 65.5t194 31.5q361 0 361 -383v-666zM727 518l-248 -35q-127 -18 -178 -60.5t-51 -137.5q0 -77 55 -123.5t141 -46.5
q122 0 201.5 86t79.5 215v102zM836 1458q0 -107 -49 -172t-129 -65q-71 0 -162 51q-77 43 -119 43q-88 0 -88 -113h-94q0 108 48.5 172t133.5 64q67 0 150 -52q72 -45 127 -45q84 0 84 117h98z" />
    <glyph glyph-name="aring" unicode="&#xe5;" horiz-adv-x="1034" 
d="M891 0h-164v160h-4q-107 -185 -315 -185q-148 0 -237 80.5t-89 216.5q0 286 338 334l307 43q0 260 -211 260q-185 0 -334 -125v168q45 34 154 65.5t194 31.5q361 0 361 -383v-666zM727 518l-248 -35q-127 -18 -178 -60.5t-51 -137.5q0 -77 55 -123.5t141 -46.5
q122 0 201.5 86t79.5 215v102zM718 1372q0 -82 -61 -139t-148 -57q-90 0 -146.5 53t-56.5 137q0 89 60.5 144t148.5 55q87 0 145 -54.5t58 -138.5zM623 1370q0 49 -32.5 81t-81.5 32q-50 0 -81.5 -33t-31.5 -80q0 -113 113 -113q49 0 81.5 32.5t32.5 80.5z" />
    <glyph glyph-name="ccedilla" unicode="&#xe7;" horiz-adv-x="938" 
d="M856 47q-119 -72 -281 -72q-140 0 -251.5 64.5t-173.5 182.5t-62 265q0 254 145.5 408t387.5 154q134 0 237 -52v-168q-115 80 -244 80q-159 0 -258.5 -113.5t-99.5 -293.5q0 -179 94.5 -283t253.5 -104q134 0 252 88v-156zM770 -256q0 -176 -274 -176l-66 2v90
q42 -6 70 -6q141 0 141 90q0 78 -129 78l-41 -4v182h109v-104q87 0 138.5 -40t51.5 -112z" />
    <glyph glyph-name="eacute" unicode="&#xe9;" horiz-adv-x="1055" 
d="M981 471h-723q4 -173 91.5 -264.5t242.5 -91.5q174 0 317 112v-153q-134 -99 -356 -99q-219 0 -342 141.5t-123 391.5q0 152 61.5 277.5t169.5 194.5t240 69q199 0 310.5 -129.5t111.5 -362.5v-86zM813 610q-2 142 -68.5 220.5t-187.5 78.5q-114 0 -195 -82t-102 -217
h553zM786 1546l-262 -327h-127l223 327h166z" />
    <glyph glyph-name="egrave" unicode="&#xe8;" horiz-adv-x="1055" 
d="M981 471h-723q4 -173 91.5 -264.5t242.5 -91.5q174 0 317 112v-153q-134 -99 -356 -99q-219 0 -342 141.5t-123 391.5q0 152 61.5 277.5t169.5 194.5t240 69q199 0 310.5 -129.5t111.5 -362.5v-86zM813 610q-2 142 -68.5 220.5t-187.5 78.5q-114 0 -195 -82t-102 -217
h553zM716 1219h-127l-262 327h168z" />
    <glyph glyph-name="ecircumflex" unicode="&#xea;" horiz-adv-x="1055" 
d="M981 471h-723q4 -173 91.5 -264.5t242.5 -91.5q174 0 317 112v-153q-134 -99 -356 -99q-219 0 -342 141.5t-123 391.5q0 152 61.5 277.5t169.5 194.5t240 69q199 0 310.5 -129.5t111.5 -362.5v-86zM813 610q-2 142 -68.5 220.5t-187.5 78.5q-114 0 -195 -82t-102 -217
h553zM831 1219h-120l-164 229l-166 -229h-113l215 331h133z" />
    <glyph glyph-name="edieresis" unicode="&#xeb;" horiz-adv-x="1055" 
d="M981 471h-723q4 -173 91.5 -264.5t242.5 -91.5q174 0 317 112v-153q-134 -99 -356 -99q-219 0 -342 141.5t-123 391.5q0 152 61.5 277.5t169.5 194.5t240 69q199 0 310.5 -129.5t111.5 -362.5v-86zM813 610q-2 142 -68.5 220.5t-187.5 78.5q-114 0 -195 -82t-102 -217
h553zM836 1317q0 -41 -29 -69.5t-70 -28.5q-40 0 -69 28.5t-29 69.5q0 42 28 70t68 28q43 0 72 -29t29 -69zM451 1317q0 -41 -29 -69.5t-70 -28.5q-40 0 -70 28t-30 70q0 41 29 69.5t69 28.5q43 0 72 -29t29 -69z" />
    <glyph glyph-name="iacute" unicode="&#xed;" horiz-adv-x="496" 
d="M330 0h-164v1024h164v-1024zM490 1546l-262 -327h-127l223 327h166z" />
    <glyph glyph-name="igrave" unicode="&#xec;" horiz-adv-x="496" 
d="M330 0h-164v1024h164v-1024zM382 1219h-127l-262 327h168z" />
    <glyph glyph-name="icircumflex" unicode="&#xee;" horiz-adv-x="496" 
d="M330 0h-164v1024h164v-1024zM531 1219h-120l-164 229l-166 -229h-113l215 331h133z" />
    <glyph glyph-name="idieresis" unicode="&#xef;" horiz-adv-x="496" 
d="M330 0h-164v1024h164v-1024zM541 1317q0 -41 -29 -69.5t-70 -28.5q-40 0 -69 28.5t-29 69.5q0 42 28 70t68 28q43 0 72 -29t29 -69zM156 1317q0 -41 -29 -69.5t-70 -28.5q-40 0 -70 28t-30 70q0 41 29 69.5t69 28.5q43 0 72 -29t29 -69z" />
    <glyph glyph-name="ntilde" unicode="&#xf1;" horiz-adv-x="1159" 
d="M1016 0h-164v584q0 325 -238 325q-121 0 -202.5 -91.5t-81.5 -233.5v-584h-164v1024h164v-170h4q115 195 336 195q169 0 257.5 -110t88.5 -312v-627zM908 1458q0 -107 -49 -172t-129 -65q-71 0 -162 51q-77 43 -119 43q-88 0 -88 -113h-94q0 108 48.5 172t133.5 64
q67 0 150 -52q72 -45 127 -45q84 0 84 117h98z" />
    <glyph glyph-name="oacute" unicode="&#xf3;" horiz-adv-x="1184" 
d="M1096 516q0 -244 -138.5 -392.5t-371.5 -148.5q-227 0 -362.5 144.5t-135.5 380.5q0 254 139 401.5t383 147.5q228 0 357 -142.5t129 -390.5zM928 510q0 193 -85.5 296t-244.5 103q-158 0 -250 -105.5t-92 -297.5q0 -184 92.5 -287.5t249.5 -103.5q160 0 245 102t85 293z
M838 1546l-262 -327h-127l223 327h166z" />
    <glyph glyph-name="ograve" unicode="&#xf2;" horiz-adv-x="1184" 
d="M1096 516q0 -244 -138.5 -392.5t-371.5 -148.5q-227 0 -362.5 144.5t-135.5 380.5q0 254 139 401.5t383 147.5q228 0 357 -142.5t129 -390.5zM928 510q0 193 -85.5 296t-244.5 103q-158 0 -250 -105.5t-92 -297.5q0 -184 92.5 -287.5t249.5 -103.5q160 0 245 102t85 293z
M739 1219h-127l-262 327h168z" />
    <glyph glyph-name="ocircumflex" unicode="&#xf4;" horiz-adv-x="1184" 
d="M1096 516q0 -244 -138.5 -392.5t-371.5 -148.5q-227 0 -362.5 144.5t-135.5 380.5q0 254 139 401.5t383 147.5q228 0 357 -142.5t129 -390.5zM928 510q0 193 -85.5 296t-244.5 103q-158 0 -250 -105.5t-92 -297.5q0 -184 92.5 -287.5t249.5 -103.5q160 0 245 102t85 293z
M875 1219h-120l-164 229l-166 -229h-113l215 331h133z" />
    <glyph glyph-name="odieresis" unicode="&#xf6;" horiz-adv-x="1184" 
d="M1096 516q0 -244 -138.5 -392.5t-371.5 -148.5q-227 0 -362.5 144.5t-135.5 380.5q0 254 139 401.5t383 147.5q228 0 357 -142.5t129 -390.5zM928 510q0 193 -85.5 296t-244.5 103q-158 0 -250 -105.5t-92 -297.5q0 -184 92.5 -287.5t249.5 -103.5q160 0 245 102t85 293z
M883 1317q0 -41 -29 -69.5t-70 -28.5q-40 0 -69 28.5t-29 69.5q0 42 28 70t68 28q43 0 72 -29t29 -69zM498 1317q0 -41 -29 -69.5t-70 -28.5q-40 0 -70 28t-30 70q0 41 29 69.5t69 28.5q43 0 72 -29t29 -69z" />
    <glyph glyph-name="otilde" unicode="&#xf5;" horiz-adv-x="1184" 
d="M1096 516q0 -244 -138.5 -392.5t-371.5 -148.5q-227 0 -362.5 144.5t-135.5 380.5q0 254 139 401.5t383 147.5q228 0 357 -142.5t129 -390.5zM928 510q0 193 -85.5 296t-244.5 103q-158 0 -250 -105.5t-92 -297.5q0 -184 92.5 -287.5t249.5 -103.5q160 0 245 102t85 293z
M923 1458q0 -107 -49 -172t-129 -65q-71 0 -162 51q-77 43 -119 43q-88 0 -88 -113h-94q0 108 48.5 172t133.5 64q67 0 150 -52q72 -45 127 -45q84 0 84 117h98z" />
    <glyph glyph-name="uacute" unicode="&#xfa;" horiz-adv-x="1159" 
d="M993 0h-164v162h-4q-102 -187 -315 -187q-367 0 -367 437v612h164v-586q0 -323 248 -323q122 0 198 88.5t76 230.5v590h164v-1024zM840 1546l-262 -327h-127l223 327h166z" />
    <glyph glyph-name="ugrave" unicode="&#xf9;" horiz-adv-x="1159" 
d="M993 0h-164v162h-4q-102 -187 -315 -187q-367 0 -367 437v612h164v-586q0 -323 248 -323q122 0 198 88.5t76 230.5v590h164v-1024zM705 1219h-127l-262 327h168z" />
    <glyph glyph-name="ucircumflex" unicode="&#xfb;" horiz-adv-x="1159" 
d="M993 0h-164v162h-4q-102 -187 -315 -187q-367 0 -367 437v612h164v-586q0 -323 248 -323q122 0 198 88.5t76 230.5v590h164v-1024zM853 1219h-120l-164 229l-166 -229h-113l215 331h133z" />
    <glyph glyph-name="udieresis" unicode="&#xfc;" horiz-adv-x="1159" 
d="M993 0h-164v162h-4q-102 -187 -315 -187q-367 0 -367 437v612h164v-586q0 -323 248 -323q122 0 198 88.5t76 230.5v590h164v-1024zM869 1317q0 -41 -29 -69.5t-70 -28.5q-40 0 -69 28.5t-29 69.5q0 42 28 70t68 28q43 0 72 -29t29 -69zM484 1317q0 -41 -29 -69.5
t-70 -28.5q-40 0 -70 28t-30 70q0 41 29 69.5t69 28.5q43 0 72 -29t29 -69z" />
    <glyph glyph-name="dagger" unicode="&#x2020;" horiz-adv-x="768" 
d="M698 999h-252v-753h-127v753h-251v111h251v320h127v-320h252v-111z" />
    <glyph glyph-name="degree" unicode="&#xb0;" horiz-adv-x="772" 
d="M662 1176q0 -116 -80.5 -197.5t-196.5 -81.5q-114 0 -195 81.5t-81 197.5q0 114 80 194t194 80q116 0 197.5 -80.5t81.5 -193.5zM543 1176q0 65 -47.5 111t-110.5 46q-65 0 -111.5 -46.5t-46.5 -110.5q0 -66 45 -114t111 -48q67 0 113.5 49.5t46.5 112.5z" />
    <glyph glyph-name="cent" unicode="&#xa2;" 
d="M952 209q-98 -60 -221 -70v-188h-125v190q-190 22 -306 161t-116 347q0 218 115 366.5t307 184.5v213h125v-203q124 -2 221 -51v-172q-100 70 -221 78v-784q121 12 221 86v-158zM606 291v762q-118 -32 -186 -135t-68 -252q0 -151 68.5 -250t185.5 -125z" />
    <glyph glyph-name="sterling" unicode="&#xa3;" 
d="M1006 0h-900v135q218 69 218 314v186h-197v141h197v254q0 189 110.5 308.5t280.5 119.5q116 0 213 -41v-155q-101 57 -211 57q-230 0 -230 -307v-236h297v-141h-297v-156q0 -243 -192 -340h711v-139z" />
    <glyph glyph-name="section" unicode="&#xa7;" horiz-adv-x="918" 
d="M807 692q0 -170 -150 -276q91 -73 91 -187q0 -128 -100 -211.5t-255 -83.5q-130 0 -239 56v157q130 -73 249 -73q83 0 130 38.5t47 100.5q0 72 -76 127q-14 10 -139 76q-234 121 -234 317q0 163 148 244q-107 83 -107 223q0 130 94.5 210.5t245.5 80.5q130 0 219 -43
v-158q-101 62 -223 62q-168 0 -168 -144q0 -48 20.5 -78.5t72.5 -64.5t151 -80q223 -106 223 -293zM639 674q0 74 -53.5 124t-188.5 107q-100 -51 -100 -160q0 -73 57 -126t197 -117q88 67 88 172z" />
    <glyph glyph-name="bullet" unicode="&#x2022;" horiz-adv-x="831" 
d="M668 657q0 -101 -73 -175t-177 -74t-179 73t-75 176t75.5 178.5t178.5 75.5q101 0 175.5 -74.5t74.5 -179.5z" />
    <glyph glyph-name="paragraph" unicode="&#xb6;" horiz-adv-x="938" 
d="M834 1331h-127v-1331h-107v1331h-158v-1331h-108v903q-108 0 -179 76t-71 190t74 189.5t182 75.5h494v-103z" />
    <glyph glyph-name="germandbls" unicode="&#xdf;" horiz-adv-x="1114" 
d="M1044 393q0 -118 -51.5 -214t-145 -150t-208.5 -54q-100 0 -178 27v160q74 -47 170 -47q111 0 178.5 74t67.5 196q0 150 -101.5 244t-277.5 112v131q118 20 194 104.5t76 194.5q0 106 -53.5 167t-153.5 61q-231 0 -231 -309v-1090h-164v1114q0 190 110 307t295 117
q165 0 265 -94.5t100 -251.5q0 -126 -76 -228.5t-194 -140.5v-4q378 -75 378 -426z" />
    <glyph glyph-name="registered" unicode="&#xae;" horiz-adv-x="1823" 
d="M1663 719q0 -315 -217.5 -529.5t-536.5 -214.5q-320 0 -533.5 207t-213.5 531q0 314 216 529t537 216q320 0 534 -211t214 -528zM1573 715q0 283 -191.5 472t-468.5 189q-286 0 -474.5 -190.5t-188.5 -470.5q0 -285 193 -474.5t470 -189.5q274 0 467 190t193 474z
M1276 248h-162l-104 229q-78 172 -170 172h-88v-401h-134v954h269q163 0 255.5 -68.5t92.5 -191.5q0 -99 -63.5 -167.5t-178.5 -92.5v-4q80 -18 158 -176zM1092 926q0 87 -52.5 124t-169.5 37h-118v-325h143q197 0 197 164z" />
    <glyph glyph-name="copyright" unicode="&#xa9;" horiz-adv-x="1823" 
d="M1663 719q0 -315 -217.5 -529.5t-536.5 -214.5q-320 0 -533.5 207t-213.5 531q0 314 216 529t537 216q320 0 534 -211t214 -528zM1573 715q0 283 -191.5 472t-468.5 189q-286 0 -474.5 -190.5t-188.5 -470.5q0 -285 193 -474.5t470 -189.5q274 0 467 190t193 474z
M1212 266q-113 -69 -268 -69q-135 0 -248 64.5t-178 179t-65 251.5q0 158 65.5 282t184.5 191.5t270 67.5q131 0 235 -53v-150q-95 72 -254 72t-258.5 -109t-99.5 -284q0 -173 103.5 -279t263.5 -106q145 0 249 77v-135z" />
    <glyph glyph-name="trademark" unicode="&#x2122;" horiz-adv-x="1583" 
d="M1397 772h-109v477h-4l-219 -477h-59l-213 477h-5v-477h-102v662h127l225 -496h4l228 496h127v-662zM602 1335h-209v-563h-110v563h-207v99h526v-99z" />
    <glyph glyph-name="acute" unicode="&#xb4;" horiz-adv-x="578" 
d="M524 1546l-262 -327h-127l223 327h166z" />
    <glyph glyph-name="dieresis" unicode="&#xa8;" horiz-adv-x="848" 
d="M709 1317q0 -41 -29 -69.5t-70 -28.5q-40 0 -69 28.5t-29 69.5q0 42 28 70t68 28q43 0 72 -29t29 -69zM324 1317q0 -41 -29 -69.5t-70 -28.5q-40 0 -70 28t-30 70q0 41 29 69.5t69 28.5q43 0 72 -29t29 -69z" />
    <glyph glyph-name="notequal" unicode="&#x2260;" horiz-adv-x="1403" 
d="M1171 317h-548l-164 -317h-142l164 317h-250v134h320l149 292h-469v134h539l158 311h141l-160 -311h262v-134h-329l-152 -292h481v-134z" />
    <glyph glyph-name="AE" unicode="&#xc6;" horiz-adv-x="1761" 
d="M1667 0h-760v401h-510l-192 -401h-195l701 1434h923v-152h-559v-477h518v-152h-518v-501h592v-152zM907 553v729h-94l-346 -729h440z" />
    <glyph glyph-name="Oslash" unicode="&#xd8;" horiz-adv-x="1544" 
d="M1450 735q0 -229 -83.5 -401.5t-240 -265.5t-360.5 -93q-267 0 -442 156l-152 -182l-78 65l158 191q-158 196 -158 495q0 227 85 399.5t244 265.5t368 93q233 0 401 -129l135 162l78 -64l-139 -165q184 -200 184 -527zM1274 713q0 259 -117 417l-725 -866
q131 -137 334 -137q238 0 373 155t135 431zM1090 1204q-125 103 -312 103q-147 0 -263.5 -75t-180.5 -210t-64 -307q0 -223 99 -373z" />
    <glyph glyph-name="infinity" unicode="&#x221e;" horiz-adv-x="1673" 
d="M1593 600q0 -105 -50 -196.5t-135.5 -144t-186.5 -52.5q-228 0 -385 274q-168 -274 -381 -274q-166 0 -269.5 106t-103.5 279q0 104 50 196t136 144.5t187 52.5q235 0 385 -272q164 272 381 272q164 0 268 -107.5t104 -277.5zM1460 600q0 111 -68.5 185.5t-170.5 74.5
q-175 0 -320 -264q131 -260 320 -260q109 0 174 73t65 191zM774 598q-130 262 -319 262q-110 0 -176 -75t-66 -193q0 -111 68 -183.5t174 -72.5q175 0 319 262z" />
    <glyph glyph-name="plusminus" unicode="&#xb1;" horiz-adv-x="1401" 
d="M1171 651h-403v-403h-131v403h-406v133h406v404h131v-404h403v-133zM1171 0h-940v133h940v-133z" />
    <glyph glyph-name="lessequal" unicode="&#x2264;" horiz-adv-x="1403" 
d="M1133 254l-861 434v57l861 482v-150l-644 -354v-4l644 -313v-152zM1171 0h-940v133h940v-133z" />
    <glyph glyph-name="greaterequal" unicode="&#x2265;" horiz-adv-x="1403" 
d="M1133 690l-861 -434v152l643 309v6l-643 356v150l861 -481v-58zM1171 0h-940v133h940v-133z" />
    <glyph glyph-name="yen" unicode="&#xa5;" 
d="M1042 1434l-356 -656h285v-139h-334v-207h334v-139h-334v-293h-164v293h-344v139h344v207h-344v139h291l-352 656h192l250 -514q35 -74 47 -111h4q13 44 49 117l252 508h180z" />
    <glyph glyph-name="mu" unicode="&#xb5;" horiz-adv-x="1180" 
d="M1016 0h-164v143h-4q-83 -168 -285 -168q-158 0 -229 119h-4v-485h-164v1415h164v-582q0 -327 243 -327q126 0 202.5 90.5t76.5 234.5v584h164v-1024z" />
    <glyph glyph-name="partialdiff" unicode="&#x2202;" horiz-adv-x="1096" 
d="M1028 934q0 -241 -68 -474t-202.5 -359t-313.5 -126q-167 0 -266.5 107t-99.5 289q0 272 148.5 470.5t373.5 198.5q176 0 262 -168h4l2 70q0 406 -268 406q-122 0 -246 -80l39 155q118 66 248 66q200 0 293.5 -135t93.5 -420zM850 692q-59 209 -229 209
q-101 0 -188 -71.5t-137 -193.5t-50 -259q0 -121 56 -191.5t155 -70.5q97 0 179.5 70.5t138.5 202.5t75 304z" />
    <glyph glyph-name="summation" unicode="&#x2211;" horiz-adv-x="1263" 
d="M1210 -469h-1159v78l676 883l-639 851v91h1081v-154h-835l594 -784l-625 -811h907v-154z" />
    <glyph glyph-name="product" unicode="&#x220f;" horiz-adv-x="1544" 
d="M1362 -469h-168v1749h-838v-1749h-168v1903h1174v-1903z" />
    <glyph glyph-name="glyph155" horiz-adv-x="1284" 
d="M1198 885h-223v-613q0 -141 104 -141q27 0 86 21v-142q-59 -22 -121 -22q-233 0 -233 276v621h-389v-606q0 -195 -31 -279h-170q37 87 37 279v606q-152 -5 -242 -80v151q98 68 258 68h924v-139z" />
    <glyph glyph-name="integral" unicode="&#x222b;" horiz-adv-x="1105" 
d="M915 1372q-47 27 -110 27q-170 0 -170 -217v-1321q0 -155 -91 -250.5t-235 -95.5q-76 0 -119 18v148q48 -27 109 -27q172 0 172 217v1319q0 155 91.5 251.5t234.5 96.5q74 0 118 -18v-148z" />
    <glyph glyph-name="ordfeminine" unicode="&#xaa;" horiz-adv-x="803" 
d="M688 717h-129v100h-4q-80 -119 -231 -119q-106 0 -174 57.5t-68 153.5q0 203 248 236l229 31q0 167 -151 167q-135 0 -254 -86v129q110 70 266 70q127 0 197.5 -72t70.5 -202v-465zM559 1075l-180 -24q-168 -23 -168 -136q0 -51 38.5 -82.5t102.5 -31.5q83 0 145 63
t62 144v67z" />
    <glyph glyph-name="ordmasculine" unicode="&#xba;" horiz-adv-x="883" 
d="M803 1083q0 -175 -99.5 -281t-267.5 -106q-169 0 -263.5 101.5t-94.5 271.5q0 179 102 282t273 103q161 0 255.5 -98.5t94.5 -272.5zM670 1075q0 128 -59 198t-167 70q-107 0 -169 -72t-62 -198q0 -125 59 -194.5t170 -69.5q105 0 166.5 72t61.5 194z" />
    <glyph glyph-name="Omega" unicode="&#x2126;" horiz-adv-x="1546" 
d="M1448 0h-518v147q344 255 344 633q0 240 -136 383.5t-360 143.5q-228 0 -366 -145.5t-138 -381.5q0 -378 344 -633v-147h-518v152h346q-348 235 -348 632q0 200 83 354t237 237t354 83q204 0 359 -82t237 -234.5t82 -355.5q0 -399 -348 -634h346v-152z" />
    <glyph glyph-name="ae" unicode="&#xe6;" horiz-adv-x="1688" 
d="M1614 471h-725q2 -168 90 -262t242 -94q178 0 321 112v-153q-134 -99 -358 -99q-270 0 -383 230h-4q-146 -230 -387 -230q-149 0 -238.5 80t-89.5 217q0 300 383 324l262 16q0 297 -215 297q-176 0 -330 -121v164q148 97 348 97q231 0 299 -201h5q115 201 356 201
q200 0 312 -131.5t112 -362.5v-84zM1446 610q-2 142 -67.5 220.5t-186.5 78.5q-113 0 -197 -81.5t-104 -217.5h555zM727 410v63l-203 -12q-146 -9 -211 -51.5t-65 -133.5q0 -74 53 -117.5t143 -43.5q118 0 200.5 83.5t82.5 211.5z" />
    <glyph glyph-name="oslash" unicode="&#xf8;" horiz-adv-x="1184" 
d="M1165 1049l-168 -181q99 -138 99 -346q0 -249 -138 -398t-372 -149q-194 0 -318 103l-145 -160l-82 78l149 164q-102 136 -102 340q0 251 139 400t385 149q185 0 308 -99l161 176zM813 836q-79 73 -215 73q-161 0 -251.5 -107.5t-90.5 -295.5q0 -132 49 -223zM930 512
q0 133 -47 229l-508 -551q85 -75 221 -75q162 0 248 104t86 293z" />
    <glyph glyph-name="questiondown" unicode="&#xbf;" horiz-adv-x="918" 
d="M647 936q0 -44 -34 -77.5t-78 -33.5q-45 0 -78 33t-33 78t33 78t78 33t78.5 -33.5t33.5 -77.5zM786 -334q-155 -98 -315 -98q-165 0 -266 97t-101 251q0 210 203 383q93 77 121.5 124.5t28.5 129.5v74h151v-78q0 -101 -38 -171t-132 -147q-178 -145 -178 -301
q0 -98 65 -159.5t171 -61.5q166 0 290 133v-176z" />
    <glyph glyph-name="exclamdown" unicode="&#xa1;" horiz-adv-x="582" 
d="M401 936q0 -47 -33 -79t-77 -32q-45 0 -78 33t-33 78t33 78t78 33q44 0 77 -33t33 -78zM360 -406h-153v1031h153v-1031z" />
    <glyph glyph-name="logicalnot" unicode="&#xac;" horiz-adv-x="1401" 
d="M1171 254h-131v430h-809v133h940v-563z" />
    <glyph glyph-name="radical" unicode="&#x221a;" horiz-adv-x="1331" 
d="M1114 1516l-389 -1516h-113l-319 750h-170v120h264l275 -661l333 1307h119z" />
    <glyph glyph-name="florin" unicode="&#x192;" 
d="M952 1266q-49 28 -108 28q-146 0 -170 -159l-31 -209h166v-138h-186l-91 -649q-58 -418 -348 -418q-30 0 -90 17v143q37 -20 86 -20q149 0 191 291l90 636h-103v138h123l29 219q18 134 106.5 211.5t219.5 77.5q65 0 116 -19v-149z" />
    <glyph glyph-name="approxequal" unicode="&#x2248;" horiz-adv-x="1403" 
d="M1194 961q-4 -144 -79.5 -227t-201.5 -83q-109 0 -264 109q-97 67 -160 67q-139 0 -145 -176h-135q6 143 80 226.5t200 83.5q105 0 237 -90q130 -89 196 -89q61 0 98 49t39 130h135zM1194 549q-4 -145 -80 -227t-201 -82q-108 0 -264 108q-95 66 -160 66
q-139 0 -145 -174h-135q6 145 80.5 227t199.5 82q106 0 237 -89t196 -89q61 0 98 48.5t39 129.5h135z" />
    <glyph glyph-name="Delta" unicode="&#x2206;" horiz-adv-x="1320" 
d="M1272 0h-1221v76l520 1358h174l527 -1358v-76zM1057 152l-361 968q-33 88 -39 142h-4q-4 -44 -39 -142l-352 -968h795z" />
    <glyph glyph-name="guillemotleft" unicode="&#xab;" horiz-adv-x="1036" 
d="M946 201h-168l-299 336l299 344h170l-307 -344zM557 201h-166l-299 336l299 344h166l-303 -344z" />
    <glyph glyph-name="guillemotright" unicode="&#xbb;" horiz-adv-x="1036" 
d="M948 539l-301 -338h-166l303 338l-303 342h166zM559 539l-299 -338h-170l307 338l-307 342h170z" />
    <glyph glyph-name="ellipsis" unicode="&#x2026;" horiz-adv-x="1501" 
d="M1362 92q0 -46 -32.5 -78t-78.5 -32t-77 32.5t-31 77.5q0 47 32.5 80t75.5 33q47 0 79 -35t32 -78zM860 92q0 -46 -32.5 -78t-77.5 -32q-47 0 -79 32t-32 78q0 45 32.5 79t78.5 34t78 -34.5t32 -78.5zM358 92q0 -46 -32.5 -78t-77.5 -32q-47 0 -78 32.5t-31 77.5
q0 47 32.5 80t76.5 33q46 0 78 -34.5t32 -78.5z" />
    <glyph glyph-name="uni00A0" unicode="&#xa0;" horiz-adv-x="561" 
 />
    <glyph glyph-name="Agrave" unicode="&#xc0;" horiz-adv-x="1321" 
d="M1298 0h-186l-151 401h-609l-143 -401h-186l548 1434h174zM905 553l-225 610q-8 22 -23 97h-4q-9 -63 -22 -97l-223 -610h497zM758 1567h-127l-262 327h168z" />
    <glyph glyph-name="Atilde" unicode="&#xc3;" horiz-adv-x="1321" 
d="M1298 0h-186l-151 401h-609l-143 -401h-186l548 1434h174zM905 553l-225 610q-8 22 -23 97h-4q-9 -63 -22 -97l-223 -610h497zM977 1803q0 -107 -49 -172t-129 -65q-71 0 -162 51q-77 43 -119 43q-88 0 -88 -113h-94q0 108 48.5 172t133.5 64q67 0 150 -52
q72 -45 127 -45q84 0 84 117h98z" />
    <glyph glyph-name="Otilde" unicode="&#xd5;" horiz-adv-x="1544" 
d="M1450 735q0 -229 -83.5 -401.5t-240 -265.5t-360.5 -93q-197 0 -350.5 90.5t-237.5 257t-84 377.5q0 227 85 400t244 265.5t368 92.5q191 0 342.5 -91t234 -256t82.5 -376zM1274 713q0 280 -131 437t-365 157q-147 0 -263.5 -74.5t-180.5 -211.5t-64 -306
q0 -172 61.5 -306.5t175.5 -208t259 -73.5q238 0 373 156t135 430zM1103 1802q0 -107 -49 -172t-129 -65q-71 0 -162 51q-77 43 -119 43q-88 0 -88 -113h-94q0 108 48.5 172t133.5 64q67 0 150 -52q72 -45 127 -45q84 0 84 117h98z" />
    <glyph glyph-name="OE" unicode="&#x152;" horiz-adv-x="1907" 
d="M1810 0h-720l-42 -4q-187 -21 -278 -21q-200 0 -354.5 90.5t-238 255.5t-83.5 379q0 227 86.5 400t247.5 265.5t371 92.5q123 0 292 -24h687v-152h-559v-477h518v-152h-518v-501h591v-152zM1051 160v1118q-163 29 -269 29q-147 0 -264.5 -76t-182.5 -212t-65 -304
q0 -169 64 -304.5t180 -209.5t262 -74q116 0 275 33z" />
    <glyph glyph-name="oe" unicode="&#x153;" horiz-adv-x="1884" 
d="M1817 471h-725q2 -168 89.5 -262t243.5 -94q177 0 320 112v-153q-137 -99 -356 -99q-271 0 -383 238h-5q-130 -238 -415 -238q-226 0 -362 142t-136 381q0 255 141.5 403t382.5 148q292 0 402 -236h4q119 236 385 236q192 0 303 -131t111 -359v-88zM1649 610
q-2 139 -68 219t-184 80q-119 0 -203 -84t-100 -215h555zM928 508q0 194 -85.5 297.5t-244.5 103.5q-160 0 -251 -110t-91 -297q0 -178 90.5 -282.5t249.5 -104.5q160 0 246 103t86 290z" />
    <glyph glyph-name="endash" unicode="&#x2013;" horiz-adv-x="1024" 
d="M1024 506h-1024v129h1024v-129z" />
    <glyph glyph-name="emdash" unicode="&#x2014;" horiz-adv-x="2048" 
d="M2048 506h-2048v129h2048v-129z" />
    <glyph glyph-name="quotedblleft" unicode="&#x201c;" horiz-adv-x="772" 
d="M668 1458l-111 -446h-147l141 446h117zM365 1458l-109 -446h-150l140 446h119z" />
    <glyph glyph-name="quotedblright" unicode="&#x201d;" horiz-adv-x="772" 
d="M672 1458l-140 -446h-118l108 446h150zM369 1458l-142 -446h-116l110 446h148z" />
    <glyph glyph-name="quoteleft" unicode="&#x2018;" horiz-adv-x="469" 
d="M365 1458l-109 -446h-150l140 446h119z" />
    <glyph glyph-name="quoteright" unicode="&#x2019;" horiz-adv-x="469" 
d="M369 1458l-142 -446h-116l110 446h148z" />
    <glyph glyph-name="divide" unicode="&#xf7;" horiz-adv-x="1401" 
d="M811 975q0 -47 -30 -77t-72 -30q-46 0 -75.5 31t-29.5 74q0 45 28.5 76.5t76.5 31.5q102 0 102 -106zM1171 530h-940v134h940v-134zM805 217q0 -48 -29 -76t-71 -28q-46 0 -76.5 30t-30.5 72q0 47 31 79t76 32q100 0 100 -109z" />
    <glyph glyph-name="lozenge" unicode="&#x25ca;" horiz-adv-x="1195" 
d="M1087 717l-452 -717h-76l-450 715l450 719h76zM954 717l-356 575l-356 -575l356 -578z" />
    <glyph glyph-name="ydieresis" unicode="&#xff;" horiz-adv-x="991" 
d="M981 1024l-471 -1188q-126 -317 -354 -317q-64 0 -107 12v147q52 -18 96 -18q125 0 187 147l82 195l-400 1022h183l276 -788l21 -78h6q4 22 20 75l291 791h170zM788 1317q0 -41 -29 -69.5t-70 -28.5q-40 0 -69 28.5t-29 69.5q0 42 28 70t68 28q43 0 72 -29t29 -69z
M403 1317q0 -41 -29 -69.5t-70 -28.5q-40 0 -70 28t-30 70q0 41 29 69.5t69 28.5q43 0 72 -29t29 -69z" />
    <glyph glyph-name="Ydieresis" unicode="&#x178;" horiz-adv-x="1133" 
d="M1120 1434l-473 -904v-530h-168v526l-461 908h191l321 -648l35 -88h2q10 33 39 88l336 648h178zM858 1664q0 -41 -29 -69.5t-70 -28.5q-40 0 -69 28.5t-29 69.5q0 42 28 70t68 28q43 0 72 -29t29 -69zM473 1664q0 -41 -29 -69.5t-70 -28.5q-40 0 -70 28t-30 70
q0 41 29 69.5t69 28.5q43 0 72 -29t29 -69z" />
    <glyph glyph-name="uni2215" unicode="&#x2215;" horiz-adv-x="326" 
d="M-201 0h-147l876 1434h146z" />
    <glyph glyph-name="Euro" unicode="&#x20ac;" 
d="M1014 51q-136 -76 -281 -76q-425 0 -510 508h-121v140h107l-2 35v40l4 109h-109v139h131q54 241 195 376.5t342 135.5q141 0 244 -55v-164q-122 80 -256 80q-124 0 -221 -101t-138 -272h496v-139h-518q-4 -46 -4 -107v-40l2 -37h520v-140h-504q74 -368 350 -368
q134 0 273 88v-152z" />
    <glyph glyph-name="guilsinglleft" unicode="&#x2039;" horiz-adv-x="647" 
d="M557 201h-166l-299 336l299 344h168l-305 -344z" />
    <glyph glyph-name="guilsinglright" unicode="&#x203a;" horiz-adv-x="647" 
d="M559 539l-301 -338h-166l303 338l-303 342h166z" />
    <glyph glyph-name="uniFB01" unicode="&#xfb01;" horiz-adv-x="1137" 
d="M672 1372q-48 27 -109 27q-172 0 -172 -217v-158h240v-139h-240v-885h-164v885h-174v139h174v166q0 156 92 252t234 96q75 0 119 -18v-148zM1001 1391q0 -46 -32 -76.5t-76 -30.5q-45 0 -76 29.5t-31 77.5q0 43 30.5 74.5t76.5 31.5t77 -31t31 -75zM973 0h-164v1024h164
v-1024z" />
    <glyph glyph-name="uniFB02" unicode="&#xfb02;" horiz-adv-x="1137" 
d="M672 1372q-48 27 -109 27q-172 0 -172 -217v-158h240v-139h-240v-885h-164v885h-174v139h174v166q0 156 92 252t234 96q75 0 119 -18v-148zM973 0h-164v1516h164v-1516z" />
    <glyph glyph-name="daggerdbl" unicode="&#x2021;" horiz-adv-x="768" 
d="M698 575h-252v-329h-127v329h-251v109h251v315h-251v111h251v320h127v-320h252v-111h-252v-315h252v-109z" />
    <glyph glyph-name="uni2219" unicode="&#x2219;" horiz-adv-x="444" 
d="M336 623q0 -46 -33.5 -79.5t-79.5 -33.5t-78 33.5t-32 79.5q0 48 33 80t77 32q45 0 79 -32.5t34 -79.5z" />
    <glyph glyph-name="quotesinglbase" unicode="&#x201a;" horiz-adv-x="469" 
d="M346 217l-141 -444h-117l111 444h147z" />
    <glyph glyph-name="quotedblbase" unicode="&#x201e;" horiz-adv-x="772" 
d="M649 217l-139 -444h-119l109 444h149zM346 217l-141 -444h-117l111 444h147z" />
    <glyph glyph-name="perthousand" unicode="&#x2030;" horiz-adv-x="2478" 
d="M2398 356q0 -172 -94.5 -275.5t-247.5 -103.5q-146 0 -234.5 98t-88.5 261q0 174 93.5 279.5t250.5 105.5q154 0 237.5 -96.5t83.5 -268.5zM1599 356q0 -172 -94.5 -275.5t-247.5 -103.5q-146 0 -234.5 98t-88.5 261q0 174 93.5 279.5t250.5 105.5q154 0 237.5 -96.5
t83.5 -268.5zM1366 1434l-922 -1444h-143l922 1444h143zM745 1094q0 -172 -94.5 -275.5t-247.5 -103.5q-148 0 -235.5 98t-87.5 260q0 177 94.5 280t249.5 103q153 0 237 -95.5t84 -266.5zM2267 354q0 120 -52 187t-144 67q-95 0 -150 -69.5t-55 -194.5q0 -121 53.5 -187.5
t146.5 -66.5q96 0 148.5 70t52.5 194zM1468 354q0 121 -51.5 187.5t-144.5 66.5q-97 0 -151 -70.5t-54 -193.5q0 -121 53.5 -187.5t147.5 -66.5t147 70.5t53 193.5zM614 1090q0 120 -52.5 188t-143.5 68q-96 0 -150.5 -71.5t-54.5 -193.5q0 -121 54 -188.5t147 -67.5
q94 0 147 70.5t53 194.5z" />
    <glyph glyph-name="Acircumflex" unicode="&#xc2;" horiz-adv-x="1321" 
d="M1298 0h-186l-151 401h-609l-143 -401h-186l548 1434h174zM905 553l-225 610q-8 22 -23 97h-4q-9 -63 -22 -97l-223 -610h497zM926 1566h-120l-164 229l-166 -229h-113l215 331h133z" />
    <glyph glyph-name="Ecircumflex" unicode="&#xca;" horiz-adv-x="1036" 
d="M948 0h-760v1434h727v-152h-559v-477h518v-152h-518v-501h592v-152zM826 1568h-120l-164 229l-166 -229h-113l215 331h133z" />
    <glyph glyph-name="Aacute" unicode="&#xc1;" horiz-adv-x="1321" 
d="M1298 0h-186l-151 401h-609l-143 -401h-186l548 1434h174zM905 553l-225 610q-8 22 -23 97h-4q-9 -63 -22 -97l-223 -610h497zM867 1894l-262 -327h-127l223 327h166z" />
    <glyph glyph-name="Edieresis" unicode="&#xcb;" horiz-adv-x="1036" 
d="M948 0h-760v1434h727v-152h-559v-477h518v-152h-518v-501h592v-152zM848 1665q0 -41 -29 -69.5t-70 -28.5q-40 0 -69 28.5t-29 69.5q0 42 28 70t68 28q43 0 72 -29t29 -69zM463 1665q0 -41 -29 -69.5t-70 -28.5q-40 0 -70 28t-30 70q0 41 29 69.5t69 28.5q43 0 72 -29
t29 -69z" />
    <glyph glyph-name="Egrave" unicode="&#xc8;" horiz-adv-x="1036" 
d="M948 0h-760v1434h727v-152h-559v-477h518v-152h-518v-501h592v-152zM703 1566h-127l-262 327h168z" />
    <glyph glyph-name="Iacute" unicode="&#xcd;" horiz-adv-x="545" 
d="M356 0h-168v1434h168v-1434zM511 1894l-262 -327h-127l223 327h166z" />
    <glyph glyph-name="Icircumflex" unicode="&#xce;" horiz-adv-x="545" 
d="M356 0h-168v1434h168v-1434zM561 1568h-120l-164 229l-166 -229h-113l215 331h133z" />
    <glyph glyph-name="Idieresis" unicode="&#xcf;" horiz-adv-x="545" 
d="M356 0h-168v1434h168v-1434zM571 1665q0 -41 -29 -69.5t-70 -28.5q-40 0 -69 28.5t-29 69.5q0 42 28 70t68 28q43 0 72 -29t29 -69zM186 1665q0 -41 -29 -69.5t-70 -28.5q-40 0 -70 28t-30 70q0 41 29 69.5t69 28.5q43 0 72 -29t29 -69z" />
    <glyph glyph-name="Igrave" unicode="&#xcc;" horiz-adv-x="545" 
d="M356 0h-168v1434h168v-1434zM418 1567h-127l-262 327h168z" />
    <glyph glyph-name="Oacute" unicode="&#xd3;" horiz-adv-x="1544" 
d="M1450 735q0 -229 -83.5 -401.5t-240 -265.5t-360.5 -93q-197 0 -350.5 90.5t-237.5 257t-84 377.5q0 227 85 400t244 265.5t368 92.5q191 0 342.5 -91t234 -256t82.5 -376zM1274 713q0 280 -131 437t-365 157q-147 0 -263.5 -74.5t-180.5 -211.5t-64 -306
q0 -172 61.5 -306.5t175.5 -208t259 -73.5q238 0 373 156t135 430zM1028 1894l-262 -327h-127l223 327h166z" />
    <glyph glyph-name="Ocircumflex" unicode="&#xd4;" horiz-adv-x="1544" 
d="M1450 735q0 -229 -83.5 -401.5t-240 -265.5t-360.5 -93q-197 0 -350.5 90.5t-237.5 257t-84 377.5q0 227 85 400t244 265.5t368 92.5q191 0 342.5 -91t234 -256t82.5 -376zM1274 713q0 280 -131 437t-365 157q-147 0 -263.5 -74.5t-180.5 -211.5t-64 -306
q0 -172 61.5 -306.5t175.5 -208t259 -73.5q238 0 373 156t135 430zM1062 1567h-120l-164 229l-166 -229h-113l215 331h133z" />
    <glyph glyph-name="Ograve" unicode="&#xd2;" horiz-adv-x="1544" 
d="M1450 735q0 -229 -83.5 -401.5t-240 -265.5t-360.5 -93q-197 0 -350.5 90.5t-237.5 257t-84 377.5q0 227 85 400t244 265.5t368 92.5q191 0 342.5 -91t234 -256t82.5 -376zM1274 713q0 280 -131 437t-365 157q-147 0 -263.5 -74.5t-180.5 -211.5t-64 -306
q0 -172 61.5 -306.5t175.5 -208t259 -73.5q238 0 373 156t135 430zM880 1567h-127l-262 327h168z" />
    <glyph glyph-name="Uacute" unicode="&#xda;" horiz-adv-x="1407" 
d="M1237 580q0 -605 -545 -605q-522 0 -522 582v877h168v-867q0 -440 373 -440q358 0 358 426v881h168v-854zM960 1893l-262 -327h-127l223 327h166z" />
    <glyph glyph-name="Ucircumflex" unicode="&#xdb;" horiz-adv-x="1407" 
d="M1237 580q0 -605 -545 -605q-522 0 -522 582v877h168v-867q0 -440 373 -440q358 0 358 426v881h168v-854zM986 1568h-120l-164 229l-166 -229h-113l215 331h133z" />
    <glyph glyph-name="Ugrave" unicode="&#xd9;" horiz-adv-x="1407" 
d="M1237 580q0 -605 -545 -605q-522 0 -522 582v877h168v-867q0 -440 373 -440q358 0 358 426v881h168v-854zM830 1567h-127l-262 327h168z" />
    <glyph glyph-name="dotlessi" unicode="&#x131;" horiz-adv-x="496" 
d="M330 0h-164v1024h164v-1024z" />
    <glyph glyph-name="circumflex" unicode="&#x2c6;" horiz-adv-x="760" 
d="M655 1219h-120l-164 229l-166 -229h-113l215 331h133z" />
    <glyph glyph-name="tilde" unicode="&#x2dc;" horiz-adv-x="690" 
d="M676 1458q0 -107 -49 -172t-129 -65q-71 0 -162 51q-77 43 -119 43q-88 0 -88 -113h-94q0 108 48.5 172t133.5 64q67 0 150 -52q72 -45 127 -45q84 0 84 117h98z" />
    <glyph glyph-name="uni02C9" unicode="&#x2c9;" horiz-adv-x="635" 
d="M569 1219h-508v108h508v-108z" />
    <glyph glyph-name="breve" unicode="&#x2d8;" horiz-adv-x="623" 
d="M586 1470q-10 -110 -87.5 -180.5t-191.5 -70.5q-119 0 -192.5 69t-77.5 182h100q12 -155 172 -155q68 0 116 42t58 113h103z" />
    <glyph glyph-name="dotaccent" unicode="&#x2d9;" horiz-adv-x="412" 
d="M305 1317q0 -42 -28 -70t-70 -28q-40 0 -69 28.5t-29 69.5t29.5 68.5t68.5 27.5q42 0 70 -27t28 -69z" />
    <glyph glyph-name="ring" unicode="&#x2da;" horiz-adv-x="573" 
d="M494 1372q0 -82 -61 -139t-148 -57q-90 0 -146.5 53t-56.5 137q0 89 60.5 144t148.5 55q87 0 145 -54.5t58 -138.5zM399 1370q0 49 -32.5 81t-81.5 32q-50 0 -81.5 -33t-31.5 -80q0 -113 113 -113q49 0 81.5 32.5t32.5 80.5z" />
    <glyph glyph-name="cedilla" unicode="&#xb8;" horiz-adv-x="420" 
d="M391 -256q0 -176 -274 -176l-66 2v90q42 -6 70 -6q141 0 141 90q0 78 -129 78l-41 -4v182h109v-104q87 0 138.5 -40t51.5 -112z" />
    <glyph glyph-name="hungarumlaut" unicode="&#x2dd;" horiz-adv-x="664" 
d="M647 1536l-246 -317h-96l209 317h133zM399 1536l-239 -317h-97l207 317h129z" />
    <glyph glyph-name="ogonek" unicode="&#x2db;" horiz-adv-x="379" 
d="M338 0q-150 -141 -150 -223q0 -70 68 -70q29 0 55 12v-106q-29 -12 -82 -12q-76 0 -122 39.5t-46 109.5q0 122 158 250h119z" />
    <glyph glyph-name="caron" unicode="&#x2c7;" horiz-adv-x="760" 
d="M664 1548l-213 -329h-134l-215 329h115l164 -229l164 229h119z" />
    <glyph glyph-name="Lslash" unicode="&#x141;" horiz-adv-x="965" 
d="M932 0h-744v547l-155 -96v151l155 96v736h168v-631l328 203v-154l-328 -201v-499h576v-152z" />
    <glyph glyph-name="lslash" unicode="&#x142;" horiz-adv-x="561" 
d="M530 811l-174 -123v-688h-163v578l-170 -119v157l170 119v781h163v-670l174 123v-158z" />
    <glyph glyph-name="Scaron" unicode="&#x160;" horiz-adv-x="1018" 
d="M920 362q0 -181 -128 -284t-348 -103q-80 0 -180.5 26.5t-142.5 55.5v199q61 -55 160.5 -92t185.5 -37q276 0 276 215q0 90 -59 154.5t-242 169.5q-177 100 -248 190t-71 219q0 170 127 276.5t328 106.5q193 0 282 -51v-188q-112 88 -291 88q-119 0 -194.5 -59.5
t-75.5 -157.5q0 -71 22.5 -114t76 -85t180.5 -113q190 -106 266 -200t76 -216zM826 1898l-213 -329h-134l-215 329h115l164 -229l164 229h119z" />
    <glyph glyph-name="scaron" unicode="&#x161;" horiz-adv-x="799" 
d="M725 274q0 -133 -102.5 -216t-272.5 -83q-145 0 -254 62v176q121 -98 266 -98q195 0 195 143q0 58 -38 94.5t-173 98.5q-136 58 -192 124.5t-56 176.5q0 127 102 212t259 85q121 0 219 -48v-165q-100 73 -232 73q-81 0 -130.5 -40t-49.5 -103q0 -68 38 -104.5t157 -86.5
q146 -62 205 -130t59 -171zM682 1548l-213 -329h-134l-215 329h115l164 -229l164 229h119z" />
    <glyph glyph-name="Zcaron" unicode="&#x17d;" horiz-adv-x="1167" 
d="M1124 1395l-839 -1243h819v-152h-1071v47l833 1235h-766v152h1024v-39zM900 1895l-213 -329h-134l-215 329h115l164 -229l164 229h119z" />
    <glyph glyph-name="zcaron" unicode="&#x17e;" horiz-adv-x="926" 
d="M881 977l-607 -838h600v-139h-841v51l606 834h-549v139h791v-47zM782 1548l-213 -329h-134l-215 329h115l164 -229l164 229h119z" />
    <glyph glyph-name="brokenbar" unicode="&#xa6;" horiz-adv-x="489" 
d="M319 715h-147v852h147v-852zM319 -481h-147v852h147v-852z" />
    <glyph glyph-name="Eth" unicode="&#xd0;" horiz-adv-x="1436" 
d="M1341 735q0 -218 -95 -386t-271.5 -258.5t-407.5 -90.5h-379v641h-159v156h159v637h396q757 0 757 -699zM1165 731q0 551 -585 551h-224v-485h336v-156h-336v-489h213q285 0 440.5 153t155.5 426z" />
    <glyph glyph-name="eth" unicode="&#xf0;" horiz-adv-x="1128" 
d="M1040 526q0 -247 -133 -398t-348 -151q-219 0 -345 140t-126 383q0 245 132.5 396t346.5 151q124 0 211 -78l4 2q-91 163 -198 266l-299 -152l-52 99l271 131q-119 105 -264 201h221q75 -51 172 -136l289 144l55 -94l-264 -130q327 -308 327 -774zM872 510
q0 399 -299 399q-147 0 -232 -108.5t-85 -294.5q0 -181 83.5 -286t229.5 -105q137 0 220 107t83 288z" />
    <glyph glyph-name="Yacute" unicode="&#xdd;" horiz-adv-x="1133" 
d="M1120 1434l-473 -904v-530h-168v526l-461 908h191l321 -648l35 -88h2q10 33 39 88l336 648h178zM831 1894l-262 -327h-127l223 327h166z" />
    <glyph glyph-name="yacute" unicode="&#xfd;" horiz-adv-x="991" 
d="M981 1024l-471 -1188q-126 -317 -354 -317q-64 0 -107 12v147q52 -18 96 -18q125 0 187 147l82 195l-400 1022h183l276 -788l21 -78h6q4 22 20 75l291 791h170zM762 1546l-262 -327h-127l223 327h166z" />
    <glyph glyph-name="Thorn" unicode="&#xde;" horiz-adv-x="1147" 
d="M1065 780q0 -206 -143.5 -334.5t-378.5 -128.5h-187v-317h-168v1434h168v-226h226q230 0 356.5 -111t126.5 -317zM889 770q0 287 -336 287h-197v-588h176q175 0 266 78.5t91 222.5z" />
    <glyph glyph-name="thorn" unicode="&#xfe;" horiz-adv-x="1196" 
d="M1108 543q0 -260 -127 -414t-340 -154q-202 0 -307 172h-4v-618h-164v1987h164v-672h4q121 205 354 205q192 0 306 -136t114 -370zM940 545q0 166 -78 265t-215 99q-141 0 -229 -98t-88 -250v-143q0 -129 84.5 -216t208.5 -87q148 0 232.5 114t84.5 316z" />
    <glyph glyph-name="minus" unicode="&#x2212;" horiz-adv-x="1401" 
d="M1171 530h-940v134h940v-134z" />
    <glyph glyph-name="multiply" unicode="&#xd7;" horiz-adv-x="1401" 
d="M1135 258l-95 -94l-340 340l-338 -340l-94 94l340 338l-340 340l94 94l338 -340l340 340l95 -94l-340 -340z" />
    <glyph glyph-name="uni00B9" unicode="&#xb9;" horiz-adv-x="692" 
d="M629 584h-504v112h184v594l-192 -55v125l323 96v-760h189v-112z" />
    <glyph glyph-name="uni00B2" unicode="&#xb2;" horiz-adv-x="692" 
d="M627 584h-553v114l239 236q89 85 124.5 141t35.5 125q0 59 -39 95t-98 36q-115 0 -217 -102v149q82 76 235 76q117 0 186.5 -65.5t69.5 -174.5q0 -156 -204 -348l-164 -155v-4h385v-123z" />
    <glyph glyph-name="uni00B3" unicode="&#xb3;" horiz-adv-x="692" 
d="M600 827q0 -118 -86 -191t-225 -73q-136 0 -213 53v142q101 -76 217 -76q82 0 127 39t45 100q0 142 -219 142h-84v116h80q196 0 196 135q0 119 -143 119q-96 0 -186 -69v139q88 51 213 51q111 0 179 -59.5t68 -155.5q0 -153 -145 -205v-4q176 -44 176 -203z" />
    <glyph glyph-name="onehalf" unicode="&#xbd;" horiz-adv-x="1710" 
d="M629 584h-504v112h184v594l-192 -55v125l323 96v-760h189v-112zM489 0h-147l876 1434h146zM1643 1h-553v114l239 236q89 85 124.5 141t35.5 125q0 59 -39 95t-98 36q-115 0 -217 -102v149q82 76 235 76q117 0 186.5 -65.5t69.5 -174.5q0 -156 -204 -348l-164 -155v-4h385
v-123z" />
    <glyph glyph-name="onequarter" unicode="&#xbc;" horiz-adv-x="1710" 
d="M629 584h-504v112h184v594l-192 -55v125l323 96v-760h189v-112zM489 0h-147l876 1434h146zM1571 205h-111v-204h-131v204h-393v93l368 553h156v-537h111v-109zM1333 726h-4q-11 -30 -39 -74l-217 -338h256v324z" />
    <glyph glyph-name="threequarters" unicode="&#xbe;" horiz-adv-x="1710" 
d="M600 827q0 -118 -86 -191t-225 -73q-136 0 -213 53v142q101 -76 217 -76q82 0 127 39t45 100q0 142 -219 142h-84v116h80q196 0 196 135q0 119 -143 119q-96 0 -186 -69v139q88 51 213 51q111 0 179 -59.5t68 -155.5q0 -153 -145 -205v-4q176 -44 176 -203zM489 0h-147
l876 1434h146zM1571 205h-111v-204h-131v204h-393v93l368 553h156v-537h111v-109zM1333 726h-4q-11 -30 -39 -74l-217 -338h256v324z" />
    <glyph glyph-name="uni00AD" unicode="&#xad;" horiz-adv-x="819" 
d="M690 506h-547v129h547v-129z" />
    <glyph glyph-name="macron" unicode="&#xaf;" horiz-adv-x="850" 
d="M850 1612h-850v119h850v-119z" />
    <glyph glyph-name="periodcentered" unicode="&#xb7;" horiz-adv-x="444" 
d="M336 623q0 -46 -33.5 -79.5t-79.5 -33.5t-78 33.5t-32 79.5q0 48 33 80t77 32q45 0 79 -32.5t34 -79.5z" />
    <glyph glyph-name="fraction" unicode="&#x2044;" horiz-adv-x="354" 
d="M690 1434l-858 -1434h-143l858 1434h143z" />
    <glyph glyph-name="currency" unicode="&#xa4;" horiz-adv-x="1139" 
d="M1038 354l-92 -96l-137 137q-104 -76 -240 -76t-239 76l-137 -137l-93 96l138 133q-76 113 -76 238q0 129 76 238l-138 135l93 96l137 -137q109 78 239 78t238 -78l139 137l92 -96l-137 -135q78 -113 78 -238q0 -123 -78 -238zM846 727q0 110 -82.5 192t-194.5 82
q-115 0 -194.5 -81t-79.5 -193q0 -113 80.5 -193.5t193.5 -80.5q114 0 195.5 81.5t81.5 192.5z" />
    <glyph glyph-name="uni2074" unicode="&#x2074;" horiz-adv-x="692" 
d="M666 788h-111v-204h-131v204h-393v93l368 553h156v-537h111v-109zM428 1309h-4q-11 -30 -39 -74l-217 -338h256v324z" />
    <glyph glyph-name="Amacron" unicode="&#x100;" horiz-adv-x="1321" 
d="M1298 0h-186l-151 401h-609l-143 -401h-186l548 1434h174zM905 553l-225 610q-8 22 -23 97h-4q-9 -63 -22 -97l-223 -610h497zM912 1567h-508v108h508v-108z" />
    <glyph glyph-name="amacron" unicode="&#x101;" horiz-adv-x="1034" 
d="M891 0h-164v160h-4q-107 -185 -315 -185q-148 0 -237 80.5t-89 216.5q0 286 338 334l307 43q0 260 -211 260q-185 0 -334 -125v168q45 34 154 65.5t194 31.5q361 0 361 -383v-666zM727 518l-248 -35q-127 -18 -178 -60.5t-51 -137.5q0 -77 55 -123.5t141 -46.5
q122 0 201.5 86t79.5 215v102zM792 1219h-508v108h508v-108z" />
    <glyph glyph-name="Abreve" unicode="&#x102;" horiz-adv-x="1321" 
d="M1298 0h-186l-151 401h-609l-143 -401h-186l548 1434h174zM905 553l-225 610q-8 22 -23 97h-4q-9 -63 -22 -97l-223 -610h497zM932 1819q-10 -110 -87.5 -180.5t-191.5 -70.5q-119 0 -192.5 69t-77.5 182h100q12 -155 172 -155q68 0 116 42t58 113h103z" />
    <glyph glyph-name="abreve" unicode="&#x103;" horiz-adv-x="1034" 
d="M891 0h-164v160h-4q-107 -185 -315 -185q-148 0 -237 80.5t-89 216.5q0 286 338 334l307 43q0 260 -211 260q-185 0 -334 -125v168q45 34 154 65.5t194 31.5q361 0 361 -383v-666zM727 518l-248 -35q-127 -18 -178 -60.5t-51 -137.5q0 -77 55 -123.5t141 -46.5
q122 0 201.5 86t79.5 215v102zM797 1470q-10 -110 -87.5 -180.5t-191.5 -70.5q-119 0 -192.5 69t-77.5 182h100q12 -155 172 -155q68 0 116 42t58 113h103z" />
    <glyph glyph-name="Aogonek" unicode="&#x104;" horiz-adv-x="1321" 
d="M1298 0h-186l-151 401h-609l-143 -401h-186l548 1434h174zM905 553l-225 610q-8 22 -23 97h-4q-9 -63 -22 -97l-223 -610h497zM1233 0q-150 -141 -150 -223q0 -70 68 -70q29 0 55 12v-106q-29 -12 -82 -12q-76 0 -122 39.5t-46 109.5q0 122 158 250h119z" />
    <glyph glyph-name="aogonek" unicode="&#x105;" horiz-adv-x="1034" 
d="M891 0h-164v160h-4q-107 -185 -315 -185q-148 0 -237 80.5t-89 216.5q0 286 338 334l307 43q0 260 -211 260q-185 0 -334 -125v168q45 34 154 65.5t194 31.5q361 0 361 -383v-666zM727 518l-248 -35q-127 -18 -178 -60.5t-51 -137.5q0 -77 55 -123.5t141 -46.5
q122 0 201.5 86t79.5 215v102zM847 0q-150 -141 -150 -223q0 -70 68 -70q29 0 55 12v-106q-29 -12 -82 -12q-76 0 -122 39.5t-46 109.5q0 122 158 250h119z" />
    <glyph glyph-name="Cacute" unicode="&#x106;" horiz-adv-x="1268" 
d="M1163 59q-158 -84 -395 -84q-199 0 -353 89t-237.5 252.5t-83.5 373.5q0 219 93 395.5t261 274.5t377 98q203 0 338 -59v-178q-154 86 -340 86q-162 0 -288 -75t-195.5 -214t-69.5 -318q0 -170 65 -301t184 -201.5t272 -70.5q216 0 372 96v-164zM993 1894l-262 -327h-127
l223 327h166z" />
    <glyph glyph-name="cacute" unicode="&#x107;" horiz-adv-x="938" 
d="M856 47q-119 -72 -281 -72q-140 0 -251.5 64.5t-173.5 182.5t-62 265q0 254 145.5 408t387.5 154q134 0 237 -52v-168q-115 80 -244 80q-159 0 -258.5 -113.5t-99.5 -293.5q0 -179 94.5 -283t253.5 -104q134 0 252 88v-156zM807 1546l-262 -327h-127l223 327h166z" />
    <glyph glyph-name="Ccircumflex" unicode="&#x108;" horiz-adv-x="1268" 
d="M1163 59q-158 -84 -395 -84q-199 0 -353 89t-237.5 252.5t-83.5 373.5q0 219 93 395.5t261 274.5t377 98q203 0 338 -59v-178q-154 86 -340 86q-162 0 -288 -75t-195.5 -214t-69.5 -318q0 -170 65 -301t184 -201.5t272 -70.5q216 0 372 96v-164zM1047 1568h-120l-164 229
l-166 -229h-113l215 331h133z" />
    <glyph glyph-name="ccircumflex" unicode="&#x109;" horiz-adv-x="938" 
d="M856 47q-119 -72 -281 -72q-140 0 -251.5 64.5t-173.5 182.5t-62 265q0 254 145.5 408t387.5 154q134 0 237 -52v-168q-115 80 -244 80q-159 0 -258.5 -113.5t-99.5 -293.5q0 -179 94.5 -283t253.5 -104q134 0 252 88v-156zM831 1219h-120l-164 229l-166 -229h-113
l215 331h133z" />
    <glyph glyph-name="Cdotaccent" unicode="&#x10a;" horiz-adv-x="1268" 
d="M1163 59q-158 -84 -395 -84q-199 0 -353 89t-237.5 252.5t-83.5 373.5q0 219 93 395.5t261 274.5t377 98q203 0 338 -59v-178q-154 86 -340 86q-162 0 -288 -75t-195.5 -214t-69.5 -318q0 -170 65 -301t184 -201.5t272 -70.5q216 0 372 96v-164zM865 1665q0 -42 -28 -70
t-70 -28q-40 0 -69 28.5t-29 69.5t29.5 68.5t68.5 27.5q42 0 70 -27t28 -69z" />
    <glyph glyph-name="cdotaccent" unicode="&#x10b;" horiz-adv-x="938" 
d="M856 47q-119 -72 -281 -72q-140 0 -251.5 64.5t-173.5 182.5t-62 265q0 254 145.5 408t387.5 154q134 0 237 -52v-168q-115 80 -244 80q-159 0 -258.5 -113.5t-99.5 -293.5q0 -179 94.5 -283t253.5 -104q134 0 252 88v-156zM683 1317q0 -42 -28 -70t-70 -28
q-40 0 -69 28.5t-29 69.5t29.5 68.5t68.5 27.5q42 0 70 -27t28 -69z" />
    <glyph glyph-name="Ccaron" unicode="&#x10c;" horiz-adv-x="1268" 
d="M1163 59q-158 -84 -395 -84q-199 0 -353 89t-237.5 252.5t-83.5 373.5q0 219 93 395.5t261 274.5t377 98q203 0 338 -59v-178q-154 86 -340 86q-162 0 -288 -75t-195.5 -214t-69.5 -318q0 -170 65 -301t184 -201.5t272 -70.5q216 0 372 96v-164zM1054 1896l-213 -329
h-134l-215 329h115l164 -229l164 229h119z" />
    <glyph glyph-name="ccaron" unicode="&#x10d;" horiz-adv-x="938" 
d="M856 47q-119 -72 -281 -72q-140 0 -251.5 64.5t-173.5 182.5t-62 265q0 254 145.5 408t387.5 154q134 0 237 -52v-168q-115 80 -244 80q-159 0 -258.5 -113.5t-99.5 -293.5q0 -179 94.5 -283t253.5 -104q134 0 252 88v-156zM850 1548l-213 -329h-134l-215 329h115
l164 -229l164 229h119z" />
    <glyph glyph-name="Dcaron" unicode="&#x10e;" horiz-adv-x="1436" 
d="M1341 735q0 -219 -96 -386.5t-273 -258t-405 -90.5h-379v1434h396q757 0 757 -699zM1165 731q0 551 -585 551h-224v-1130h213q284 0 440 151.5t156 427.5zM962 1896l-213 -329h-134l-215 329h115l164 -229l164 229h119z" />
    <glyph glyph-name="dcaron" unicode="&#x10f;" horiz-adv-x="1348" 
d="M1032 0h-164v174h-4q-114 -199 -352 -199q-194 0 -309 139.5t-115 372.5q0 254 127.5 408t341.5 154q210 0 307 -166h4v633h164v-1516zM868 463v151q0 127 -84.5 211t-205.5 84q-148 0 -235 -109.5t-87 -303.5q0 -176 82 -278.5t221 -102.5q135 0 222 98t87 250z
M1450 1516l-166 -260h-123l117 260h172z" />
    <glyph glyph-name="Dcroat" unicode="&#x110;" horiz-adv-x="1436" 
d="M1341 735q0 -218 -95 -386t-271.5 -258.5t-407.5 -90.5h-379v641h-159v156h159v637h396q757 0 757 -699zM1165 731q0 551 -585 551h-224v-485h336v-156h-336v-489h213q284 0 440 151.5t156 427.5z" />
    <glyph glyph-name="dcroat" unicode="&#x111;" horiz-adv-x="1198" 
d="M1032 0h-164v174h-4q-114 -199 -352 -199q-194 0 -309 139.5t-115 372.5q0 254 127.5 408t341.5 154q208 0 307 -166h4v319h-331v133h331v181h164v-181h135v-133h-135v-1202zM868 463v151q0 126 -83.5 210.5t-206.5 84.5q-148 0 -235 -109.5t-87 -303.5
q0 -176 81.5 -278.5t221.5 -102.5q135 0 222 98t87 250z" />
    <glyph glyph-name="Emacron" unicode="&#x112;" horiz-adv-x="1036" 
d="M948 0h-760v1434h727v-152h-559v-477h518v-152h-518v-501h592v-152zM825 1566h-508v108h508v-108z" />
    <glyph glyph-name="emacron" unicode="&#x113;" horiz-adv-x="1055" 
d="M981 471h-723q4 -173 91.5 -264.5t242.5 -91.5q174 0 317 112v-153q-134 -99 -356 -99q-219 0 -342 141.5t-123 391.5q0 152 61.5 277.5t169.5 194.5t240 69q199 0 310.5 -129.5t111.5 -362.5v-86zM813 610q-2 142 -68.5 220.5t-187.5 78.5q-114 0 -195 -82t-102 -217
h553zM812 1219h-508v108h508v-108z" />
    <glyph glyph-name="Ebreve" unicode="&#x114;" horiz-adv-x="1036" 
d="M948 0h-760v1434h727v-152h-559v-477h518v-152h-518v-501h592v-152zM829 1819q-10 -110 -87.5 -180.5t-191.5 -70.5q-119 0 -192.5 69t-77.5 182h100q12 -155 172 -155q68 0 116 42t58 113h103z" />
    <glyph glyph-name="ebreve" unicode="&#x115;" horiz-adv-x="1055" 
d="M981 471h-723q4 -173 91.5 -264.5t242.5 -91.5q174 0 317 112v-153q-134 -99 -356 -99q-219 0 -342 141.5t-123 391.5q0 152 61.5 277.5t169.5 194.5t240 69q199 0 310.5 -129.5t111.5 -362.5v-86zM813 610q-2 142 -68.5 220.5t-187.5 78.5q-114 0 -195 -82t-102 -217
h553zM823 1470q-10 -110 -87.5 -180.5t-191.5 -70.5q-119 0 -192.5 69t-77.5 182h100q12 -155 172 -155q68 0 116 42t58 113h103z" />
    <glyph glyph-name="Edotaccent" unicode="&#x116;" horiz-adv-x="1036" 
d="M948 0h-760v1434h727v-152h-559v-477h518v-152h-518v-501h592v-152zM647 1665q0 -42 -28 -70t-70 -28q-40 0 -69 28.5t-29 69.5t29.5 68.5t68.5 27.5q42 0 70 -27t28 -69z" />
    <glyph glyph-name="edotaccent" unicode="&#x117;" horiz-adv-x="1055" 
d="M981 471h-723q4 -173 91.5 -264.5t242.5 -91.5q174 0 317 112v-153q-134 -99 -356 -99q-219 0 -342 141.5t-123 391.5q0 152 61.5 277.5t169.5 194.5t240 69q199 0 310.5 -129.5t111.5 -362.5v-86zM813 610q-2 142 -68.5 220.5t-187.5 78.5q-114 0 -195 -82t-102 -217
h553zM664 1317q0 -42 -28 -70t-70 -28q-40 0 -69 28.5t-29 69.5t29.5 68.5t68.5 27.5q42 0 70 -27t28 -69z" />
    <glyph glyph-name="Eogonek" unicode="&#x118;" horiz-adv-x="1036" 
d="M948 0h-760v1434h727v-152h-559v-477h518v-152h-518v-501h592v-152zM883 0q-150 -141 -150 -223q0 -70 68 -70q29 0 55 12v-106q-29 -12 -82 -12q-76 0 -122 39.5t-46 109.5q0 122 158 250h119z" />
    <glyph glyph-name="eogonek" unicode="&#x119;" horiz-adv-x="1055" 
d="M981 471h-723q4 -173 91.5 -264.5t242.5 -91.5q174 0 317 112v-153q-134 -99 -356 -99q-219 0 -342 141.5t-123 391.5q0 152 61.5 277.5t169.5 194.5t240 69q199 0 310.5 -129.5t111.5 -362.5v-86zM813 610q-2 142 -68.5 220.5t-187.5 78.5q-114 0 -195 -82t-102 -217
h553zM699 0q-150 -141 -150 -223q0 -70 68 -70q29 0 55 12v-106q-29 -12 -82 -12q-76 0 -122 39.5t-46 109.5q0 122 158 250h119z" />
    <glyph glyph-name="Ecaron" unicode="&#x11a;" horiz-adv-x="1036" 
d="M948 0h-760v1434h727v-152h-559v-477h518v-152h-518v-501h592v-152zM841 1896l-213 -329h-134l-215 329h115l164 -229l164 229h119z" />
    <glyph glyph-name="ecaron" unicode="&#x11b;" horiz-adv-x="1055" 
d="M981 471h-723q4 -173 91.5 -264.5t242.5 -91.5q174 0 317 112v-153q-134 -99 -356 -99q-219 0 -342 141.5t-123 391.5q0 152 61.5 277.5t169.5 194.5t240 69q199 0 310.5 -129.5t111.5 -362.5v-86zM813 610q-2 142 -68.5 220.5t-187.5 78.5q-114 0 -195 -82t-102 -217
h553zM835 1548l-213 -329h-134l-215 329h115l164 -229l164 229h119z" />
    <glyph glyph-name="Gcircumflex" unicode="&#x11c;" horiz-adv-x="1405" 
d="M1260 98q-216 -123 -480 -123q-201 0 -358.5 91t-242.5 257t-85 375q0 330 209 545t535 215q234 0 393 -76v-186q-174 111 -412 111q-157 0 -282.5 -75.5t-196 -213.5t-70.5 -307q0 -271 142.5 -427.5t388.5 -156.5q167 0 291 68v401h-314v152h482v-650zM1061 1569h-120
l-164 229l-166 -229h-113l215 331h133z" />
    <glyph glyph-name="gcircumflex" unicode="&#x11d;" horiz-adv-x="1198" 
d="M1032 82q0 -563 -540 -563q-188 0 -332 71v164q172 -96 329 -96q379 0 379 401v113h-4q-117 -197 -352 -197q-124 0 -221 62t-150 177t-53 265q0 262 127.5 416t341.5 154q207 0 307 -166h4v141h164v-942zM868 463v151q0 124 -85 209.5t-203 85.5q-153 0 -238.5 -111
t-85.5 -309q0 -168 82 -271t219 -103t224 97.5t87 250.5zM856 1219h-120l-164 229l-166 -229h-113l215 331h133z" />
    <glyph glyph-name="Gbreve" unicode="&#x11e;" horiz-adv-x="1405" 
d="M1260 98q-216 -123 -480 -123q-201 0 -358.5 91t-242.5 257t-85 375q0 330 209 545t535 215q234 0 393 -76v-186q-174 111 -412 111q-157 0 -282.5 -75.5t-196 -213.5t-70.5 -307q0 -271 142.5 -427.5t388.5 -156.5q167 0 291 68v401h-314v152h482v-650zM1067 1817
q-10 -110 -87.5 -180.5t-191.5 -70.5q-119 0 -192.5 69t-77.5 182h100q12 -155 172 -155q68 0 116 42t58 113h103z" />
    <glyph glyph-name="gbreve" unicode="&#x11f;" horiz-adv-x="1198" 
d="M1032 82q0 -563 -540 -563q-188 0 -332 71v164q172 -96 329 -96q379 0 379 401v113h-4q-117 -197 -352 -197q-124 0 -221 62t-150 177t-53 265q0 262 127.5 416t341.5 154q207 0 307 -166h4v141h164v-942zM868 463v151q0 124 -85 209.5t-203 85.5q-153 0 -238.5 -111
t-85.5 -309q0 -168 82 -271t219 -103t224 97.5t87 250.5zM859 1470q-10 -110 -87.5 -180.5t-191.5 -70.5q-119 0 -192.5 69t-77.5 182h100q12 -155 172 -155q68 0 116 42t58 113h103z" />
    <glyph glyph-name="Gdotaccent" unicode="&#x120;" horiz-adv-x="1405" 
d="M1260 98q-216 -123 -480 -123q-201 0 -358.5 91t-242.5 257t-85 375q0 330 209 545t535 215q234 0 393 -76v-186q-174 111 -412 111q-157 0 -282.5 -75.5t-196 -213.5t-70.5 -307q0 -271 142.5 -427.5t388.5 -156.5q167 0 291 68v401h-314v152h482v-650zM895 1665
q0 -42 -28 -70t-70 -28q-40 0 -69 28.5t-29 69.5t29.5 68.5t68.5 27.5q42 0 70 -27t28 -69z" />
    <glyph glyph-name="gdotaccent" unicode="&#x121;" horiz-adv-x="1198" 
d="M1032 82q0 -563 -540 -563q-188 0 -332 71v164q172 -96 329 -96q379 0 379 401v113h-4q-117 -197 -352 -197q-124 0 -221 62t-150 177t-53 265q0 262 127.5 416t341.5 154q207 0 307 -166h4v141h164v-942zM868 463v151q0 124 -85 209.5t-203 85.5q-153 0 -238.5 -111
t-85.5 -309q0 -168 82 -271t219 -103t224 97.5t87 250.5zM664 1317q0 -42 -28 -70t-70 -28q-40 0 -69 28.5t-29 69.5t29.5 68.5t68.5 27.5q42 0 70 -27t28 -69z" />
    <glyph glyph-name="uni0122" unicode="&#x122;" horiz-adv-x="1405" 
d="M1260 98q-216 -123 -480 -123q-201 0 -358.5 91t-242.5 257t-85 375q0 330 209 545t535 215q234 0 393 -76v-186q-174 111 -412 111q-157 0 -282.5 -75.5t-196 -213.5t-70.5 -307q0 -271 142.5 -427.5t388.5 -156.5q167 0 291 68v401h-314v152h482v-650zM1001 -256
q0 -176 -274 -176l-66 2v90q42 -6 70 -6q141 0 141 90q0 78 -129 78l-41 -4v182h109v-104q87 0 138.5 -40t51.5 -112z" />
    <glyph glyph-name="uni0123" unicode="&#x123;" horiz-adv-x="1198" 
d="M1032 82q0 -563 -540 -563q-188 0 -332 71v164q172 -96 329 -96q379 0 379 401v113h-4q-117 -197 -352 -197q-124 0 -221 62t-150 177t-53 265q0 262 127.5 416t341.5 154q207 0 307 -166h4v141h164v-942zM868 463v151q0 124 -85 209.5t-203 85.5q-153 0 -238.5 -111
t-85.5 -309q0 -168 82 -271t219 -103t224 97.5t87 250.5zM462.943 1218.85l165.979 259.968h122.985l-116.985 -259.968h-171.979z" />
    <glyph glyph-name="Hcircumflex" unicode="&#x124;" horiz-adv-x="1454" 
d="M1266 0h-168v653h-742v-653h-168v1434h168v-629h742v629h168v-1434zM1006 1567h-120l-164 229l-166 -229h-113l215 331h133z" />
    <glyph glyph-name="hcircumflex" unicode="&#x125;" horiz-adv-x="1159" 
d="M1016 0h-164v590q0 319 -238 319q-123 0 -203.5 -93.5t-80.5 -235.5v-580h-164v1516h164v-662h4q118 195 336 195q346 0 346 -418v-631zM911 1648h-120l-164 229l-166 -229h-113l215 331h133z" />
    <glyph glyph-name="Hbar" unicode="&#x126;" horiz-adv-x="1454" 
d="M356 1028v-223h742v223h-742zM1266 0h-168v653h-742v-653h-168v1028h-159v152h159v254h168v-254h742v254h168v-254h159v-152h-159v-1028z" />
    <glyph glyph-name="hbar" unicode="&#x127;" horiz-adv-x="1159" 
d="M1016 0h-164v590q0 319 -238 319q-122 0 -203 -94.5t-81 -234.5v-580h-164v1202h-135v133h135v181h164v-181h332v-133h-332v-348h4q118 195 336 195q168 0 257 -107.5t89 -310.5v-631z" />
    <glyph glyph-name="Itilde" unicode="&#x128;" horiz-adv-x="545" 
d="M356 0h-168v1434h168v-1434zM595 1803q0 -107 -49 -172t-129 -65q-71 0 -162 51q-77 43 -119 43q-88 0 -88 -113h-94q0 108 48.5 172t133.5 64q67 0 150 -52q72 -45 127 -45q84 0 84 117h98z" />
    <glyph glyph-name="itilde" unicode="&#x129;" horiz-adv-x="496" 
d="M330 0h-164v1024h164v-1024zM571 1458q0 -107 -49 -172t-129 -65q-71 0 -162 51q-77 43 -119 43q-88 0 -88 -113h-94q0 108 48.5 172t133.5 64q67 0 150 -52q72 -45 127 -45q84 0 84 117h98z" />
    <glyph glyph-name="Imacron" unicode="&#x12a;" horiz-adv-x="545" 
d="M356 0h-168v1434h168v-1434zM529 1566h-508v108h508v-108z" />
    <glyph glyph-name="imacron" unicode="&#x12b;" horiz-adv-x="496" 
d="M330 0h-164v1024h164v-1024zM506 1219h-508v108h508v-108z" />
    <glyph glyph-name="Ibreve" unicode="&#x12c;" horiz-adv-x="545" 
d="M356 0h-168v1434h168v-1434zM549 1818q-10 -110 -87.5 -180.5t-191.5 -70.5q-119 0 -192.5 69t-77.5 182h100q12 -155 172 -155q68 0 116 42t58 113h103z" />
    <glyph glyph-name="ibreve" unicode="&#x12d;" horiz-adv-x="496" 
d="M330 0h-164v1024h164v-1024zM526 1470q-10 -110 -87.5 -180.5t-191.5 -70.5q-119 0 -192.5 69t-77.5 182h100q12 -155 172 -155q68 0 116 42t58 113h103z" />
    <glyph glyph-name="Iogonek" unicode="&#x12e;" horiz-adv-x="545" 
d="M356 0h-168v1434h168v-1434zM308 0q-150 -141 -150 -223q0 -70 68 -70q29 0 55 12v-106q-29 -12 -82 -12q-76 0 -122 39.5t-46 109.5q0 122 158 250h119z" />
    <glyph glyph-name="iogonek" unicode="&#x12f;" horiz-adv-x="496" 
d="M358 1391q0 -46 -32 -76.5t-76 -30.5q-45 0 -76 29.5t-31 77.5q0 43 30.5 74.5t76.5 31.5t77 -31t31 -75zM330 0h-164v1024h164v-1024zM286 0q-150 -141 -150 -223q0 -70 68 -70q29 0 55 12v-106q-29 -12 -82 -12q-76 0 -122 39.5t-46 109.5q0 122 158 250h119z" />
    <glyph glyph-name="Idotaccent" unicode="&#x130;" horiz-adv-x="545" 
d="M356 0h-168v1434h168v-1434zM369 1665q0 -42 -28 -70t-70 -28q-40 0 -69 28.5t-29 69.5t29.5 68.5t68.5 27.5q42 0 70 -27t28 -69z" />
    <glyph glyph-name="IJ" unicode="&#x132;" horiz-adv-x="1276" 
d="M356 0h-168v1434h168v-1434zM1100 514q0 -249 -106 -394t-291 -145q-84 0 -138 25v166q52 -39 140 -39q227 0 227 385v922h168v-920z" />
    <glyph glyph-name="ij" unicode="&#x133;" horiz-adv-x="991" 
d="M358 1391q0 -46 -32 -76.5t-76 -30.5q-45 0 -76 29.5t-31 77.5q0 43 30.5 74.5t76.5 31.5t77 -31t31 -75zM330 0h-164v1024h164v-1024zM853 1391q0 -46 -32 -76.5t-76 -30.5q-45 0 -76 29.5t-31 77.5q0 43 30.5 74.5t76.5 31.5t77 -31t31 -75zM825 43q0 -252 -101 -388
t-290 -136q-72 0 -138 30v154q75 -45 142 -45q223 0 223 358v1008h164v-981z" />
    <glyph glyph-name="Jcircumflex" unicode="&#x134;" horiz-adv-x="731" 
d="M555 514q0 -249 -106 -394t-291 -145q-84 0 -138 25v166q52 -39 140 -39q227 0 227 385v922h168v-920zM753 1567h-120l-164 229l-166 -229h-113l215 331h133z" />
    <glyph glyph-name="jcircumflex" unicode="&#x135;" horiz-adv-x="496" 
d="M330 43q0 -125 -25.5 -222.5t-75 -164.5t-122.5 -102t-168 -35q-72 0 -138 30v154q75 -45 142 -45q223 0 223 358v1008h164v-981zM526 1219h-120l-164 229l-166 -229h-113l215 331h133z" />
    <glyph glyph-name="uni0136" unicode="&#x136;" horiz-adv-x="1188" 
d="M1186 0h-234l-555 655q-22 26 -37 52h-4v-707h-168v1434h168v-674h4l37 49l537 625h209l-615 -689zM742 -119l-166 -260h-123l117 260h172z" />
    <glyph glyph-name="uni0137" unicode="&#x137;" horiz-adv-x="1018" 
d="M1016 0h-230l-452 492h-4v-492h-164v1516h164v-961h4l430 469h215l-475 -494zM643 -119l-166 -260h-123l117 260h172z" />
    <glyph glyph-name="kgreenlandic" unicode="&#x138;" horiz-adv-x="1018" 
d="M1016 0h-230l-452 492h-4v-492h-164v1024h164v-469h4l430 469h215l-475 -494z" />
    <glyph glyph-name="Lacute" unicode="&#x139;" horiz-adv-x="965" 
d="M932 0h-744v1434h168v-1282h576v-152zM856 1894l-262 -327h-127l223 327h166z" />
    <glyph glyph-name="lacute" unicode="&#x13a;" horiz-adv-x="496" 
d="M330 0h-164v1516h164v-1516zM536 1979l-262 -327h-127l223 327h166z" />
    <glyph glyph-name="uni013B" unicode="&#x13b;" horiz-adv-x="965" 
d="M932 0h-744v1434h168v-1282h576v-152zM766 -256q0 -176 -274 -176l-66 2v90q42 -6 70 -6q141 0 141 90q0 78 -129 78l-41 -4v182h109v-104q87 0 138.5 -40t51.5 -112z" />
    <glyph glyph-name="uni013C" unicode="&#x13c;" horiz-adv-x="496" 
d="M330 0h-164v1516h164v-1516zM477 -256q0 -176 -274 -176l-66 2v90q42 -6 70 -6q141 0 141 90q0 78 -129 78l-41 -4v182h109v-104q87 0 138.5 -40t51.5 -112z" />
    <glyph glyph-name="Lcaron" unicode="&#x13d;" horiz-adv-x="965" 
d="M932 0h-744v1434h168v-1282h576v-152zM905 1434l-166 -260h-123l117 260h172z" />
    <glyph glyph-name="lcaron" unicode="&#x13e;" horiz-adv-x="604" 
d="M330 0h-164v1516h164v-1516zM707 1516l-166 -260h-123l117 260h172z" />
    <glyph glyph-name="Ldot" unicode="&#x13f;" horiz-adv-x="965" 
d="M932 0h-744v1434h168v-1282h576v-152zM834 764q0 -42 -28 -70t-70 -28q-40 0 -69 28.5t-29 69.5t29.5 68.5t68.5 27.5q42 0 70 -27t28 -69z" />
    <glyph glyph-name="ldot" unicode="&#x140;" horiz-adv-x="645" 
d="M330 0h-164v1516h164v-1516zM647 764q0 -42 -28 -70t-70 -28q-40 0 -69 28.5t-29 69.5t29.5 68.5t68.5 27.5q42 0 70 -27t28 -69z" />
    <glyph glyph-name="Nacute" unicode="&#x143;" horiz-adv-x="1532" 
d="M1343 0h-204l-740 1143q-26 40 -45 90h-6q8 -46 8 -197v-1036h-168v1434h218l718 -1125l58 -96h4q-10 62 -10 211v1010h167v-1434zM1006 1894l-262 -327h-127l223 327h166z" />
    <glyph glyph-name="nacute" unicode="&#x144;" horiz-adv-x="1159" 
d="M1016 0h-164v584q0 325 -238 325q-121 0 -202.5 -91.5t-81.5 -233.5v-584h-164v1024h164v-170h4q115 195 336 195q169 0 257.5 -110t88.5 -312v-627zM836 1546l-262 -327h-127l223 327h166z" />
    <glyph glyph-name="uni0145" unicode="&#x145;" horiz-adv-x="1532" 
d="M1343 0h-204l-740 1143q-26 40 -45 90h-6q8 -46 8 -197v-1036h-168v1434h218l718 -1125l58 -96h4q-10 62 -10 211v1010h167v-1434zM869 -119l-166 -260h-123l117 260h172z" />
    <glyph glyph-name="uni0146" unicode="&#x146;" horiz-adv-x="1159" 
d="M1016 0h-164v584q0 325 -238 325q-121 0 -202.5 -91.5t-81.5 -233.5v-584h-164v1024h164v-170h4q115 195 336 195q169 0 257.5 -110t88.5 -312v-627zM692 -119l-166 -260h-123l117 260h172z" />
    <glyph glyph-name="Ncaron" unicode="&#x147;" horiz-adv-x="1532" 
d="M1343 0h-204l-740 1143q-26 40 -45 90h-6q8 -46 8 -197v-1036h-168v1434h218l718 -1125l58 -96h4q-10 62 -10 211v1010h167v-1434zM1046 1896l-213 -329h-134l-215 329h115l164 -229l164 229h119z" />
    <glyph glyph-name="ncaron" unicode="&#x148;" horiz-adv-x="1159" 
d="M1016 0h-164v584q0 325 -238 325q-121 0 -202.5 -91.5t-81.5 -233.5v-584h-164v1024h164v-170h4q115 195 336 195q169 0 257.5 -110t88.5 -312v-627zM882 1548l-213 -329h-134l-215 329h115l164 -229l164 229h119z" />
    <glyph glyph-name="napostrophe" unicode="&#x149;" horiz-adv-x="1241" 
d="M1098 0h-164v584q0 325 -238 325q-121 0 -202.5 -91.5t-81.5 -233.5v-584h-164v1024h164v-170h4q115 195 336 195q169 0 257.5 -110t88.5 -312v-627zM-40.9951 1011.88l108.987 445.945h149.981l-139.983 -445.945h-118.985z" />
    <glyph glyph-name="Eng" unicode="&#x14a;" horiz-adv-x="1532" 
d="M354 1233h-6q8 -52 8 -197v-1036h-168v1434h218l718 -1065l58 -105h4q-10 72 -10 219v951h167v-1371q0 -485 -364 -485q-76 0 -137 31v166q78 -45 141 -45q188 0 188 270l-772 1143q-24 35 -45 90z" />
    <glyph glyph-name="eng" unicode="&#x14b;" horiz-adv-x="1159" 
d="M1016 27q0 -449 -359 -449q-76 0 -137 31v166q78 -45 142 -45q190 0 190 270v584q0 325 -238 325q-121 0 -202.5 -91.5t-81.5 -233.5v-584h-164v1024h164v-170h4q117 195 336 195q346 0 346 -422v-600z" />
    <glyph glyph-name="Omacron" unicode="&#x14c;" horiz-adv-x="1544" 
d="M1450 735q0 -229 -83.5 -401.5t-240 -265.5t-360.5 -93q-197 0 -350.5 90.5t-237.5 257t-84 377.5q0 227 85 400t244 265.5t368 92.5q191 0 342.5 -91t234 -256t82.5 -376zM1274 713q0 280 -131 437t-365 157q-147 0 -263.5 -74.5t-180.5 -211.5t-64 -306
q0 -172 61.5 -306.5t175.5 -208t259 -73.5q238 0 373 156t135 430zM1033 1567h-508v108h508v-108z" />
    <glyph glyph-name="omacron" unicode="&#x14d;" horiz-adv-x="1184" 
d="M1096 516q0 -244 -138.5 -392.5t-371.5 -148.5q-227 0 -362.5 144.5t-135.5 380.5q0 254 139 401.5t383 147.5q228 0 357 -142.5t129 -390.5zM928 510q0 193 -85.5 296t-244.5 103q-158 0 -250 -105.5t-92 -297.5q0 -184 92.5 -287.5t249.5 -103.5q160 0 245 102t85 293z
M856 1219h-508v108h508v-108z" />
    <glyph glyph-name="Obreve" unicode="&#x14e;" horiz-adv-x="1544" 
d="M1450 735q0 -229 -83.5 -401.5t-240 -265.5t-360.5 -93q-197 0 -350.5 90.5t-237.5 257t-84 377.5q0 227 85 400t244 265.5t368 92.5q191 0 342.5 -91t234 -256t82.5 -376zM1274 713q0 280 -131 437t-365 157q-147 0 -263.5 -74.5t-180.5 -211.5t-64 -306
q0 -172 61.5 -306.5t175.5 -208t259 -73.5q238 0 373 156t135 430zM1056 1819q-10 -110 -87.5 -180.5t-191.5 -70.5q-119 0 -192.5 69t-77.5 182h100q12 -155 172 -155q68 0 116 42t58 113h103z" />
    <glyph glyph-name="obreve" unicode="&#x14f;" horiz-adv-x="1184" 
d="M1096 516q0 -244 -138.5 -392.5t-371.5 -148.5q-227 0 -362.5 144.5t-135.5 380.5q0 254 139 401.5t383 147.5q228 0 357 -142.5t129 -390.5zM928 510q0 193 -85.5 296t-244.5 103q-158 0 -250 -105.5t-92 -297.5q0 -184 92.5 -287.5t249.5 -103.5q160 0 245 102t85 293z
M887 1470q-10 -110 -87.5 -180.5t-191.5 -70.5q-119 0 -192.5 69t-77.5 182h100q12 -155 172 -155q68 0 116 42t58 113h103z" />
    <glyph glyph-name="Ohungarumlaut" unicode="&#x150;" horiz-adv-x="1544" 
d="M1450 735q0 -229 -83.5 -401.5t-240 -265.5t-360.5 -93q-197 0 -350.5 90.5t-237.5 257t-84 377.5q0 227 85 400t244 265.5t368 92.5q191 0 342.5 -91t234 -256t82.5 -376zM1274 713q0 280 -131 437t-365 157q-147 0 -263.5 -74.5t-180.5 -211.5t-64 -306
q0 -172 61.5 -306.5t175.5 -208t259 -73.5q238 0 373 156t135 430zM1128 1885l-246 -317h-96l209 317h133zM880 1885l-239 -317h-97l207 317h129z" />
    <glyph glyph-name="ohungarumlaut" unicode="&#x151;" horiz-adv-x="1184" 
d="M1096 516q0 -244 -138.5 -392.5t-371.5 -148.5q-227 0 -362.5 144.5t-135.5 380.5q0 254 139 401.5t383 147.5q228 0 357 -142.5t129 -390.5zM928 510q0 193 -85.5 296t-244.5 103q-158 0 -250 -105.5t-92 -297.5q0 -184 92.5 -287.5t249.5 -103.5q160 0 245 102t85 293z
M958 1536l-246 -317h-96l209 317h133zM710 1536l-239 -317h-97l207 317h129z" />
    <glyph glyph-name="Racute" unicode="&#x154;" horiz-adv-x="1178" 
d="M1110 0h-201l-188 432q-78 178 -219 178h-146v-610h-168v1434h428q205 0 321 -102.5t116 -278.5q0 -153 -87.5 -259t-232.5 -139v-4q81 -29 148 -170zM877 1038q0 115 -74.5 179.5t-216.5 64.5h-230v-520h222q133 0 216 77t83 199zM852 1894l-262 -327h-127l223 327h166z
" />
    <glyph glyph-name="racute" unicode="&#x155;" horiz-adv-x="713" 
d="M700 858q-44 33 -125 33q-109 0 -177 -102.5t-68 -266.5v-522h-164v1024h164v-211h4q34 106 105 167.5t163 61.5q64 0 98 -14v-170zM688 1546l-262 -327h-127l223 327h166z" />
    <glyph glyph-name="uni0156" unicode="&#x156;" horiz-adv-x="1178" 
d="M1110 0h-201l-188 432q-78 178 -219 178h-146v-610h-168v1434h428q205 0 321 -102.5t116 -278.5q0 -153 -87.5 -259t-232.5 -139v-4q81 -29 148 -170zM877 1038q0 115 -74.5 179.5t-216.5 64.5h-230v-520h222q133 0 216 77t83 199zM712 -119l-166 -260h-123l117 260h172z
" />
    <glyph glyph-name="uni0157" unicode="&#x157;" horiz-adv-x="713" 
d="M700 858q-44 33 -125 33q-109 0 -177 -102.5t-68 -266.5v-522h-164v1024h164v-211h4q34 106 105 167.5t163 61.5q64 0 98 -14v-170zM533 -119l-166 -260h-123l117 260h172z" />
    <glyph glyph-name="Rcaron" unicode="&#x158;" horiz-adv-x="1178" 
d="M1110 0h-201l-188 432q-78 178 -219 178h-146v-610h-168v1434h428q205 0 321 -102.5t116 -278.5q0 -153 -87.5 -259t-232.5 -139v-4q81 -29 148 -170zM877 1038q0 115 -74.5 179.5t-216.5 64.5h-230v-520h222q133 0 216 77t83 199zM867 1896l-213 -329h-134l-215 329h115
l164 -229l164 229h119z" />
    <glyph glyph-name="rcaron" unicode="&#x159;" horiz-adv-x="713" 
d="M700 858q-44 33 -125 33q-109 0 -177 -102.5t-68 -266.5v-522h-164v1024h164v-211h4q34 106 105 167.5t163 61.5q64 0 98 -14v-170zM713 1548l-213 -329h-134l-215 329h115l164 -229l164 229h119z" />
    <glyph glyph-name="Sacute" unicode="&#x15a;" horiz-adv-x="1018" 
d="M920 362q0 -181 -128 -284t-348 -103q-80 0 -180.5 26.5t-142.5 55.5v199q61 -55 160.5 -92t185.5 -37q276 0 276 215q0 90 -59 154.5t-242 169.5q-177 100 -248 190t-71 219q0 170 127 276.5t328 106.5q193 0 282 -51v-188q-112 88 -291 88q-119 0 -194.5 -59.5
t-75.5 -157.5q0 -71 22.5 -114t76 -85t180.5 -113q190 -106 266 -200t76 -216zM795 1893l-262 -327h-127l223 327h166z" />
    <glyph glyph-name="sacute" unicode="&#x15b;" horiz-adv-x="799" 
d="M725 274q0 -133 -102.5 -216t-272.5 -83q-145 0 -254 62v176q121 -98 266 -98q195 0 195 143q0 58 -38 94.5t-173 98.5q-136 58 -192 124.5t-56 176.5q0 127 102 212t259 85q121 0 219 -48v-165q-100 73 -232 73q-81 0 -130.5 -40t-49.5 -103q0 -68 38 -104.5t157 -86.5
q146 -62 205 -130t59 -171zM678 1546l-262 -327h-127l223 327h166z" />
    <glyph glyph-name="Scircumflex" unicode="&#x15c;" horiz-adv-x="1018" 
d="M920 362q0 -181 -128 -284t-348 -103q-80 0 -180.5 26.5t-142.5 55.5v199q61 -55 160.5 -92t185.5 -37q276 0 276 215q0 90 -59 154.5t-242 169.5q-177 100 -248 190t-71 219q0 170 127 276.5t328 106.5q193 0 282 -51v-188q-112 88 -291 88q-119 0 -194.5 -59.5
t-75.5 -157.5q0 -71 22.5 -114t76 -85t180.5 -113q190 -106 266 -200t76 -216zM808 1567h-120l-164 229l-166 -229h-113l215 331h133z" />
    <glyph glyph-name="scircumflex" unicode="&#x15d;" horiz-adv-x="799" 
d="M725 274q0 -133 -102.5 -216t-272.5 -83q-145 0 -254 62v176q121 -98 266 -98q195 0 195 143q0 58 -38 94.5t-173 98.5q-136 58 -192 124.5t-56 176.5q0 127 102 212t259 85q121 0 219 -48v-165q-100 73 -232 73q-81 0 -130.5 -40t-49.5 -103q0 -68 38 -104.5t157 -86.5
q146 -62 205 -130t59 -171zM703 1219h-120l-164 229l-166 -229h-113l215 331h133z" />
    <glyph glyph-name="Scedilla" unicode="&#x15e;" horiz-adv-x="1018" 
d="M920 362q0 -181 -128 -284t-348 -103q-80 0 -180.5 26.5t-142.5 55.5v199q61 -55 160.5 -92t185.5 -37q276 0 276 215q0 90 -59 154.5t-242 169.5q-177 100 -248 190t-71 219q0 170 127 276.5t328 106.5q193 0 282 -51v-188q-112 88 -291 88q-119 0 -194.5 -59.5
t-75.5 -157.5q0 -71 22.5 -114t76 -85t180.5 -113q190 -106 266 -200t76 -216zM715 -256q0 -176 -274 -176l-66 2v90q42 -6 70 -6q141 0 141 90q0 78 -129 78l-41 -4v182h109v-104q87 0 138.5 -40t51.5 -112z" />
    <glyph glyph-name="scedilla" unicode="&#x15f;" horiz-adv-x="799" 
d="M725 274q0 -133 -102.5 -216t-272.5 -83q-145 0 -254 62v176q121 -98 266 -98q195 0 195 143q0 58 -38 94.5t-173 98.5q-136 58 -192 124.5t-56 176.5q0 127 102 212t259 85q121 0 219 -48v-165q-100 73 -232 73q-81 0 -130.5 -40t-49.5 -103q0 -68 38 -104.5t157 -86.5
q146 -62 205 -130t59 -171zM622 -256q0 -176 -274 -176l-66 2v90q42 -6 70 -6q141 0 141 90q0 78 -129 78l-41 -4v182h109v-104q87 0 138.5 -40t51.5 -112z" />
    <glyph glyph-name="uni0162" unicode="&#x162;" horiz-adv-x="1073" 
d="M1036 1282h-413v-1282h-168v1282h-414v152h995v-152zM764 -256q0 -176 -274 -176l-66 2v90q42 -6 70 -6q141 0 141 90q0 78 -129 78l-41 -4v182h109v-104q87 0 138.5 -40t51.5 -112z" />
    <glyph glyph-name="uni0163" unicode="&#x163;" horiz-adv-x="694" 
d="M641 10q-59 -33 -154 -33q-268 0 -268 302v606h-176v139h176v250l164 53v-303h258v-139h-258v-578q0 -103 35 -146.5t117 -43.5q61 0 106 33v-140zM666 -256q0 -176 -274 -176l-66 2v90q42 -6 70 -6q141 0 141 90q0 78 -129 78l-41 -4v182h109v-104q87 0 138.5 -40
t51.5 -112z" />
    <glyph glyph-name="Tcaron" unicode="&#x164;" horiz-adv-x="1073" 
d="M1036 1282h-413v-1282h-168v1282h-414v152h995v-152zM821 1896l-213 -329h-134l-215 329h115l164 -229l164 229h119z" />
    <glyph glyph-name="tcaron" unicode="&#x165;" horiz-adv-x="796" 
d="M641 10q-59 -33 -154 -33q-268 0 -268 302v606h-176v139h176v250l164 53v-303h258v-139h-258v-578q0 -103 35 -146.5t117 -43.5q61 0 106 33v-140zM899 1516l-166 -260h-123l117 260h172z" />
    <glyph glyph-name="Tbar" unicode="&#x166;" horiz-adv-x="1073" 
d="M1036 1282h-413v-485h245v-156h-245v-641h-168v641h-250v156h250v485h-414v152h995v-152z" />
    <glyph glyph-name="tbar" unicode="&#x167;" horiz-adv-x="694" 
d="M631 547h-248v-240q0 -102 34 -146t118 -44q59 0 106 33v-140q-59 -33 -154 -33q-268 0 -268 302v268h-164v133h164v205h-176v139h176v250l164 53v-303h258v-139h-258v-205h248v-133z" />
    <glyph glyph-name="Utilde" unicode="&#x168;" horiz-adv-x="1407" 
d="M1237 580q0 -605 -545 -605q-522 0 -522 582v877h168v-867q0 -440 373 -440q358 0 358 426v881h168v-854zM1026 1806q0 -107 -49 -172t-129 -65q-71 0 -162 51q-77 43 -119 43q-88 0 -88 -113h-94q0 108 48.5 172t133.5 64q67 0 150 -52q72 -45 127 -45q84 0 84 117h98z
" />
    <glyph glyph-name="utilde" unicode="&#x169;" horiz-adv-x="1159" 
d="M993 0h-164v162h-4q-102 -187 -315 -187q-367 0 -367 437v612h164v-586q0 -323 248 -323q122 0 198 88.5t76 230.5v590h164v-1024zM890 1458q0 -107 -49 -172t-129 -65q-71 0 -162 51q-77 43 -119 43q-88 0 -88 -113h-94q0 108 48.5 172t133.5 64q67 0 150 -52
q72 -45 127 -45q84 0 84 117h98z" />
    <glyph glyph-name="Umacron" unicode="&#x16a;" horiz-adv-x="1407" 
d="M1237 580q0 -605 -545 -605q-522 0 -522 582v877h168v-867q0 -440 373 -440q358 0 358 426v881h168v-854zM955 1566h-508v108h508v-108z" />
    <glyph glyph-name="umacron" unicode="&#x16b;" horiz-adv-x="1159" 
d="M993 0h-164v162h-4q-102 -187 -315 -187q-367 0 -367 437v612h164v-586q0 -323 248 -323q122 0 198 88.5t76 230.5v590h164v-1024zM819 1219h-508v108h508v-108z" />
    <glyph glyph-name="Ubreve" unicode="&#x16c;" horiz-adv-x="1407" 
d="M1237 580q0 -605 -545 -605q-522 0 -522 582v877h168v-867q0 -440 373 -440q358 0 358 426v881h168v-854zM974 1818q-10 -110 -87.5 -180.5t-191.5 -70.5q-119 0 -192.5 69t-77.5 182h100q12 -155 172 -155q68 0 116 42t58 113h103z" />
    <glyph glyph-name="ubreve" unicode="&#x16d;" horiz-adv-x="1159" 
d="M993 0h-164v162h-4q-102 -187 -315 -187q-367 0 -367 437v612h164v-586q0 -323 248 -323q122 0 198 88.5t76 230.5v590h164v-1024zM838 1470q-10 -110 -87.5 -180.5t-191.5 -70.5q-119 0 -192.5 69t-77.5 182h100q12 -155 172 -155q68 0 116 42t58 113h103z" />
    <glyph glyph-name="Uring" unicode="&#x16e;" horiz-adv-x="1407" 
d="M1237 580q0 -605 -545 -605q-522 0 -522 582v877h168v-867q0 -440 373 -440q358 0 358 426v881h168v-854zM892 1763q0 -82 -61 -139t-148 -57q-90 0 -146.5 53t-56.5 137q0 89 60.5 144t148.5 55q87 0 145 -54.5t58 -138.5zM797 1761q0 49 -32.5 81t-81.5 32
q-50 0 -81.5 -33t-31.5 -80q0 -113 113 -113q49 0 81.5 32.5t32.5 80.5z" />
    <glyph glyph-name="uring" unicode="&#x16f;" horiz-adv-x="1159" 
d="M993 0h-164v162h-4q-102 -187 -315 -187q-367 0 -367 437v612h164v-586q0 -323 248 -323q122 0 198 88.5t76 230.5v590h164v-1024zM774 1372q0 -82 -61 -139t-148 -57q-90 0 -146.5 53t-56.5 137q0 89 60.5 144t148.5 55q87 0 145 -54.5t58 -138.5zM679 1370
q0 49 -32.5 81t-81.5 32q-50 0 -81.5 -33t-31.5 -80q0 -113 113 -113q49 0 81.5 32.5t32.5 80.5z" />
    <glyph glyph-name="Uhungarumlaut" unicode="&#x170;" horiz-adv-x="1407" 
d="M1237 580q0 -605 -545 -605q-522 0 -522 582v877h168v-867q0 -440 373 -440q358 0 358 426v881h168v-854zM1051 1884l-246 -317h-96l209 317h133zM803 1884l-239 -317h-97l207 317h129z" />
    <glyph glyph-name="uhungarumlaut" unicode="&#x171;" horiz-adv-x="1159" 
d="M993 0h-164v162h-4q-102 -187 -315 -187q-367 0 -367 437v612h164v-586q0 -323 248 -323q122 0 198 88.5t76 230.5v590h164v-1024zM908 1536l-246 -317h-96l209 317h133zM660 1536l-239 -317h-97l207 317h129z" />
    <glyph glyph-name="Uogonek" unicode="&#x172;" horiz-adv-x="1407" 
d="M1237 580q0 -605 -545 -605q-522 0 -522 582v877h168v-867q0 -440 373 -440q358 0 358 426v881h168v-854zM870 0q-150 -141 -150 -223q0 -70 68 -70q29 0 55 12v-106q-29 -12 -82 -12q-76 0 -122 39.5t-46 109.5q0 122 158 250h119z" />
    <glyph glyph-name="uogonek" unicode="&#x173;" horiz-adv-x="1159" 
d="M993 0h-164v162h-4q-102 -187 -315 -187q-367 0 -367 437v612h164v-586q0 -323 248 -323q122 0 198 88.5t76 230.5v590h164v-1024zM948 0q-150 -141 -150 -223q0 -70 68 -70q29 0 55 12v-106q-29 -12 -82 -12q-76 0 -122 39.5t-46 109.5q0 122 158 250h119z" />
    <glyph glyph-name="Wcircumflex" unicode="&#x174;" horiz-adv-x="1913" 
d="M1888 1434l-405 -1434h-197l-295 1049q-17 59 -22 145h-4q-8 -74 -27 -143l-297 -1051h-195l-419 1434h184l305 -1100q19 -73 25 -144h4q5 61 30 144l318 1100h162l303 -1108q17 -62 24 -133h4q5 52 27 137l293 1104h182zM1258 1567h-120l-164 229l-166 -229h-113
l215 331h133z" />
    <glyph glyph-name="wcircumflex" unicode="&#x175;" horiz-adv-x="1481" 
d="M1456 1024l-307 -1024h-170l-211 733q-11 38 -16 94h-4q-3 -35 -21 -92l-229 -735h-164l-309 1024h172l211 -770q10 -40 14 -92h8q2 38 19 94l235 768h150l213 -772q10 -39 14 -92h8q2 48 16 92l209 772h162zM1040 1219h-120l-164 229l-166 -229h-113l215 331h133z" />
    <glyph glyph-name="Ycircumflex" unicode="&#x176;" horiz-adv-x="1133" 
d="M1120 1434l-473 -904v-530h-168v526l-461 908h191l321 -648l35 -88h2q10 33 39 88l336 648h178zM853 1566h-120l-164 229l-166 -229h-113l215 331h133z" />
    <glyph glyph-name="ycircumflex" unicode="&#x177;" horiz-adv-x="991" 
d="M981 1024l-471 -1188q-126 -317 -354 -317q-64 0 -107 12v147q52 -18 96 -18q125 0 187 147l82 195l-400 1022h183l276 -788l21 -78h6q4 22 20 75l291 791h170zM796 1219h-120l-164 229l-166 -229h-113l215 331h133z" />
    <glyph glyph-name="Zacute" unicode="&#x179;" horiz-adv-x="1167" 
d="M1124 1395l-839 -1243h819v-152h-1071v47l833 1235h-766v152h1024v-39zM868 1895l-262 -327h-127l223 327h166z" />
    <glyph glyph-name="zacute" unicode="&#x17a;" horiz-adv-x="926" 
d="M881 977l-607 -838h600v-139h-841v51l606 834h-549v139h791v-47zM723 1546l-262 -327h-127l223 327h166z" />
    <glyph glyph-name="Zdotaccent" unicode="&#x17b;" horiz-adv-x="1167" 
d="M1124 1395l-839 -1243h819v-152h-1071v47l833 1235h-766v152h1024v-39zM691 1664q0 -42 -28 -70t-70 -28q-40 0 -69 28.5t-29 69.5t29.5 68.5t68.5 27.5q42 0 70 -27t28 -69z" />
    <glyph glyph-name="zdotaccent" unicode="&#x17c;" horiz-adv-x="926" 
d="M881 977l-607 -838h600v-139h-841v51l606 834h-549v139h791v-47zM583 1317q0 -42 -28 -70t-70 -28q-40 0 -69 28.5t-29 69.5t29.5 68.5t68.5 27.5q42 0 70 -27t28 -69z" />
    <glyph glyph-name="longs" unicode="&#x17f;" horiz-adv-x="560" 
d="M610 1372q-45 27 -108 27q-172 0 -172 -217v-1182h-164v1190q0 155 91.5 251.5t234.5 96.5q74 0 118 -18v-148z" />
    <glyph glyph-name="Aringacute" unicode="&#x1fa;" horiz-adv-x="1321" 
d="M1298 0h-186l-151 401h-609l-143 -401h-186l528 1378q-100 51 -100 164q0 87 59.5 143t151.5 56q87 0 143.5 -54.5t56.5 -138.5q0 -112 -96 -166zM770 1548q0 49 -33 80t-82 31t-80.5 -31.5t-31.5 -79.5q0 -114 112 -114q47 0 81 32t34 82zM905 553l-225 610
q-8 22 -23 97h-4q-9 -63 -22 -97l-223 -610h497zM924 2129l-262 -327h-127l223 327h166z" />
    <glyph glyph-name="aringacute" unicode="&#x1fb;" horiz-adv-x="1034" 
d="M891 0h-164v160h-4q-107 -185 -315 -185q-148 0 -237 80.5t-89 216.5q0 286 338 334l307 43q0 260 -211 260q-185 0 -334 -125v168q45 34 154 65.5t194 31.5q361 0 361 -383v-666zM727 518l-248 -35q-127 -18 -178 -60.5t-51 -137.5q0 -77 55 -123.5t141 -46.5
q122 0 201.5 86t79.5 215v102zM718 1311q0 -82 -61 -139t-148 -57q-90 0 -146.5 53t-56.5 137q0 89 60.5 144t148.5 55q87 0 145 -54.5t58 -138.5zM623 1309q0 49 -32.5 81t-81.5 32q-50 0 -81.5 -33t-31.5 -80q0 -113 113 -113q49 0 81.5 32.5t32.5 80.5zM784 1895
l-262 -327h-127l223 327h166z" />
    <glyph glyph-name="AEacute" unicode="&#x1fc;" horiz-adv-x="1761" 
d="M1667 0h-760v401h-510l-192 -401h-195l701 1434h923v-152h-559v-477h518v-152h-518v-501h592v-152zM907 553v729h-94l-346 -729h440zM1340 1894l-262 -327h-127l223 327h166z" />
    <glyph glyph-name="aeacute" unicode="&#x1fd;" horiz-adv-x="1688" 
d="M1614 471h-725q2 -168 90 -262t242 -94q178 0 321 112v-153q-134 -99 -358 -99q-270 0 -383 230h-4q-146 -230 -387 -230q-149 0 -238.5 80t-89.5 217q0 300 383 324l262 16q0 297 -215 297q-176 0 -330 -121v164q148 97 348 97q231 0 299 -201h5q115 201 356 201
q200 0 312 -131.5t112 -362.5v-84zM1446 610q-2 142 -67.5 220.5t-186.5 78.5q-113 0 -197 -81.5t-104 -217.5h555zM727 410v63l-203 -12q-146 -9 -211 -51.5t-65 -133.5q0 -74 53 -117.5t143 -43.5q118 0 200.5 83.5t82.5 211.5zM1113 1546l-262 -327h-127l223 327h166z
" />
    <glyph glyph-name="Oslashacute" unicode="&#x1fe;" horiz-adv-x="1544" 
d="M1450 735q0 -229 -83.5 -401.5t-240 -265.5t-360.5 -93q-267 0 -442 156l-152 -182l-78 65l158 191q-158 196 -158 495q0 227 85 399.5t244 265.5t368 93q233 0 401 -129l135 162l78 -64l-139 -165q184 -200 184 -527zM1274 713q0 259 -117 417l-725 -866
q131 -137 334 -137q238 0 373 155t135 431zM1090 1204q-125 103 -312 103q-147 0 -263.5 -75t-180.5 -210t-64 -307q0 -223 99 -373zM1030 1894l-262 -327h-127l223 327h166z" />
    <glyph glyph-name="oslashacute" unicode="&#x1ff;" horiz-adv-x="1184" 
d="M1165 1049l-168 -181q99 -138 99 -346q0 -249 -138 -398t-372 -149q-194 0 -318 103l-145 -160l-82 78l149 164q-102 136 -102 340q0 251 139 400t385 149q185 0 308 -99l161 176zM813 836q-79 73 -215 73q-161 0 -251.5 -107.5t-90.5 -295.5q0 -132 49 -223zM930 512
q0 133 -47 229l-508 -551q85 -75 221 -75q162 0 248 104t86 293zM860 1546l-262 -327h-127l223 327h166z" />
    <glyph glyph-name="uni0218" unicode="&#x218;" horiz-adv-x="1018" 
d="M920 362q0 -181 -128 -284t-348 -103q-80 0 -180.5 26.5t-142.5 55.5v199q61 -55 160.5 -92t185.5 -37q276 0 276 215q0 90 -59 154.5t-242 169.5q-177 100 -248 190t-71 219q0 170 127 276.5t328 106.5q193 0 282 -51v-188q-112 88 -291 88q-119 0 -194.5 -59.5
t-75.5 -157.5q0 -71 22.5 -114t76 -85t180.5 -113q190 -106 266 -200t76 -216zM630 -119l-166 -260h-123l117 260h172z" />
    <glyph glyph-name="uni0219" unicode="&#x219;" horiz-adv-x="799" 
d="M725 274q0 -133 -102.5 -216t-272.5 -83q-145 0 -254 62v176q121 -98 266 -98q195 0 195 143q0 58 -38 94.5t-173 98.5q-136 58 -192 124.5t-56 176.5q0 127 102 212t259 85q121 0 219 -48v-165q-100 73 -232 73q-81 0 -130.5 -40t-49.5 -103q0 -68 38 -104.5t157 -86.5
q146 -62 205 -130t59 -171zM508 -119l-166 -260h-123l117 260h172z" />
    <glyph glyph-name="uni037E" unicode="&#x37e;" horiz-adv-x="444" 
d="M338 936q0 -45 -32.5 -79t-80.5 -34q-46 0 -78 33.5t-32 79.5q0 47 33 79t77 32q45 0 79 -32t34 -79zM315 227l-159 -491h-117l117 491h159z" />
    <glyph glyph-name="tonos" unicode="&#x384;" horiz-adv-x="559" 
d="M475 1537l-176 -363h-93l101 363h168z" />
    <glyph glyph-name="dieresistonos" unicode="&#x385;" horiz-adv-x="559" 
d="M645 1322q0 -39 -29 -68.5t-71 -29.5q-39 0 -68 27.5t-29 70.5t29 70.5t68 27.5q42 0 71 -28t29 -70zM471 1551l-176 -363h-93l101 363h168zM160 1322q0 -39 -29 -68.5t-71 -29.5q-41 0 -70 28.5t-29 69.5t29 69.5t70 28.5q42 0 71 -28t29 -70z" />
    <glyph glyph-name="Alphatonos" unicode="&#x386;" horiz-adv-x="1321" 
d="M1298 0h-186l-151 401h-609l-143 -401h-186l548 1434h174zM905 553l-225 610q-8 22 -23 97h-4q-9 -63 -22 -97l-223 -610h497zM316 1435l-176 -363h-93l101 363h168z" />
    <glyph glyph-name="anoteleia" unicode="&#x387;" horiz-adv-x="444" 
d="M336 623q0 -46 -33.5 -79.5t-79.5 -33.5t-78 33.5t-32 79.5q0 48 33 80t77 32q45 0 79 -32.5t34 -79.5z" />
    <glyph glyph-name="Epsilontonos" unicode="&#x388;" horiz-adv-x="1168" 
d="M1078 0h-760v1434h727v-152h-559v-477h518v-152h-518v-501h592v-152zM211 1435l-176 -363h-93l101 363h168z" />
    <glyph glyph-name="Etatonos" unicode="&#x389;" horiz-adv-x="1585" 
d="M1395 0h-168v653h-742v-653h-168v1434h168v-629h742v629h168v-1434zM211 1435l-176 -363h-93l101 363h168z" />
    <glyph glyph-name="Iotatonos" unicode="&#x38a;" horiz-adv-x="675" 
d="M486 0h-168v1434h168v-1434zM211 1435l-176 -363h-93l101 363h168z" />
    <glyph glyph-name="Omicrontonos" unicode="&#x38c;" horiz-adv-x="1640" 
d="M1550 735q0 -229 -83.5 -401.5t-240 -265.5t-360.5 -93q-197 0 -350.5 90.5t-237.5 257t-84 377.5q0 227 85 400t244 265.5t368 92.5q191 0 342.5 -91t234 -256t82.5 -376zM1374 713q0 280 -131 437t-365 157q-147 0 -263.5 -74.5t-180.5 -211.5t-64 -306
q0 -172 61.5 -306.5t175.5 -208t259 -73.5q238 0 373 156t135 430zM224 1435l-176 -363h-93l101 363h168z" />
    <glyph glyph-name="Upsilontonos" unicode="&#x38e;" horiz-adv-x="1397" 
d="M1382 1434l-473 -904v-530h-168v526l-461 908h191l321 -648l35 -88h2q10 33 39 88l336 648h178zM223 1435l-176 -363h-93l101 363h168z" />
    <glyph glyph-name="Omegatonos" unicode="&#x38f;" horiz-adv-x="1692" 
d="M1594 0h-519v147q345 256 345 633q0 238 -136 383.5t-361 145.5q-228 0 -366 -145.5t-138 -382.5q0 -378 346 -634v-147h-520v147h348q-348 235 -348 638q0 201 83 354.5t237 236t353 82.5q203 0 358 -82.5t236.5 -235t81.5 -354.5q0 -402 -348 -639h348v-147zM223 1435
l-176 -363h-93l101 363h168z" />
    <glyph glyph-name="iotadieresistonos" unicode="&#x390;" horiz-adv-x="546" 
d="M520 11q-63 -23 -121 -23q-232 0 -232 277v759h162v-754q0 -138 100 -138q44 0 91 19v-140zM607 1322q0 -39 -29 -68.5t-71 -29.5q-39 0 -68 27.5t-29 70.5t29 70.5t68 27.5q42 0 71 -28t29 -70zM433 1551l-176 -363h-93l101 363h168zM122 1322q0 -39 -29 -68.5
t-71 -29.5q-41 0 -70 28.5t-29 69.5t29 69.5t70 28.5q42 0 71 -28t29 -70z" />
    <glyph glyph-name="Alpha" unicode="&#x391;" horiz-adv-x="1321" 
d="M1298 0h-186l-151 401h-609l-143 -401h-186l548 1434h174zM905 553l-225 610q-8 22 -23 97h-4q-9 -63 -22 -97l-223 -610h497z" />
    <glyph glyph-name="Beta" unicode="&#x392;" horiz-adv-x="1174" 
d="M1071 412q0 -179 -130.5 -295.5t-334.5 -116.5h-418v1434h408q181 0 292 -89t111 -239q0 -120 -65.5 -210.5t-181.5 -129.5v-4q147 -18 233 -110.5t86 -239.5zM823 1073q0 209 -274 209h-193v-463h172q137 0 216 66t79 188zM895 414q0 254 -346 254h-193v-516h228
q148 0 229.5 70.5t81.5 191.5z" />
    <glyph glyph-name="Gamma" unicode="&#x393;" horiz-adv-x="952" 
d="M932 1282h-576v-1282h-168v1434h744v-152z" />
    <glyph glyph-name="uni0394" unicode="&#x394;" horiz-adv-x="1320" 
d="M1271 0h-1219v76l520 1358h172l527 -1359v-75zM1062 150l-365 987l-41 123h-4q-8 -47 -37 -126l-360 -984h807z" />
    <glyph glyph-name="Epsilon" unicode="&#x395;" horiz-adv-x="1038" 
d="M948 0h-760v1434h727v-152h-559v-477h518v-152h-518v-501h592v-152z" />
    <glyph glyph-name="Zeta" unicode="&#x396;" horiz-adv-x="1167" 
d="M1124 1395l-839 -1243h819v-152h-1071v47l833 1235h-766v152h1024v-39z" />
    <glyph glyph-name="Eta" unicode="&#x397;" horiz-adv-x="1455" 
d="M1266 0h-168v653h-742v-653h-168v1434h168v-629h742v629h168v-1434z" />
    <glyph glyph-name="Theta" unicode="&#x398;" horiz-adv-x="1544" 
d="M1450 735q0 -228 -84 -400.5t-239 -266t-361 -93.5q-197 0 -350.5 90.5t-237.5 257t-84 377.5q0 227 84.5 398.5t243 265.5t369.5 94q191 0 342.5 -91t234 -256t82.5 -376zM1273 713q0 281 -130.5 437t-365.5 156q-146 0 -262 -74.5t-180 -209t-64 -306.5
q0 -173 62.5 -308t175 -208t257.5 -73q238 0 372.5 155.5t134.5 430.5zM1041 637h-538v156h538v-156z" />
    <glyph glyph-name="Iota" unicode="&#x399;" horiz-adv-x="546" 
d="M356 0h-168v1434h168v-1434z" />
    <glyph glyph-name="Kappa" unicode="&#x39a;" horiz-adv-x="1188" 
d="M1186 0h-234l-555 655q-22 26 -37 52h-4v-707h-168v1434h168v-674h4l37 49l537 625h209l-615 -689z" />
    <glyph glyph-name="Lambda" unicode="&#x39b;" horiz-adv-x="1288" 
d="M1263 0h-186l-405 1150q-12 34 -28 119h-4q-11 -65 -30 -120l-406 -1149h-180l526 1434h190z" />
    <glyph glyph-name="Mu" unicode="&#x39c;" horiz-adv-x="1838" 
d="M1651 0h-168v963q0 114 14 278h-4q-24 -97 -43 -139l-489 -1102h-82l-490 1094q-20 44 -43 147h-4q8 -86 8 -280v-961h-162v1434h222l440 -1000q50 -114 65 -172h7q50 138 69 176l449 996h211v-1434z" />
    <glyph glyph-name="Nu" unicode="&#x39d;" horiz-adv-x="1531" 
d="M1343 0h-204l-740 1143q-26 40 -45 90h-6q8 -46 8 -197v-1036h-168v1434h218l718 -1125l58 -96h4q-10 62 -10 211v1010h167v-1434z" />
    <glyph glyph-name="Xi" unicode="&#x39e;" horiz-adv-x="1044" 
d="M960 1275h-875v159h875v-159zM821 648h-598v153h598v-153zM987 0h-929v162h929v-162z" />
    <glyph glyph-name="Omicron" unicode="&#x39f;" horiz-adv-x="1544" 
d="M1450 735q0 -229 -83.5 -401.5t-240 -265.5t-360.5 -93q-197 0 -350.5 90.5t-237.5 257t-84 377.5q0 227 85 400t244 265.5t368 92.5q191 0 342.5 -91t234 -256t82.5 -376zM1274 713q0 280 -131 437t-365 157q-147 0 -263.5 -74.5t-180.5 -211.5t-64 -306
q0 -172 61.5 -306.5t175.5 -208t259 -73.5q238 0 373 156t135 430z" />
    <glyph glyph-name="Pi" unicode="&#x3a0;" horiz-adv-x="1460" 
d="M1276 0h-170v1278h-749v-1278h-168v1434h1087v-1434z" />
    <glyph glyph-name="Rho" unicode="&#x3a1;" horiz-adv-x="1149" 
d="M1065 1006q0 -208 -143.5 -335.5t-376.5 -127.5h-189v-543h-168v1434h394q230 0 356.5 -112.5t126.5 -315.5zM889 997q0 285 -336 285h-197v-588h176q173 0 265 78.5t92 224.5z" />
    <glyph glyph-name="Sigma" unicode="&#x3a3;" horiz-adv-x="1057" 
d="M1008 0h-962v78l465 661l-423 604v91h858v-155h-613l378 -536l-418 -596h715v-147z" />
    <glyph glyph-name="Tau" unicode="&#x3a4;" horiz-adv-x="1075" 
d="M1036 1282h-413v-1282h-168v1282h-414v152h995v-152z" />
    <glyph glyph-name="Upsilon" unicode="&#x3a5;" horiz-adv-x="1135" 
d="M1120 1434l-473 -904v-530h-168v526l-461 908h191l321 -648l35 -88h2q10 33 39 88l336 648h178z" />
    <glyph glyph-name="Phi" unicode="&#x3a6;" horiz-adv-x="1544" 
d="M1447 754q0 -163 -69.5 -292.5t-197 -202t-286.5 -72.5h-44v-202h-156v202h-43q-161 0 -288 71t-197 200.5t-70 294.5q0 248 153.5 396t403.5 148h41v150h156v-150h41q164 0 290.5 -66.5t196 -191t69.5 -285.5zM1283 752q0 185 -106 294.5t-286 109.5h-41v-821h44
q183 0 286 111t103 306zM694 335v821h-41q-180 0 -286.5 -109t-106.5 -296q0 -195 104.5 -305.5t286.5 -110.5h43z" />
    <glyph glyph-name="Chi" unicode="&#x3a7;" horiz-adv-x="1208" 
d="M1178 0h-205l-330 549q-15 25 -33 72h-4l-35 -72l-340 -549h-204l479 721l-443 713h207l293 -504q28 -48 51 -101h4q29 61 56 105l305 500h192l-450 -711z" />
    <glyph glyph-name="Psi" unicode="&#x3a8;" horiz-adv-x="1589" 
d="M872 1434v-896h57q362 0 362 366v530h163v-531q0 -148 -66 -266t-185.5 -182.5t-273.5 -64.5h-57v-390h-155v390h-57q-154 0 -273.5 64t-185 182t-65.5 267v531h162v-530q0 -366 362 -366h57v896h155z" />
    <glyph glyph-name="uni03A9" unicode="&#x3a9;" horiz-adv-x="1546" 
d="M1449 0h-519v147q345 256 345 633q0 238 -136 383.5t-361 145.5q-228 0 -366 -145.5t-138 -382.5q0 -378 346 -634v-147h-520v147h348q-348 235 -348 638q0 201 83 354.5t237 236t353 82.5q203 0 358 -82.5t236.5 -235t81.5 -354.5q0 -402 -348 -639h348v-147z" />
    <glyph glyph-name="Iotadieresis" unicode="&#x3aa;" horiz-adv-x="545" 
d="M356 0h-168v1434h168v-1434zM571 1665q0 -41 -29 -69.5t-70 -28.5q-40 0 -69 28.5t-29 69.5q0 42 28 70t68 28q43 0 72 -29t29 -69zM186 1665q0 -41 -29 -69.5t-70 -28.5q-40 0 -70 28t-30 70q0 41 29 69.5t69 28.5q43 0 72 -29t29 -69z" />
    <glyph glyph-name="Upsilondieresis" unicode="&#x3ab;" horiz-adv-x="1133" 
d="M1120 1434l-473 -904v-530h-168v526l-461 908h191l321 -648l35 -88h2q10 33 39 88l336 648h178zM858 1664q0 -41 -29 -69.5t-70 -28.5q-40 0 -69 28.5t-29 69.5q0 42 28 70t68 28q43 0 72 -29t29 -69zM473 1664q0 -41 -29 -69.5t-70 -28.5q-40 0 -70 28t-30 70
q0 41 29 69.5t69 28.5q43 0 72 -29t29 -69z" />
    <glyph glyph-name="alphatonos" unicode="&#x3ac;" horiz-adv-x="1258" 
d="M873 520q-38 190 -115.5 291t-188.5 101q-94 0 -164 -55t-108.5 -152.5t-38.5 -212.5q0 -162 72.5 -267t191.5 -105q100 0 188 85.5t149 271.5zM1221 5q-60 -13 -95 -13q-82 0 -131.5 73t-76.5 220h-4q-78 -161 -180 -235t-234 -74q-123 0 -216 65t-143.5 180.5
t-50.5 260.5q0 164 58 293.5t166.5 201t253.5 71.5q126 0 225 -75t150 -211h4l85 262h172l-193 -502q38 -229 74.5 -302.5t95.5 -73.5q20 0 40 5v-146zM788 1537l-176 -363h-93l101 363h168z" />
    <glyph glyph-name="epsilontonos" unicode="&#x3ad;" horiz-adv-x="897" 
d="M827 22q-132 -47 -325 -47q-191 0 -305.5 81.5t-114.5 220.5q0 91 68.5 160t184.5 90v4q-89 19 -151.5 85.5t-62.5 144.5q0 134 105.5 211t285.5 77q142 0 270 -45v-165q-134 71 -280 71q-215 0 -215 -147q0 -73 79 -120t208 -47q72 0 118 4v-146l-140 4
q-304 0 -304 -178q0 -75 70 -120.5t199 -45.5q168 0 310 73v-165zM697 1537l-176 -363h-93l101 363h168z" />
    <glyph glyph-name="etatonos" unicode="&#x3ae;" horiz-adv-x="1178" 
d="M1015 -481h-165v1053q0 327 -236 327q-122 0 -203.5 -88.5t-81.5 -223.5v-587h-162v694q0 235 -37 330h168q28 -72 28 -173h4q111 198 341 198q344 0 344 -419v-1111zM799 1537l-176 -363h-93l101 363h168z" />
    <glyph glyph-name="iotatonos" unicode="&#x3af;" horiz-adv-x="546" 
d="M520 11q-63 -23 -121 -23q-232 0 -232 277v759h162v-754q0 -138 100 -138q44 0 91 19v-140zM446 1537l-176 -363h-93l101 363h168z" />
    <glyph glyph-name="upsilondieresistonos" unicode="&#x3b0;" horiz-adv-x="1132" 
d="M174 711q0 95 -22 135.5t-75 40.5q-29 0 -57 -7v138q50 13 95 13q121 0 171 -72.5t50 -240.5v-257q0 -341 269 -341q128 0 198 88.5t70 249.5q0 299 -147 566h183q129 -251 129 -559q0 -226 -116 -358.5t-317 -132.5q-207 0 -319 118t-112 340v279zM898 1322
q0 -39 -29 -68.5t-71 -29.5q-39 0 -68 27.5t-29 70.5t29 70.5t68 27.5q42 0 71 -28t29 -70zM724 1551l-176 -363h-93l101 363h168zM413 1322q0 -39 -29 -68.5t-71 -29.5q-41 0 -70 28.5t-29 69.5t29 69.5t70 28.5q42 0 71 -28t29 -70z" />
    <glyph glyph-name="alpha" unicode="&#x3b1;" horiz-adv-x="1258" 
d="M873 520q-38 190 -115.5 291t-188.5 101q-94 0 -164 -55t-108.5 -152.5t-38.5 -212.5q0 -162 72.5 -267t191.5 -105q100 0 188 85.5t149 271.5zM1221 5q-60 -13 -95 -13q-82 0 -131.5 73t-76.5 220h-4q-78 -161 -180 -235t-234 -74q-123 0 -216 65t-143.5 180.5
t-50.5 260.5q0 164 58 293.5t166.5 201t253.5 71.5q126 0 225 -75t150 -211h4l85 262h172l-193 -502q38 -229 74.5 -302.5t95.5 -73.5q20 0 40 5v-146z" />
    <glyph glyph-name="beta" unicode="&#x3b2;" horiz-adv-x="1122" 
d="M1045 409q0 -193 -120 -313.5t-319 -120.5q-152 0 -277 71v-527h-162v1596q0 191 109.5 304t295.5 113q175 0 273.5 -91.5t98.5 -249.5q0 -121 -78 -226t-197 -142v-4q181 -30 278.5 -137t97.5 -273zM877 398q0 302 -380 343v131q119 16 200.5 101.5t81.5 197.5
q0 221 -210 221q-116 0 -178 -76.5t-62 -217.5v-896q139 -87 274 -87q130 0 202 74t72 209z" />
    <glyph glyph-name="gamma" unicode="&#x3b3;" horiz-adv-x="1063" 
d="M998 939q0 -181 -51.5 -343t-176.5 -362l-203 -303q0 -320 -4 -412h-175q15 169 15 495q-42 222 -160.5 521.5t-237.5 488.5h188q248 -442 343 -881h4q159 234 225 403t66 348q0 62 -10 130h171q6 -53 6 -85z" />
    <glyph glyph-name="delta" unicode="&#x3b4;" horiz-adv-x="1196" 
d="M269 1268q0 126 102 196t288 70q76 0 169 -17t171 -47v-183q-168 101 -340 101q-98 0 -159.5 -34.5t-61.5 -92.5q0 -38 29.5 -74.5t79.5 -74t176 -114.5q158 -99 231 -171.5t113 -157t40 -188.5q0 -233 -140 -369.5t-381 -136.5q-221 0 -357.5 134t-136.5 348
q0 156 108 286t307 215q-115 70 -176.5 149.5t-61.5 160.5zM268 458q0 -158 90.5 -250t240.5 -92q157 0 250 96t93 257q0 116 -71 211.5t-237 202.5q-366 -147 -366 -425z" />
    <glyph glyph-name="epsilon" unicode="&#x3b5;" horiz-adv-x="897" 
d="M827 22q-132 -47 -325 -47q-191 0 -305.5 81.5t-114.5 220.5q0 91 68.5 160t184.5 90v4q-89 19 -151.5 85.5t-62.5 144.5q0 134 105.5 211t285.5 77q142 0 270 -45v-165q-134 71 -280 71q-215 0 -215 -147q0 -73 79 -120t208 -47q72 0 118 4v-146l-140 4
q-304 0 -304 -178q0 -75 70 -120.5t199 -45.5q168 0 310 73v-165z" />
    <glyph glyph-name="zeta" unicode="&#x3b6;" horiz-adv-x="905" 
d="M895 -128q0 -101 -70 -181h-179q98 80 98 156q0 64 -55.5 97t-207.5 52q-405 49 -405 455q0 434 596 928v4h-436v133h603v-135q-593 -518 -593 -927q0 -127 71.5 -200t216.5 -97q197 -34 279 -98t82 -187z" />
    <glyph glyph-name="eta" unicode="&#x3b7;" horiz-adv-x="1178" 
d="M1015 -481h-165v1053q0 327 -236 327q-122 0 -203.5 -88.5t-81.5 -223.5v-587h-162v694q0 235 -37 330h168q28 -72 28 -173h4q111 198 341 198q344 0 344 -419v-1111z" />
    <glyph glyph-name="theta" unicode="&#x3b8;" horiz-adv-x="1185" 
d="M1096 767q0 -377 -135.5 -584.5t-378.5 -207.5q-233 0 -363 203.5t-130 563.5q0 382 135.5 587t388.5 205q483 0 483 -767zM925 836q-18 558 -328 558q-150 0 -240 -151t-100 -407h668zM927 703h-672q6 -283 95 -435.5t245 -152.5q154 0 241 153t91 435z" />
    <glyph glyph-name="iota" unicode="&#x3b9;" horiz-adv-x="546" 
d="M520 11q-63 -23 -121 -23q-232 0 -232 277v759h162v-754q0 -138 100 -138q44 0 91 19v-140z" />
    <glyph glyph-name="kappa" unicode="&#x3ba;" horiz-adv-x="1073" 
d="M1043 0h-203l-370 501l-141 -153v-348h-162v1024h162v-498l275 312q103 117 159.5 158.5t116.5 41.5q73 0 105 -7v-145q-30 8 -81 8q-63 0 -208 -157l-115 -124z" />
    <glyph glyph-name="lambda" unicode="&#x3bb;" horiz-adv-x="1020" 
d="M991 0h-176l-280 827l-356 -827h-181l463 1017l-67 196q-52 154 -157 154q-54 0 -120 -18v157q70 11 129 11q119 0 184.5 -64.5t128.5 -239.5z" />
    <glyph glyph-name="uni03BC" unicode="&#x3bc;" horiz-adv-x="1182" 
d="M840 174q-89 -198 -287 -198q-155 0 -219 124h-4v-581h-163v1505h163v-624q0 -124 66.5 -200t172.5 -76q115 0 182.5 87.5t67.5 228.5v584h163v-721q0 -166 122 -166q20 0 40 5v-137q-60 -13 -95 -13q-82 0 -131 42t-72 140h-6z" />
    <glyph glyph-name="nu" unicode="&#x3bd;" horiz-adv-x="1077" 
d="M967 838q0 -377 -383 -838h-164l-409 1024h182l335 -868q272 344 272 658q0 123 -34 210h177q24 -71 24 -186z" />
    <glyph glyph-name="xi" unicode="&#x3be;" horiz-adv-x="911" 
d="M886 -130q0 -107 -70 -186h-179q97 78 97 161q0 45 -25 74t-70 46.5t-160 31.5q-193 24 -297.5 132.5t-104.5 280.5q0 135 83.5 238t229.5 155q-104 28 -163 93.5t-59 155.5q0 113 97.5 203t258.5 126v7h-358v129h606v-137q-195 -27 -316 -112.5t-121 -198.5
q0 -90 72.5 -146.5t197.5 -62.5l151 6v-150l-113 3q-173 0 -285 -81t-112 -215q0 -219 284 -264q200 -33 278 -102.5t78 -186.5z" />
    <glyph glyph-name="omicron" unicode="&#x3bf;" horiz-adv-x="1184" 
d="M1096 516q0 -244 -138.5 -392.5t-371.5 -148.5q-227 0 -362.5 144.5t-135.5 380.5q0 254 139 401.5t383 147.5q228 0 357 -142.5t129 -390.5zM928 510q0 193 -85.5 296t-244.5 103q-158 0 -250 -105.5t-92 -297.5q0 -184 92.5 -287.5t249.5 -103.5q160 0 245 102t85 293z
" />
    <glyph glyph-name="pi" unicode="&#x3c0;" horiz-adv-x="1284" 
d="M1199 891h-222v-619q0 -140 101 -140q35 0 88 19v-140q-63 -23 -122 -23q-232 0 -232 277v626h-389v-611q0 -190 -32 -280h-167q36 87 36 280v611q-122 -3 -243 -89v150q75 72 245 72h937v-133z" />
    <glyph glyph-name="rho" unicode="&#x3c1;" horiz-adv-x="1192" 
d="M1103 529q0 -261 -124 -407.5t-344 -146.5q-193 0 -308 124h-4v-580h-162v1007q0 251 118 387t334 136q141 0 253.5 -65.5t174.5 -185t62 -269.5zM935 521q0 167 -90 277.5t-229 110.5q-141 0 -217 -100.5t-76 -284.5v-265q42 -63 123.5 -103.5t169.5 -40.5
q319 0 319 406z" />
    <glyph glyph-name="sigma1" unicode="&#x3c2;" horiz-adv-x="943" 
d="M897 -130q0 -106 -70 -186h-181q98 77 98 164q0 68 -57.5 100t-197.5 50q-192 26 -297 139.5t-105 293.5q0 179 68 320.5t191.5 219.5t279.5 78q128 0 228 -52v-167q-113 79 -243 79q-99 0 -180.5 -59t-127.5 -166t-46 -234q0 -191 166 -258l308 -83q166 -61 166 -239z
" />
    <glyph glyph-name="sigma" unicode="&#x3c3;" horiz-adv-x="1160" 
d="M1145 893h-255q141 -183 141 -404q0 -151 -58 -268.5t-164 -181.5t-242 -64q-214 0 -346 144t-132 383q0 522 521 522h535v-131zM863 500q0 221 -121 393h-118q-366 0 -366 -398q0 -171 84 -275.5t225 -104.5q136 0 216 104t80 281z" />
    <glyph glyph-name="tau" unicode="&#x3c4;" horiz-adv-x="997" 
d="M965 893h-392v-620q0 -141 117 -141q56 0 107 19v-140q-66 -23 -137 -23q-249 0 -249 288v617h-141q-115 0 -236 -88v147q76 72 240 72h691v-131z" />
    <glyph glyph-name="upsilon" unicode="&#x3c5;" horiz-adv-x="1132" 
d="M174 711q0 95 -22 135.5t-75 40.5q-29 0 -57 -7v138q50 13 95 13q121 0 171 -72.5t50 -240.5v-257q0 -341 269 -341q128 0 198 88.5t70 249.5q0 299 -147 566h183q129 -251 129 -559q0 -226 -116 -358.5t-317 -132.5q-207 0 -319 118t-112 340v279z" />
    <glyph glyph-name="phi" unicode="&#x3c6;" horiz-adv-x="1416" 
d="M812 -24h-28v-457h-160v457h-22q-234 0 -375 144t-141 390q0 314 210 514h194q-236 -216 -236 -518q0 -181 94.5 -285.5t251.5 -104.5h24v661q6 271 280 271q190 0 306 -151t116 -397q0 -152 -64.5 -272.5t-181.5 -186t-268 -65.5zM784 116h28q155 0 250.5 107.5
t95.5 284.5q0 173 -72.5 286.5t-177.5 113.5q-124 0 -124 -129v-663z" />
    <glyph glyph-name="chi" unicode="&#x3c7;" horiz-adv-x="1102" 
d="M1095 -469q-41 -10 -93 -10q-92 0 -155 65.5t-140 240.5l-158 364l-352 -658h-185l454 824l-174 393q-66 149 -137 149q-50 0 -89 -16v156q33 10 107 10q87 0 140 -45.5t104 -166.5l140 -331l274 518h184l-375 -681l236 -523q68 -149 140 -149q35 0 79 14v-154z" />
    <glyph glyph-name="psi" unicode="&#x3c8;" horiz-adv-x="1536" 
d="M1384 557q0 -173 -64 -305t-182.5 -203.5t-271.5 -71.5h-24v-458h-148v458h-25q-237 0 -377 157.5t-140 421.5v468h166v-468q0 -190 99 -312.5t252 -122.5h25v1210h148v-1210h24q99 0 179.5 54t126.5 155t46 226v468h166v-467z" />
    <glyph glyph-name="omega" unicode="&#x3c9;" horiz-adv-x="1655" 
d="M1536 456q0 -223 -106.5 -351t-297.5 -128q-202 0 -303 191h-4q-104 -191 -305 -191q-189 0 -295 127.5t-106 351.5q0 257 126 568h183q-143 -321 -143 -574q0 -158 60.5 -243.5t170.5 -85.5q230 0 230 346v283h164v-283q0 -346 229 -346q108 0 169 84.5t61 244.5
q0 256 -142 574h182q127 -309 127 -568z" />
    <glyph glyph-name="iotadieresis" unicode="&#x3ca;" horiz-adv-x="546" 
d="M520 11q-63 -23 -121 -23q-232 0 -232 277v759h162v-754q0 -138 100 -138q44 0 91 19v-140zM566 1301q0 -41 -29 -69.5t-70 -28.5q-40 0 -69 28.5t-29 69.5q0 42 28 70t68 28q43 0 72 -29t29 -69zM181 1301q0 -41 -29 -69.5t-70 -28.5q-40 0 -70 28t-30 70q0 41 29 69.5
t69 28.5q43 0 72 -29t29 -69z" />
    <glyph glyph-name="upsilondieresis" unicode="&#x3cb;" horiz-adv-x="1132" 
d="M174 711q0 95 -22 135.5t-75 40.5q-29 0 -57 -7v138q50 13 95 13q121 0 171 -72.5t50 -240.5v-257q0 -341 269 -341q128 0 198 88.5t70 249.5q0 299 -147 566h183q129 -251 129 -559q0 -226 -116 -358.5t-317 -132.5q-207 0 -319 118t-112 340v279zM869 1301
q0 -41 -29 -69.5t-70 -28.5q-40 0 -69 28.5t-29 69.5q0 42 28 70t68 28q43 0 72 -29t29 -69zM484 1301q0 -41 -29 -69.5t-70 -28.5q-40 0 -70 28t-30 70q0 41 29 69.5t69 28.5q43 0 72 -29t29 -69z" />
    <glyph glyph-name="omicrontonos" unicode="&#x3cc;" horiz-adv-x="1184" 
d="M1096 516q0 -244 -138.5 -392.5t-371.5 -148.5q-227 0 -362.5 144.5t-135.5 380.5q0 254 139 401.5t383 147.5q228 0 357 -142.5t129 -390.5zM928 510q0 193 -85.5 296t-244.5 103q-158 0 -250 -105.5t-92 -297.5q0 -184 92.5 -287.5t249.5 -103.5q160 0 245 102t85 293z
M763 1537l-176 -363h-93l101 363h168z" />
    <glyph glyph-name="upsilontonos" unicode="&#x3cd;" horiz-adv-x="1132" 
d="M174 711q0 95 -22 135.5t-75 40.5q-29 0 -57 -7v138q50 13 95 13q121 0 171 -72.5t50 -240.5v-257q0 -341 269 -341q128 0 198 88.5t70 249.5q0 299 -147 566h183q129 -251 129 -559q0 -226 -116 -358.5t-317 -132.5q-207 0 -319 118t-112 340v279zM745 1537l-176 -363
h-93l101 363h168z" />
    <glyph glyph-name="omegatonos" unicode="&#x3ce;" horiz-adv-x="1655" 
d="M1536 456q0 -223 -106.5 -351t-297.5 -128q-202 0 -303 191h-4q-104 -191 -305 -191q-189 0 -295 127.5t-106 351.5q0 257 126 568h183q-143 -321 -143 -574q0 -158 60.5 -243.5t170.5 -85.5q230 0 230 346v283h164v-283q0 -346 229 -346q108 0 169 84.5t61 244.5
q0 256 -142 574h182q127 -309 127 -568zM980 1537l-176 -363h-93l101 363h168z" />
    <glyph glyph-name="uni0401" unicode="&#x401;" horiz-adv-x="1036" 
d="M948 0h-760v1434h727v-152h-559v-477h518v-152h-518v-501h592v-152zM848 1665q0 -41 -29 -69.5t-70 -28.5q-40 0 -69 28.5t-29 69.5q0 42 28 70t68 28q43 0 72 -29t29 -69zM463 1665q0 -41 -29 -69.5t-70 -28.5q-40 0 -70 28t-30 70q0 41 29 69.5t69 28.5q43 0 72 -29
t29 -69z" />
    <glyph glyph-name="uni0402" unicode="&#x402;" horiz-adv-x="1433" 
d="M1311 387q0 -195 -101 -300t-280 -105q-92 0 -164 24v154q64 -33 160 -33q97 0 155 70t58 188q0 140 -84.5 216.5t-237.5 76.5h-250v-678h-168v1282h-358v152h995v-152h-469v-457h254q230 0 360 -117t130 -321z" />
    <glyph glyph-name="uni0403" unicode="&#x403;" horiz-adv-x="952" 
d="M932 1282h-576v-1282h-168v1434h744v-152zM860 1894l-262 -327h-127l223 327h166z" />
    <glyph glyph-name="uni0404" unicode="&#x404;" horiz-adv-x="1265" 
d="M1157 59q-158 -84 -393 -84q-196 0 -349.5 89t-237 253t-83.5 373q0 224 88 400.5t248.5 272t362.5 95.5q211 0 364 -59v-178q-164 86 -366 86q-217 0 -355.5 -139.5t-161.5 -376.5h633v-152h-635q16 -236 151.5 -374t352.5 -138q225 0 381 96v-164z" />
    <glyph glyph-name="uni0405" unicode="&#x405;" horiz-adv-x="1018" 
d="M920 362q0 -181 -128 -284t-348 -103q-80 0 -180.5 26.5t-142.5 55.5v199q61 -55 160.5 -92t185.5 -37q276 0 276 215q0 90 -59 154.5t-242 169.5q-177 100 -248 190t-71 219q0 170 127 276.5t328 106.5q193 0 282 -51v-188q-112 88 -291 88q-119 0 -194.5 -59.5
t-75.5 -157.5q0 -71 22.5 -114t76 -85t180.5 -113q190 -106 266 -200t76 -216z" />
    <glyph glyph-name="uni0407" unicode="&#x407;" horiz-adv-x="545" 
d="M356 0h-168v1434h168v-1434zM571 1665q0 -41 -29 -69.5t-70 -28.5q-40 0 -69 28.5t-29 69.5q0 42 28 70t68 28q43 0 72 -29t29 -69zM186 1665q0 -41 -29 -69.5t-70 -28.5q-40 0 -70 28t-30 70q0 41 29 69.5t69 28.5q43 0 72 -29t29 -69z" />
    <glyph glyph-name="uni0409" unicode="&#x409;" horiz-adv-x="2009" 
d="M1735 418q0 256 -312 256h-235v-522h235q150 0 231 70t81 196zM1188 825h272q217 0 334 -104.5t117 -292.5q0 -196 -124.5 -312t-340.5 -116h-426v1282h-398q-46 -372 -91 -657.5t-87 -407.5t-113.5 -181t-177.5 -59q-82 0 -137 21v158q50 -29 113 -29q60 0 106.5 62
t78.5 190.5t78 420.5t90 634h706v-609z" />
    <glyph glyph-name="uni040A" unicode="&#x40a;" horiz-adv-x="2015" 
d="M1917 428q0 -197 -125.5 -312.5t-339.5 -115.5h-426v672h-670v-672h-168v1434h168v-611h670v611h168v-609h272q213 0 332 -102.5t119 -294.5zM1741 418q0 256 -311 256h-236v-522h236q149 0 230 70t81 196z" />
    <glyph glyph-name="uni040B" unicode="&#x40b;" horiz-adv-x="1480" 
d="M1354 0h-168v389q0 295 -285 295h-278v-684h-168v1282h-414v152h995v-152h-413v-451h280q451 0 451 -442v-389z" />
    <glyph glyph-name="uni040C" unicode="&#x40c;" horiz-adv-x="1188" 
d="M1186 0h-234l-555 655q-22 26 -37 52h-4v-707h-168v1434h168v-674h4l37 49l537 625h209l-615 -689zM922 1894l-262 -327h-127l223 327h166z" />
    <glyph glyph-name="uni040E" unicode="&#x40e;" horiz-adv-x="1162" 
d="M1174 1434l-443 -1001q-81 -182 -147 -271t-145 -138t-176 -49q-107 0 -179 31v170q85 -51 166 -51q80 0 148 61.5t148 221.5l-486 1026h191l344 -766l37 -93h2l360 859h180zM986 1871q-6 -68 -34.5 -124t-75.5 -96t-110.5 -62t-139.5 -22q-77 0 -140 21.5t-109 61
t-72.5 95.5t-30.5 126h161q3 -39 13.5 -73t33 -59.5t58 -40.5t88.5 -15q46 0 80.5 15.5t58.5 41.5t37.5 60t17.5 71h164z" />
    <glyph glyph-name="uni040F" unicode="&#x40f;" horiz-adv-x="1451" 
d="M1266 0h-464v-384h-154v384h-460v1434h168v-1282h742v1282h168v-1434z" />
    <glyph glyph-name="uni0410" unicode="&#x410;" horiz-adv-x="1321" 
d="M1298 0h-186l-151 401h-609l-143 -401h-186l548 1434h174zM905 553l-225 610q-8 22 -23 97h-4q-9 -63 -22 -97l-223 -610h497z" />
    <glyph glyph-name="uni0411" unicode="&#x411;" horiz-adv-x="1171" 
d="M1079 428q0 -197 -125.5 -312.5t-339.5 -115.5h-426v1434h766v-156h-598v-453h273q214 0 332 -103.5t118 -293.5zM903 418q0 256 -311 256h-236v-522h236q148 0 229.5 69t81.5 197z" />
    <glyph glyph-name="uni0412" unicode="&#x412;" horiz-adv-x="1174" 
d="M1071 412q0 -179 -130.5 -295.5t-334.5 -116.5h-418v1434h408q181 0 292 -89t111 -239q0 -120 -65.5 -210.5t-181.5 -129.5v-4q147 -18 233 -110.5t86 -239.5zM823 1073q0 209 -274 209h-193v-463h172q137 0 216 66t79 188zM895 414q0 254 -346 254h-193v-516h228
q148 0 229.5 70.5t81.5 191.5z" />
    <glyph glyph-name="uni0413" unicode="&#x413;" horiz-adv-x="952" 
d="M932 1282h-576v-1282h-168v1434h744v-152z" />
    <glyph glyph-name="uni0414" unicode="&#x414;" horiz-adv-x="1420" 
d="M1352 -385h-155v385h-1027v-385h-155v537h111q147 266 246.5 621.5t111.5 660.5h675v-1282h193v-537zM991 152v1130h-364q-8 -154 -58.5 -375t-120 -419.5t-140.5 -335.5h683z" />
    <glyph glyph-name="uni0415" unicode="&#x415;" horiz-adv-x="1036" 
d="M948 0h-760v1434h727v-152h-559v-477h518v-152h-518v-501h592v-152z" />
    <glyph glyph-name="uni0416" unicode="&#x416;" horiz-adv-x="1775" 
d="M1794 0h-225l-561 655q-24 27 -37 52h-4v-707h-160v707h-4q-10 -16 -19 -29t-579 -678h-228l658 743l-612 691h204l539 -621l37 -49h4v670h160v-670h4l37 49l538 621h205l-612 -691z" />
    <glyph glyph-name="uni0417" unicode="&#x417;" horiz-adv-x="1107" 
d="M993 406q0 -199 -140.5 -315t-381.5 -116q-243 0 -375 84v183q168 -123 381 -123q154 0 246 75t92 201q0 277 -373 277h-149v139h137q159 0 246.5 69.5t87.5 194.5q0 110 -73.5 174t-198.5 64q-179 0 -351 -113v170q158 88 365 88q201 0 319.5 -97t118.5 -255
q0 -278 -272 -352v-4q145 -16 233 -109t88 -235z" />
    <glyph glyph-name="uni0418" unicode="&#x418;" horiz-adv-x="1534" 
d="M188 1434h167v-1010q0 -149 -10 -211h4l22 38l754 1183h218v-1434h-168v1036q0 151 8 197h-6q-20 -50 -45 -90l-740 -1143h-204v1434z" />
    <glyph glyph-name="uni0419" unicode="&#x419;" horiz-adv-x="1534" 
d="M188 1434h167v-1010q0 -149 -10 -211h4l22 38l754 1183h218v-1434h-168v1036q0 151 8 197h-6q-20 -50 -45 -90l-740 -1143h-204v1434zM1129 1871q-6 -68 -34.5 -124t-75.5 -96t-110.5 -62t-139.5 -22q-77 0 -140 21.5t-109 61t-72.5 95.5t-30.5 126h161q3 -39 13.5 -73
t33 -59.5t58 -40.5t88.5 -15q46 0 80.5 15.5t58.5 41.5t37.5 60t17.5 71h164z" />
    <glyph glyph-name="uni041A" unicode="&#x41a;" horiz-adv-x="1188" 
d="M1186 0h-234l-555 655q-22 26 -37 52h-4v-707h-168v1434h168v-674h4l37 49l537 625h209l-615 -689z" />
    <glyph glyph-name="uni041B" unicode="&#x41b;" horiz-adv-x="1378" 
d="M1188 0h-168v1282h-398q-46 -372 -91 -657.5t-87 -407.5t-113.5 -181t-177.5 -59q-82 0 -137 21v158q50 -29 113 -29q60 0 106.5 62t78.5 190.5t78 420.5t90 634h706v-1434z" />
    <glyph glyph-name="uni041C" unicode="&#x41c;" horiz-adv-x="1839" 
d="M1651 0h-168v963q0 114 14 278h-4q-24 -97 -43 -139l-489 -1102h-82l-490 1094q-20 44 -43 147h-4q8 -86 8 -280v-961h-162v1434h222l440 -1000q50 -114 65 -172h7q50 138 69 176l449 996h211v-1434z" />
    <glyph glyph-name="uni041D" unicode="&#x41d;" horiz-adv-x="1454" 
d="M1266 0h-168v653h-742v-653h-168v1434h168v-629h742v629h168v-1434z" />
    <glyph glyph-name="uni041E" unicode="&#x41e;" horiz-adv-x="1544" 
d="M1450 735q0 -229 -83.5 -401.5t-240 -265.5t-360.5 -93q-197 0 -350.5 90.5t-237.5 257t-84 377.5q0 227 85 400t244 265.5t368 92.5q191 0 342.5 -91t234 -256t82.5 -376zM1274 713q0 280 -131 437t-365 157q-147 0 -263.5 -74.5t-180.5 -211.5t-64 -306
q0 -172 61.5 -306.5t175.5 -208t259 -73.5q238 0 373 156t135 430z" />
    <glyph glyph-name="uni041F" unicode="&#x41f;" horiz-adv-x="1451" 
d="M1266 0h-168v1284h-742v-1284h-168v1434h1078v-1434z" />
    <glyph glyph-name="uni0420" unicode="&#x420;" horiz-adv-x="1147" 
d="M1065 1006q0 -208 -143.5 -335.5t-376.5 -127.5h-189v-543h-168v1434h394q230 0 356.5 -112.5t126.5 -315.5zM889 997q0 285 -336 285h-197v-588h176q173 0 265 78.5t92 224.5z" />
    <glyph glyph-name="uni0421" unicode="&#x421;" horiz-adv-x="1268" 
d="M1163 59q-158 -84 -395 -84q-199 0 -353 89t-237.5 252.5t-83.5 373.5q0 219 93 395.5t261 274.5t377 98q203 0 338 -59v-178q-154 86 -340 86q-162 0 -288 -75t-195.5 -214t-69.5 -318q0 -170 65 -301t184 -201.5t272 -70.5q216 0 372 96v-164z" />
    <glyph glyph-name="uni0422" unicode="&#x422;" horiz-adv-x="1073" 
d="M1036 1282h-413v-1282h-168v1282h-414v152h995v-152z" />
    <glyph glyph-name="uni0423" unicode="&#x423;" horiz-adv-x="1162" 
d="M1174 1434l-443 -1001q-81 -182 -147 -271t-145 -138t-176 -49q-107 0 -179 31v170q85 -51 166 -51q80 0 148 61.5t148 221.5l-486 1026h191l344 -766l37 -93h2l360 859h180z" />
    <glyph glyph-name="uni0424" unicode="&#x424;" horiz-adv-x="1488" 
d="M1409 754q0 -155 -73 -286t-200.5 -205.5t-279.5 -74.5h-27v-198h-155v198h-27q-153 0 -280.5 74.5t-200 206t-72.5 285.5q0 149 72 274t200.5 195.5t282.5 70.5h25v181h155v-181h25q156 0 284 -69.5t199.5 -194.5t71.5 -276zM1233 752q0 182 -105.5 291.5t-273.5 109.5
h-25v-817h27q169 0 273 113t104 303zM674 336v817h-25q-167 0 -273 -111t-106 -290q0 -189 103 -302.5t274 -113.5h27z" />
    <glyph glyph-name="uni0425" unicode="&#x425;" horiz-adv-x="1208" 
d="M1178 0h-205l-330 549q-15 25 -33 72h-4l-35 -72l-340 -549h-204l479 721l-443 713h207l293 -504q28 -48 51 -101h4q29 61 56 105l305 500h192l-450 -711z" />
    <glyph glyph-name="uni0426" unicode="&#x426;" horiz-adv-x="1520" 
d="M1458 -385h-155v385h-1115v1434h168v-1282h742v1282h168v-1282h192v-537z" />
    <glyph glyph-name="uni0427" unicode="&#x427;" horiz-adv-x="1354" 
d="M1153 0h-168v615q-228 -91 -426 -91q-187 0 -290 97t-103 274v539h168v-531q0 -231 246 -231q177 0 405 80v682h168v-1434z" />
    <glyph glyph-name="uni0428" unicode="&#x428;" horiz-adv-x="1943" 
d="M1753 0h-1565v1434h168v-1282h531v1282h168v-1282h530v1282h168v-1434z" />
    <glyph glyph-name="uni0429" unicode="&#x429;" horiz-adv-x="2007" 
d="M1946 -385h-155v385h-1603v1434h168v-1282h531v1282h168v-1282h530v1282h168v-1282h193v-537z" />
    <glyph glyph-name="uni042A" unicode="&#x42a;" horiz-adv-x="1445" 
d="M1346 428q0 -197 -125.5 -312.5t-339.5 -115.5h-426v1280h-414v154h582v-609h272q216 0 333.5 -104t117.5 -293zM1169 418q0 256 -311 256h-235v-522h235q148 0 229.5 69t81.5 197z" />
    <glyph glyph-name="uni042B" unicode="&#x42b;" horiz-adv-x="1604" 
d="M1415 0h-168v1434h168v-1434zM1079 428q0 -197 -125.5 -312.5t-339.5 -115.5h-426v1434h168v-609h273q214 0 332 -103.5t118 -293.5zM903 418q0 256 -311 256h-236v-522h236q148 0 229.5 69t81.5 197z" />
    <glyph glyph-name="uni042C" unicode="&#x42c;" horiz-adv-x="1180" 
d="M1079 428q0 -197 -125.5 -312.5t-339.5 -115.5h-426v1434h168v-609h273q214 0 332 -103.5t118 -293.5zM903 418q0 256 -311 256h-236v-522h236q148 0 229.5 69t81.5 197z" />
    <glyph glyph-name="uni042D" unicode="&#x42d;" horiz-adv-x="1262" 
d="M1167 696q0 -209 -85 -374.5t-238.5 -256t-349.5 -90.5q-231 0 -390 84v164q157 -96 381 -96q217 0 352.5 138t151.5 374h-655v152h653q-26 242 -162.5 379t-351.5 137q-202 0 -369 -86v176q153 61 369 61q205 0 363.5 -95t244.5 -269t86 -398z" />
    <glyph glyph-name="uni042E" unicode="&#x42e;" horiz-adv-x="2086" 
d="M1991 735q0 -231 -80 -403.5t-230 -264.5t-350 -92q-186 0 -330 85.5t-225 244t-86 365.5h-334v-670h-168v1434h168v-613h340q30 300 206.5 468.5t453.5 168.5q188 0 333 -90t223.5 -255.5t78.5 -377.5zM1815 713q0 284 -121.5 439t-343.5 155q-226 0 -355 -155.5
t-129 -430.5q0 -280 121.5 -437t343.5 -157q231 0 357.5 153t126.5 433z" />
    <glyph glyph-name="uni042F" unicode="&#x42f;" horiz-adv-x="1210" 
d="M1021 0h-168v610h-209q-64 0 -108.5 -35t-94.5 -143l-180 -432h-200l218 479q71 140 166 174v4q-142 30 -222 130t-80 243q0 182 127 293t335 111h416v-1434zM853 762v520h-233q-140 0 -219.5 -66t-79.5 -190q0 -123 80 -193.5t215 -70.5h237z" />
    <glyph glyph-name="uni0430" unicode="&#x430;" horiz-adv-x="1034" 
d="M891 0h-164v160h-4q-107 -185 -315 -185q-148 0 -237 80.5t-89 216.5q0 286 338 334l307 43q0 260 -211 260q-185 0 -334 -125v168q45 34 154 65.5t194 31.5q361 0 361 -383v-666zM727 518l-248 -35q-127 -18 -178 -60.5t-51 -137.5q0 -77 55 -123.5t141 -46.5
q122 0 201.5 86t79.5 215v102z" />
    <glyph glyph-name="uni0431" unicode="&#x431;" horiz-adv-x="1169" 
d="M1079 496q0 -154 -59.5 -273.5t-168 -183.5t-249.5 -64q-236 0 -363.5 168t-127.5 480q0 613 299 757q53 25 123.5 42t145 32t146 31.5t125.5 42.5v-154q-47 -25 -111 -39t-131.5 -25t-131 -24.5t-109.5 -38.5q-157 -84 -184 -420h4q53 82 146 128t196 46
q133 0 235.5 -62.5t158.5 -179t56 -263.5zM911 479q0 176 -86 279.5t-233 103.5q-206 0 -311 -196l-2 -95q0 -209 87 -332.5t240 -123.5q135 0 220 101t85 263z" />
    <glyph glyph-name="uni0432" unicode="&#x432;" horiz-adv-x="1077" 
d="M977 295q0 -124 -97 -209.5t-239 -85.5h-475v1024h446q152 0 239 -67.5t87 -182.5q0 -198 -197 -242q236 -30 236 -237zM774 750q0 135 -178 135h-266v-289h245q199 0 199 154zM813 301q0 156 -223 156h-260v-318h284q199 0 199 162z" />
    <glyph glyph-name="uni0433" unicode="&#x433;" horiz-adv-x="785" 
d="M735 885h-405v-885h-164v1024h569v-139z" />
    <glyph glyph-name="uni0434" unicode="&#x434;" horiz-adv-x="1120" 
d="M1059 -373h-139v373h-762v-373h-140v512h91q261 377 266 885h532v-885h152v-512zM743 139v746h-227q-27 -414 -233 -746h460z" />
    <glyph glyph-name="uni0435" unicode="&#x435;" horiz-adv-x="1055" 
d="M981 471h-723q4 -173 91.5 -264.5t242.5 -91.5q174 0 317 112v-153q-134 -99 -356 -99q-219 0 -342 141.5t-123 391.5q0 152 61.5 277.5t169.5 194.5t240 69q199 0 310.5 -129.5t111.5 -362.5v-86zM813 610q-2 142 -68.5 220.5t-187.5 78.5q-114 0 -195 -82t-102 -217
h553z" />
    <glyph glyph-name="uni0436" unicode="&#x436;" horiz-adv-x="1528" 
d="M1526 0h-221l-459 506h-4v-506h-156v506h-4l-459 -506h-219l508 528l-477 496h209l438 -479h4v479h156v-479h4l438 479h211l-479 -496z" />
    <glyph glyph-name="uni0437" unicode="&#x437;" horiz-adv-x="913" 
d="M827 281q0 -142 -115 -224t-309 -82q-211 0 -323 54v161q133 -75 313 -75q271 0 271 172q0 170 -297 170h-101v139h96q261 0 261 162q0 69 -59.5 110t-164.5 41q-149 0 -299 -75v153q171 62 312 62q374 0 374 -275q0 -91 -57 -155.5t-154 -83.5v-5q115 -10 183.5 -78
t68.5 -171z" />
    <glyph glyph-name="uni0438" unicode="&#x438;" horiz-adv-x="1190" 
d="M1024 0h-147v817q-19 -37 -68 -121l-473 -696h-170v1024h149v-807l54 98l485 709h170v-1024z" />
    <glyph glyph-name="uni0439" unicode="&#x439;" horiz-adv-x="1190" 
d="M1024 0h-147v817q-19 -37 -68 -121l-473 -696h-170v1024h149v-807l54 98l485 709h170v-1024zM964 1522q-6 -68 -34.5 -124t-75.5 -96t-110.5 -62t-139.5 -22q-77 0 -140 21.5t-109 61t-72.5 95.5t-30.5 126h161q3 -39 13.5 -73t33 -59.5t58 -40.5t88.5 -15
q46 0 80.5 15.5t58.5 41.5t37.5 60t17.5 71h164z" />
    <glyph glyph-name="uni043A" unicode="&#x43a;" horiz-adv-x="1014" 
d="M1012 0h-228l-450 489h-4v-489h-164v1024h164v-467h4l430 467h217l-477 -496z" />
    <glyph glyph-name="uni043B" unicode="&#x43b;" horiz-adv-x="1079" 
d="M913 0h-163v885h-238q-39 -472 -134.5 -685.5t-273.5 -213.5q-49 0 -88 14v141q34 -18 76 -18q220 0 283 901h538v-1024z" />
    <glyph glyph-name="uni043C" unicode="&#x43c;" horiz-adv-x="1438" 
d="M1272 0h-162v844l-68 -189l-256 -655h-147l-264 655q-24 56 -68 189v-844h-141v1024h209l270 -668q29 -73 74 -202l74 198l262 672h217v-1024z" />
    <glyph glyph-name="uni043D" unicode="&#x43d;" horiz-adv-x="1182" 
d="M1016 0h-164v465h-522v-465h-164v1024h164v-420h522v420h164v-1024z" />
    <glyph glyph-name="uni043E" unicode="&#x43e;" horiz-adv-x="1184" 
d="M1096 516q0 -244 -138.5 -392.5t-371.5 -148.5q-227 0 -362.5 144.5t-135.5 380.5q0 254 139 401.5t383 147.5q228 0 357 -142.5t129 -390.5zM928 510q0 193 -85.5 296t-244.5 103q-158 0 -250 -105.5t-92 -297.5q0 -184 92.5 -287.5t249.5 -103.5q160 0 245 102t85 293z
" />
    <glyph glyph-name="uni043F" unicode="&#x43f;" horiz-adv-x="1182" 
d="M1016 0h-164v885h-522v-885h-164v1024h850v-1024z" />
    <glyph glyph-name="uni0440" unicode="&#x440;" horiz-adv-x="1196" 
d="M1108 543q0 -260 -127 -414t-340 -154q-202 0 -307 172h-4v-618h-164v1495h164v-180h4q121 205 354 205q192 0 306 -136t114 -370zM940 545q0 166 -78 265t-215 99q-141 0 -229 -98t-88 -250v-143q0 -129 84.5 -216t208.5 -87q148 0 232.5 114t84.5 316z" />
    <glyph glyph-name="uni0441" unicode="&#x441;" horiz-adv-x="938" 
d="M856 47q-119 -72 -281 -72q-140 0 -251.5 64.5t-173.5 182.5t-62 265q0 254 145.5 408t387.5 154q134 0 237 -52v-168q-115 80 -244 80q-159 0 -258.5 -113.5t-99.5 -293.5q0 -179 94.5 -283t253.5 -104q134 0 252 88v-156z" />
    <glyph glyph-name="uni0442" unicode="&#x442;" horiz-adv-x="840" 
d="M809 885h-307v-885h-164v885h-307v139h778v-139z" />
    <glyph glyph-name="uni0443" unicode="&#x443;" horiz-adv-x="991" 
d="M981 1024l-471 -1188q-126 -317 -354 -317q-64 0 -107 12v147q52 -18 96 -18q125 0 187 147l82 195l-400 1022h183l276 -788l21 -78h6q4 22 20 75l291 791h170z" />
    <glyph glyph-name="uni0444" unicode="&#x444;" horiz-adv-x="1389" 
d="M1300 500q0 -232 -136.5 -378.5t-360.5 -146.5h-35v-456h-147v456h-33q-222 0 -361 145t-139 380q0 247 140 398t368 151h25v409h147v-409h23q230 0 369.5 -149t139.5 -400zM1133 506q0 188 -91.5 295.5t-246.5 107.5h-27v-794h23q155 0 248.5 105.5t93.5 285.5zM621 115
v794h-25q-155 0 -247.5 -107t-92.5 -296q0 -180 94.5 -285.5t249.5 -105.5h21z" />
    <glyph glyph-name="uni0445" unicode="&#x445;" horiz-adv-x="940" 
d="M913 1024l-344 -518l338 -506h-190l-201 332l-45 78h-4l-252 -410h-188l348 502l-334 522h190q215 -378 242 -430h4l256 430h180z" />
    <glyph glyph-name="uni0446" unicode="&#x446;" horiz-adv-x="1229" 
d="M1167 -373h-141v373h-860v1024h164v-885h522v885h164v-885h151v-512z" />
    <glyph glyph-name="uni0447" unicode="&#x447;" horiz-adv-x="1157" 
d="M991 0h-164v412q-179 -99 -331 -99q-344 0 -344 365v346h163v-338q0 -225 195 -225q147 0 317 86v477h164v-1024z" />
    <glyph glyph-name="uni0448" unicode="&#x448;" horiz-adv-x="1638" 
d="M1473 0h-1307v1024h164v-885h407v885h164v-885h408v885h164v-1024z" />
    <glyph glyph-name="uni0449" unicode="&#x449;" horiz-adv-x="1688" 
d="M1626 -373h-143v373h-1317v1024h164v-885h407v885h164v-885h408v885h164v-885h153v-512z" />
    <glyph glyph-name="uni044A" unicode="&#x44a;" horiz-adv-x="1201" 
d="M1124 319q0 -143 -92 -231t-235 -88h-455v885h-311v139h475v-393h276q159 0 250.5 -82.5t91.5 -229.5zM956 319q0 170 -206 170h-244v-350h246q204 0 204 180z" />
    <glyph glyph-name="uni044B" unicode="&#x44b;" horiz-adv-x="1453" 
d="M1286 0h-162v1024h162v-1024zM948 319q0 -141 -91.5 -230t-235.5 -89h-455v1024h164v-393h276q159 0 250.5 -82.5t91.5 -229.5zM780 319q0 170 -207 170h-243v-350h245q205 0 205 180z" />
    <glyph glyph-name="uni044C" unicode="&#x44c;" horiz-adv-x="1024" 
d="M948 319q0 -141 -91.5 -230t-235.5 -89h-455v1024h164v-393h276q159 0 250.5 -82.5t91.5 -229.5zM780 319q0 170 -207 170h-243v-350h245q205 0 205 180z" />
    <glyph glyph-name="uni044D" unicode="&#x44d;" horiz-adv-x="938" 
d="M850 504q0 -241 -135.5 -385t-360.5 -144q-157 0 -272 70v156q116 -86 266 -86q145 0 234.5 90t97.5 241h-436v140h436q-13 153 -100.5 238t-237.5 85q-143 0 -248 -78v162q107 56 250 56q241 0 373.5 -143t132.5 -402z" />
    <glyph glyph-name="uni044E" unicode="&#x44e;" horiz-adv-x="1657" 
d="M1567 516q0 -248 -131 -394.5t-355 -146.5q-212 0 -332 130.5t-128 359.5h-291v-465h-164v1024h164v-420h293q24 209 153 327t330 118q221 0 341 -140t120 -393zM1399 510q0 399 -307 399q-306 0 -306 -399q0 -395 310 -395q303 0 303 395z" />
    <glyph glyph-name="uni044F" unicode="&#x44f;" horiz-adv-x="1022" 
d="M858 0h-164v424h-137q-99 0 -180 -160l-133 -264h-191l172 315q61 112 146 146q-117 15 -181.5 86t-64.5 182q0 138 100 216.5t275 78.5h358v-1024zM694 561v324h-194q-207 0 -207 -158q0 -166 201 -166h200z" />
    <glyph glyph-name="uni0451" unicode="&#x451;" horiz-adv-x="1055" 
d="M981 471h-723q4 -173 91.5 -264.5t242.5 -91.5q174 0 317 112v-153q-134 -99 -356 -99q-219 0 -342 141.5t-123 391.5q0 152 61.5 277.5t169.5 194.5t240 69q199 0 310.5 -129.5t111.5 -362.5v-86zM813 610q-2 142 -68.5 220.5t-187.5 78.5q-114 0 -195 -82t-102 -217
h553zM836 1317q0 -41 -29 -69.5t-70 -28.5q-40 0 -69 28.5t-29 69.5q0 42 28 70t68 28q43 0 72 -29t29 -69zM451 1317q0 -41 -29 -69.5t-70 -28.5q-40 0 -70 28t-30 70q0 41 29 69.5t69 28.5q43 0 72 -29t29 -69z" />
    <glyph glyph-name="uni0452" unicode="&#x452;" horiz-adv-x="1173" 
d="M1044 389q0 -418 -108.5 -610.5t-343.5 -192.5q-60 0 -123 25v158q67 -37 125 -37q149 0 217 155t68 500q0 496 -263 496q-116 0 -198 -95t-82 -231v-557h-164v1202h-133v133h133v181h164v-181h334v-133h-334v-375h4q105 195 315 195q389 0 389 -633z" />
    <glyph glyph-name="uni0453" unicode="&#x453;" horiz-adv-x="785" 
d="M735 885h-405v-885h-164v1024h569v-139zM672 1546l-262 -327h-127l223 327h166z" />
    <glyph glyph-name="uni0454" unicode="&#x454;" horiz-adv-x="938" 
d="M856 45q-115 -70 -274 -70q-228 0 -361 142.5t-133 380.5q0 255 137.5 403t380.5 148q137 0 240 -52v-161q-100 73 -246 73q-147 0 -237.5 -86.5t-104.5 -236.5h436v-140h-438q8 -153 97 -242t237 -89q144 0 266 90v-160z" />
    <glyph glyph-name="uni0455" unicode="&#x455;" horiz-adv-x="799" 
d="M725 274q0 -133 -102.5 -216t-272.5 -83q-145 0 -254 62v176q121 -98 266 -98q195 0 195 143q0 58 -38 94.5t-173 98.5q-136 58 -192 124.5t-56 176.5q0 127 102 212t259 85q121 0 219 -48v-165q-100 73 -232 73q-81 0 -130.5 -40t-49.5 -103q0 -68 38 -104.5t157 -86.5
q146 -62 205 -130t59 -171z" />
    <glyph glyph-name="uni0457" unicode="&#x457;" horiz-adv-x="496" 
d="M330 0h-164v1024h164v-1024zM541 1317q0 -41 -29 -69.5t-70 -28.5q-40 0 -69 28.5t-29 69.5q0 42 28 70t68 28q43 0 72 -29t29 -69zM156 1317q0 -41 -29 -69.5t-70 -28.5q-40 0 -70 28t-30 70q0 41 29 69.5t69 28.5q43 0 72 -29t29 -69z" />
    <glyph glyph-name="uni0459" unicode="&#x459;" horiz-adv-x="1618" 
d="M1532 319q0 -141 -91.5 -230t-236.5 -89h-454v885h-238q-39 -472 -134.5 -685.5t-273.5 -213.5q-49 0 -88 14v141q34 -18 76 -18q220 0 283 901h538v-393h277q158 0 250 -82.5t92 -229.5zM1364 319q0 170 -207 170h-244v-350h246q205 0 205 180z" />
    <glyph glyph-name="uni045A" unicode="&#x45a;" horiz-adv-x="1643" 
d="M1556 313q0 -141 -90.5 -227t-236.5 -86h-455v477h-444v-477h-164v1024h164v-406h444v406h164v-406h276q164 0 253 -79.5t89 -225.5zM1389 313q0 164 -207 164h-244v-338h246q205 0 205 174z" />
    <glyph glyph-name="uni045B" unicode="&#x45b;" horiz-adv-x="1163" 
d="M1022 0h-164v563q0 322 -235 322q-127 0 -207 -96.5t-80 -239.5v-549h-164v1202h-133v133h133v181h164v-181h334v-133h-334v-373h4q118 195 336 195q346 0 346 -418v-606z" />
    <glyph glyph-name="uni045C" unicode="&#x45c;" horiz-adv-x="1014" 
d="M1012 0h-228l-450 489h-4v-489h-164v1024h164v-467h4l430 467h217l-477 -496zM811 1546l-262 -327h-127l223 327h166z" />
    <glyph glyph-name="uni045E" unicode="&#x45e;" horiz-adv-x="991" 
d="M981 1024l-471 -1188q-126 -317 -354 -317q-64 0 -107 12v147q52 -18 96 -18q125 0 187 147l82 195l-400 1022h183l276 -788l21 -78h6q4 22 20 75l291 791h170zM866 1522q-6 -68 -34.5 -124t-75.5 -96t-110.5 -62t-139.5 -22q-77 0 -140 21.5t-109 61t-72.5 95.5
t-30.5 126h161q3 -39 13.5 -73t33 -59.5t58 -40.5t88.5 -15q46 0 80.5 15.5t58.5 41.5t37.5 60t17.5 71h164z" />
    <glyph glyph-name="uni045F" unicode="&#x45f;" horiz-adv-x="1182" 
d="M1016 0h-354v-373h-142v373h-354v1024h164v-885h522v885h164v-1024z" />
    <glyph glyph-name="uni0490" unicode="&#x490;" horiz-adv-x="961" 
d="M932 1282h-576v-1282h-168v1434h600v264h144v-416z" />
    <glyph glyph-name="uni0491" unicode="&#x491;" horiz-adv-x="799" 
d="M741 885h-411v-885h-164v1024h432v270h143v-409z" />
    <glyph glyph-name="Wgrave" unicode="&#x1e80;" horiz-adv-x="1913" 
d="M1888 1434l-405 -1434h-197l-295 1049q-17 59 -22 145h-4q-8 -74 -27 -143l-297 -1051h-195l-419 1434h184l305 -1100q19 -73 25 -144h4q5 61 30 144l318 1100h162l303 -1108q17 -62 24 -133h4q5 52 27 137l293 1104h182zM1143 1567h-127l-262 327h168z" />
    <glyph glyph-name="wgrave" unicode="&#x1e81;" horiz-adv-x="1481" 
d="M1456 1024l-307 -1024h-170l-211 733q-11 38 -16 94h-4q-3 -35 -21 -92l-229 -735h-164l-309 1024h172l211 -770q10 -40 14 -92h8q2 38 19 94l235 768h150l213 -772q10 -39 14 -92h8q2 48 16 92l209 772h162zM907 1219h-127l-262 327h168z" />
    <glyph glyph-name="Wacute" unicode="&#x1e82;" horiz-adv-x="1913" 
d="M1888 1434l-405 -1434h-197l-295 1049q-17 59 -22 145h-4q-8 -74 -27 -143l-297 -1051h-195l-419 1434h184l305 -1100q19 -73 25 -144h4q5 61 30 144l318 1100h162l303 -1108q17 -62 24 -133h4q5 52 27 137l293 1104h182zM1186 1894l-262 -327h-127l223 327h166z" />
    <glyph glyph-name="wacute" unicode="&#x1e83;" horiz-adv-x="1481" 
d="M1456 1024l-307 -1024h-170l-211 733q-11 38 -16 94h-4q-3 -35 -21 -92l-229 -735h-164l-309 1024h172l211 -770q10 -40 14 -92h8q2 38 19 94l235 768h150l213 -772q10 -39 14 -92h8q2 48 16 92l209 772h162zM976 1546l-262 -327h-127l223 327h166z" />
    <glyph glyph-name="Wdieresis" unicode="&#x1e84;" horiz-adv-x="1913" 
d="M1888 1434l-405 -1434h-197l-295 1049q-17 59 -22 145h-4q-8 -74 -27 -143l-297 -1051h-195l-419 1434h184l305 -1100q19 -73 25 -144h4q5 61 30 144l318 1100h162l303 -1108q17 -62 24 -133h4q5 52 27 137l293 1104h182zM1264 1665q0 -41 -29 -69.5t-70 -28.5
q-40 0 -69 28.5t-29 69.5q0 42 28 70t68 28q43 0 72 -29t29 -69zM879 1665q0 -41 -29 -69.5t-70 -28.5q-40 0 -70 28t-30 70q0 41 29 69.5t69 28.5q43 0 72 -29t29 -69z" />
    <glyph glyph-name="wdieresis" unicode="&#x1e85;" horiz-adv-x="1481" 
d="M1456 1024l-307 -1024h-170l-211 733q-11 38 -16 94h-4q-3 -35 -21 -92l-229 -735h-164l-309 1024h172l211 -770q10 -40 14 -92h8q2 38 19 94l235 768h150l213 -772q10 -39 14 -92h8q2 48 16 92l209 772h162zM1051 1317q0 -41 -29 -69.5t-70 -28.5q-40 0 -69 28.5
t-29 69.5q0 42 28 70t68 28q43 0 72 -29t29 -69zM666 1317q0 -41 -29 -69.5t-70 -28.5q-40 0 -70 28t-30 70q0 41 29 69.5t69 28.5q43 0 72 -29t29 -69z" />
    <glyph glyph-name="Ygrave" unicode="&#x1ef2;" horiz-adv-x="1133" 
d="M1120 1434l-473 -904v-530h-168v526l-461 908h191l321 -648l35 -88h2q10 33 39 88l336 648h178zM717 1567h-127l-262 327h168z" />
    <glyph glyph-name="ygrave" unicode="&#x1ef3;" horiz-adv-x="991" 
d="M981 1024l-471 -1188q-126 -317 -354 -317q-64 0 -107 12v147q52 -18 96 -18q125 0 187 147l82 195l-400 1022h183l276 -788l21 -78h6q4 22 20 75l291 791h170zM629 1219h-127l-262 327h168z" />
    <glyph glyph-name="uni2015" unicode="&#x2015;" horiz-adv-x="2048" 
d="M2048 506h-2048v129h2048v-129z" />
    <glyph glyph-name="underscoredbl" unicode="&#x2017;" horiz-adv-x="850" 
d="M0 -297v119h850v-119h-850zM0 -578v119h850v-119h-850z" />
    <glyph glyph-name="quotereversed" unicode="&#x201b;" horiz-adv-x="469" 
d="M369 1012h-117l-141 446h147z" />
    <glyph glyph-name="minute" unicode="&#x2032;" horiz-adv-x="469" 
d="M351 1434l-106 -447h-114l84 447h136z" />
    <glyph glyph-name="second" unicode="&#x2033;" horiz-adv-x="772" 
d="M643 1434l-105 -447h-116l86 447h135zM361 1434l-105 -447h-115l85 447h135z" />
    <glyph glyph-name="exclamdbl" unicode="&#x203c;" horiz-adv-x="983" 
d="M375 1434v-1031h-154v1031h154zM401 92q0 -46 -32.5 -78t-77.5 -32q-47 0 -79 32t-32 78q0 45 33 78t78 33q44 0 77 -33t33 -78zM776 1434v-1031h-154v1031h154zM802 92q0 -46 -32.5 -78t-77.5 -32q-47 0 -79 32t-32 78q0 45 33 78t78 33q44 0 77 -33t33 -78z" />
    <glyph glyph-name="uni203E" unicode="&#x203e;" horiz-adv-x="850" 
d="M850 1397h-850v119h850v-119z" />
    <glyph glyph-name="uni207F" unicode="&#x207f;" horiz-adv-x="803" 
d="M239 717h-129v719h129v-115h4q27 61 85 98t124 37q121 0 187.5 -73.5t66.5 -206.5v-459h-129v450q0 176 -152 176q-75 0 -130.5 -61t-55.5 -143v-422z" />
    <glyph glyph-name="franc" unicode="&#x20a3;" horiz-adv-x="999" 
d="M600 279h-244v-279h-168v279h-159v155h159v1000h727v-152h-559v-496h518v-151h-518v-201h244v-155z" />
    <glyph glyph-name="lira" unicode="&#x20a4;" 
d="M784 487h-297v-8q0 -243 -192 -340h711v-139h-900v135q218 71 218 314v38h-197v142h197v135h-197v141h197v125q0 189 110.5 308.5t280.5 119.5q117 0 213 -41v-155q-99 57 -211 57q-230 0 -230 -307v-107h297v-141h-297v-135h297v-142z" />
    <glyph glyph-name="peseta" unicode="&#x20a7;" horiz-adv-x="2273" 
d="M963 1006q0 -213 -135 -338t-365 -125h-107v-543h-168v1434h312q463 0 463 -428zM786 997q0 285 -315 285h-115v-588h95q335 0 335 303zM1552 10q-59 -33 -153 -33q-132 0 -190 71.5t-58 230.5v462h-156v140h156v249l164 54v-303h237v-140h-237v-434q0 -190 131 -190
q59 0 106 33v-140zM2208 244q0 -125 -89 -197t-241 -72q-161 0 -258 62v176q122 -98 258 -98q162 0 162 112q0 84 -109 132l-201 82q-108 61 -108 177t91.5 191.5t238.5 75.5q129 0 209 -47v-160q-95 67 -211 67q-72 0 -116 -30.5t-44 -81.5q0 -59 108 -102q169 -68 201 -89
q109 -72 109 -198z" />
    <glyph glyph-name="uni2105" unicode="&#x2105;" horiz-adv-x="1646" 
d="M1550 428q0 -119 -52.5 -223.5t-141.5 -164.5t-192 -60q-135 0 -213 79.5t-78 216.5q0 116 53 219.5t144 164.5t197 61q131 0 207 -79t76 -214zM1525 1434l-1228 -1434h-147l1228 1434h147zM1415 423q0 186 -150 186q-67 0 -127 -47t-95 -124t-35 -163q0 -184 159 -184
q102 0 175 98.5t73 233.5zM759 1271q-80 68 -169 68q-111 0 -186 -94t-75 -229q0 -188 154 -188q86 0 204 79l-30 -141q-104 -53 -195 -53q-126 0 -198 78.5t-72 215.5q0 125 53 228.5t147.5 161t211.5 57.5q113 0 187 -50z" />
    <glyph glyph-name="uni2113" unicode="&#x2113;" horiz-adv-x="662" 
d="M3 453l190 224v435q0 207 58.5 293t178.5 86q99 0 157 -56.5t58 -155.5q0 -107 -81 -245t-279 -372v-399q0 -107 31.5 -155.5t101.5 -48.5q79 0 198 106v-99q-52 -43 -104.5 -67t-120.5 -24q-100 0 -149 68t-49 220v291l-130 -155zM285 785q129 152 199.5 272.5
t70.5 219.5q0 64 -34 98.5t-91 34.5q-74 0 -109.5 -66t-35.5 -236v-323z" />
    <glyph glyph-name="uni2116" unicode="&#x2116;" horiz-adv-x="2297" 
d="M2202 1036q0 -199 -102.5 -315.5t-278.5 -116.5q-174 0 -272.5 110.5t-98.5 307.5q0 209 100 320.5t289 111.5q174 0 268.5 -108t94.5 -310zM2171 317h-690v134h690v-134zM1266 0h-201l-674 1137q-32 55 -45 94h-6q8 -52 8 -201v-1030h-160v1434h212l653 -1119
q24 -37 57 -109h4q-8 64 -8 224v1004h160v-1434zM2048 1028q0 291 -217 291q-109 0 -169 -76t-60 -217q0 -287 225 -287q221 0 221 289z" />
    <glyph glyph-name="estimated" unicode="&#x212e;" horiz-adv-x="1229" 
d="M1144 530h-828l1 -370q120 -121 296 -121q255 0 396 246l71 -43q-103 -148 -209.5 -212.5t-256.5 -64.5q-153 0 -274.5 73.5t-188 203.5t-66.5 288q0 163 66 293t187 201.5t273 71.5q233 0 376.5 -152t156.5 -414zM912 604v297q-131 123 -303 123q-175 0 -293 -123v-297
h596z" />
    <glyph glyph-name="oneeighth" unicode="&#x215b;" horiz-adv-x="1710" 
d="M629 584h-504v112h184v594l-192 -55v125l323 96v-760h189v-112zM489 0h-147l876 1434h146zM1503 449q164 -74 164 -225q0 -115 -84 -179.5t-229 -64.5q-127 0 -210 66t-83 170q0 154 164 231q-133 76 -133 201q0 100 77 161.5t207 61.5q115 0 189 -57.5t74 -153.5
q0 -136 -136 -211zM1368 752q-63 0 -100 -28.5t-37 -71.5q0 -87 133 -141q137 54 137 139q0 102 -133 102zM1358 390q-158 -53 -158 -168q0 -52 46.5 -87.5t119.5 -35.5q68 0 115 35t47 84q0 113 -170 172z" />
    <glyph glyph-name="threeeighths" unicode="&#x215c;" horiz-adv-x="1710" 
d="M600 827q0 -118 -86 -191t-225 -73q-136 0 -213 53v142q101 -76 217 -76q82 0 127 39t45 100q0 142 -219 142h-84v116h80q196 0 196 135q0 119 -143 119q-96 0 -186 -69v139q88 51 213 51q111 0 179 -59.5t68 -155.5q0 -153 -145 -205v-4q176 -44 176 -203zM489 0h-147
l876 1434h146zM1503 449q164 -74 164 -225q0 -115 -84 -179.5t-229 -64.5q-127 0 -210 66t-83 170q0 154 164 231q-133 76 -133 201q0 100 77 161.5t207 61.5q115 0 189 -57.5t74 -153.5q0 -136 -136 -211zM1368 752q-63 0 -100 -28.5t-37 -71.5q0 -87 133 -141
q137 54 137 139q0 102 -133 102zM1358 390q-158 -53 -158 -168q0 -52 46.5 -87.5t119.5 -35.5q68 0 115 35t47 84q0 113 -170 172z" />
    <glyph glyph-name="fiveeighths" unicode="&#x215d;" horiz-adv-x="1710" 
d="M285 559q-124 0 -197 43v146q111 -70 199 -70q87 0 136.5 43.5t49.5 116.5q0 83 -58 117t-173 34q-55 0 -111 -6l-16 -2v453h456v-123h-329v-201h59q144 0 226.5 -70t82.5 -196q0 -132 -89 -208.5t-236 -76.5zM489 0h-147l876 1434h146zM1503 449q164 -74 164 -225
q0 -115 -84 -179.5t-229 -64.5q-127 0 -210 66t-83 170q0 154 164 231q-133 76 -133 201q0 100 77 161.5t207 61.5q115 0 189 -57.5t74 -153.5q0 -136 -136 -211zM1368 752q-63 0 -100 -28.5t-37 -71.5q0 -87 133 -141q137 54 137 139q0 102 -133 102zM1358 390
q-158 -53 -158 -168q0 -52 46.5 -87.5t119.5 -35.5q68 0 115 35t47 84q0 113 -170 172z" />
    <glyph glyph-name="seveneighths" unicode="&#x215e;" horiz-adv-x="1710" 
d="M309 573h-155l323 727h-416v134h594v-54zM366 0h-147l876 1434h146zM1410 449q164 -74 164 -225q0 -115 -84 -179.5t-229 -64.5q-127 0 -210 66t-83 170q0 154 164 231q-133 76 -133 201q0 100 77 161.5t207 61.5q115 0 189 -57.5t74 -153.5q0 -136 -136 -211zM1275 752
q-63 0 -100 -28.5t-37 -71.5q0 -87 133 -141q137 54 137 139q0 102 -133 102zM1265 390q-158 -53 -158 -168q0 -52 46.5 -87.5t119.5 -35.5q68 0 115 35t47 84q0 113 -170 172z" />
    <glyph glyph-name="H22073" unicode="&#x25a1;" horiz-adv-x="1237" 
d="M145 944h945v-944h-945v944zM221 868v-792h793v792h-793z" />
    <glyph glyph-name="H18543" unicode="&#x25aa;" horiz-adv-x="725" 
d="M594 907v-463h-463v463h463z" />
    <glyph glyph-name="H18551" unicode="&#x25ab;" horiz-adv-x="725" 
d="M594 907v-463h-463v463h463zM518 831h-311v-311h311v311z" />
    <glyph glyph-name="H18533" unicode="&#x25cf;" horiz-adv-x="1237" 
d="M618 1018q115 0 218 -60t163 -162t60 -218q0 -118 -59.5 -221.5t-160.5 -161.5t-218 -58q-119 0 -222 59t-162 161.5t-59 220.5q0 116 59.5 218.5t162 162t218.5 59.5z" />
    <glyph glyph-name="openbullet" unicode="&#x25e6;" horiz-adv-x="725" 
d="M363 928q101 0 176 -73.5t75 -176.5q0 -104 -73 -178t-178 -74q-104 0 -177.5 75t-73.5 177t74 176t177 74zM362 852q-71 0 -122.5 -51t-51.5 -123q0 -74 51.5 -125t124.5 -51q72 0 123 51.5t51 124.5q0 70 -51 122t-125 52z" />
    <glyph glyph-name="glyph573" horiz-adv-x="842" 
d="M565 1395l-166 -260h-123l117 260h172z" />
    <glyph glyph-name="glyph574" horiz-adv-x="799" 
d="M508 -119l-166 -260h-123l117 260h172z" />
    <glyph glyph-name="uni2075" unicode="&#x2075;" horiz-adv-x="692" 
d="M285 559q-124 0 -197 43v146q111 -70 199 -70q87 0 136.5 43.5t49.5 116.5q0 83 -58 117t-173 34q-55 0 -111 -6l-16 -2v453h456v-123h-329v-201h59q144 0 226.5 -70t82.5 -196q0 -132 -89 -208.5t-236 -76.5z" />
    <glyph glyph-name="uni2077" unicode="&#x2077;" horiz-adv-x="692" 
d="M309 573h-155l323 727h-416v134h594v-54z" />
    <glyph glyph-name="uni2078" unicode="&#x2078;" horiz-adv-x="692" 
d="M487 1032q164 -74 164 -225q0 -115 -84 -179.5t-229 -64.5q-127 0 -210 66t-83 170q0 154 164 231q-133 76 -133 201q0 100 77 161.5t207 61.5q115 0 189 -57.5t74 -153.5q0 -136 -136 -211zM352 1335q-63 0 -100 -28.5t-37 -71.5q0 -87 133 -141q137 54 137 139
q0 102 -133 102zM342 973q-158 -53 -158 -168q0 -52 46.5 -87.5t119.5 -35.5q68 0 115 35t47 84q0 113 -170 172z" />
    <glyph glyph-name="zero.oldstyle" horiz-adv-x="1094" 
d="M1008 516q0 -262 -120.5 -401.5t-348.5 -139.5q-217 0 -334 131t-117 386q0 276 122 416.5t357 140.5q441 0 441 -533zM836 510q0 403 -279 403q-143 0 -221 -101.5t-78 -309.5q0 -191 72.5 -291t216.5 -100q140 0 214.5 102.5t74.5 296.5z" />
    <glyph glyph-name="one.oldstyle" horiz-adv-x="889" 
d="M125 0v143h278v719l-331 -102v149l503 140v-906h230v-143h-680z" />
    <glyph glyph-name="two.oldstyle" horiz-adv-x="918" 
d="M53 0v129l318 256q53 43 101.5 82.5t85.5 80.5t59 86t22 99q0 85 -61 131.5t-164 46.5q-73 0 -163 -32.5t-169 -87.5v157q137 103 356 103q173 0 272 -77t99 -206q0 -107 -59.5 -200.5t-223.5 -223.5l-243 -194v-3h596v-147h-826z" />
    <glyph glyph-name="three.oldstyle" horiz-adv-x="940" 
d="M868 -2q0 -124 -63 -222.5t-177.5 -153t-262.5 -54.5q-203 0 -326 78v176q145 -115 332 -115q150 0 239.5 75.5t89.5 201.5q0 280 -399 280h-119v139h113q354 0 354 265q0 243 -270 243q-153 0 -285 -102v160q136 82 326 82q179 0 288 -95t109 -247q0 -282 -287 -365v-4
q153 -14 245.5 -108.5t92.5 -233.5z" />
    <glyph glyph-name="four.oldstyle" horiz-adv-x="1090" 
d="M1053 0h-185v-408h-161v408h-674v106l637 920h198v-893h185v-133zM707 133v600l4 148h-4q-14 -33 -56 -111l-440 -637h496z" />
    <glyph glyph-name="five.oldstyle" horiz-adv-x="975" 
d="M897 29q0 -211 -139.5 -337t-368.5 -126q-196 0 -297 59v174q147 -94 299 -94q154 0 246 85.5t92 227.5q0 145 -91 222t-263 77q-105 0 -238 -16v723h694v-147h-538v-420l121 4q225 0 354 -114t129 -318z" />
    <glyph glyph-name="six.oldstyle" horiz-adv-x="1094" 
d="M1010 455q0 -136 -57 -245.5t-161 -172t-233 -62.5q-218 0 -339.5 176t-121.5 480q0 245 73 434.5t207 291t306 101.5q146 0 238 -41v-155q-111 57 -234 57q-124 0 -220 -77t-148 -219.5t-52 -328.5h4q102 203 328 203q185 0 297.5 -121t112.5 -321zM842 434
q0 149 -73 236.5t-206 87.5q-121 0 -202.5 -84t-81.5 -205q0 -150 80 -252t206 -102q123 0 200 89t77 230z" />
    <glyph glyph-name="seven.oldstyle" horiz-adv-x="979" 
d="M940 973l-567 -1383h-170l536 1287h-723v147h924v-51z" />
    <glyph glyph-name="eight.oldstyle" horiz-adv-x="1081" 
d="M993 365q0 -180 -129.5 -285t-353.5 -105q-183 0 -302.5 103.5t-119.5 271.5q0 277 309 402v4q-131 60 -194.5 145.5t-63.5 202.5q0 154 117.5 254t304.5 100q165 0 275 -93t110 -239q0 -238 -266 -370v-4q313 -114 313 -387zM778 1106q0 97 -61.5 155t-169.5 58
q-105 0 -172.5 -62t-67.5 -149q0 -187 234 -283q237 100 237 281zM825 352q0 214 -295 322q-274 -108 -274 -316q0 -111 81 -177t208 -66q121 0 200.5 64.5t79.5 172.5z" />
    <glyph glyph-name="nine.oldstyle" horiz-adv-x="1094" 
d="M997 393q0 -393 -152.5 -610t-428.5 -217q-145 0 -250 49v158q122 -68 254 -68q196 0 303.5 156.5t107.5 445.5h-4q-88 -184 -319 -184q-121 0 -217 56t-149.5 159t-53.5 231q0 138 59 248t165.5 171t236.5 61q216 0 332 -170.5t116 -485.5zM821 541q0 165 -79 266.5
t-207 101.5q-118 0 -198.5 -90t-80.5 -227q0 -149 77.5 -236.5t211.5 -87.5q115 0 195.5 78.5t80.5 194.5z" />
    <glyph glyph-name="zero.pnum" horiz-adv-x="1130" 
d="M1032 723q0 -359 -125.5 -553.5t-355.5 -194.5q-217 0 -335 186t-118 527q0 382 125.5 576t358.5 194q450 0 450 -735zM864 707q0 612 -291 612q-307 0 -307 -623q0 -581 301 -581q297 0 297 592z" />
    <glyph glyph-name="one.pnum" horiz-adv-x="907" 
d="M811 0h-709v143h304v1114l-332 -98v156l495 151v-1323h242v-143z" />
    <glyph glyph-name="two.pnum" horiz-adv-x="1020" 
d="M899 0h-864v145l418 420q186 188 241.5 286.5t55.5 207.5q0 125 -70.5 192.5t-202.5 67.5q-192 0 -368 -164v172q64 54 174.5 92.5t216.5 38.5q192 0 301.5 -103.5t109.5 -279.5q0 -141 -74 -269.5t-274 -326.5l-332 -327v-5h668v-147z" />
    <glyph glyph-name="three.pnum" horiz-adv-x="952" 
d="M872 406q0 -125 -63 -224t-178 -153t-262 -54q-197 0 -326 78v176q145 -114 332 -114q151 0 240.5 74.5t89.5 201.5q0 281 -400 281h-119v139h113q354 0 354 264q0 244 -270 244q-152 0 -285 -102v159q135 82 326 82q178 0 287.5 -93.5t109.5 -248.5q0 -282 -286 -364v-4
q152 -14 244.5 -108.5t92.5 -233.5z" />
    <glyph glyph-name="four.pnum" horiz-adv-x="1073" 
d="M1034 381h-184v-381h-162v381h-674v106l637 947h199v-920h184v-133zM688 514v621l4 147h-4q-14 -33 -55 -111l-440 -657h495z" />
    <glyph glyph-name="five.pnum" horiz-adv-x="983" 
d="M899 438q0 -210 -139 -336.5t-369 -126.5q-191 0 -297 60v174q147 -94 299 -94q154 0 246 85.5t92 227.5q0 143 -95.5 221t-270.5 78l-226 -12v719h695v-148h-539v-420l121 4q226 0 354.5 -115t128.5 -317z" />
    <glyph glyph-name="six.pnum" horiz-adv-x="1083" 
d="M1012 455q0 -136 -57 -245.5t-161 -172t-233 -62.5q-218 0 -339.5 176t-121.5 480q0 245 73 434.5t207 291t306 101.5q146 0 238 -41v-155q-111 57 -234 57q-124 0 -220 -77t-148 -219.5t-52 -328.5h4q102 203 328 203q185 0 297.5 -121t112.5 -321zM844 434
q0 149 -73 236.5t-206 87.5q-121 0 -202.5 -84t-81.5 -205q0 -150 80 -252t206 -102q123 0 200 89t77 230z" />
    <glyph glyph-name="seven.pnum" horiz-adv-x="985" 
d="M952 1382l-567 -1382h-170l537 1286h-723v148h923v-52z" />
    <glyph glyph-name="eight.pnum" horiz-adv-x="1073" 
d="M989 365q0 -180 -129.5 -285t-353.5 -105q-183 0 -302.5 103.5t-119.5 271.5q0 277 309 402v4q-131 60 -194.5 145.5t-63.5 202.5q0 154 117.5 254t304.5 100q165 0 275 -93t110 -239q0 -238 -266 -370v-4q313 -114 313 -387zM774 1106q0 97 -61.5 155t-169.5 58
q-105 0 -172.5 -62t-67.5 -149q0 -187 234 -283q237 100 237 281zM821 352q0 214 -295 322q-274 -108 -274 -316q0 -111 79.5 -177t209.5 -66q121 0 200.5 64.5t79.5 172.5z" />
    <glyph glyph-name="nine.pnum" horiz-adv-x="1077" 
d="M981 803q0 -395 -152.5 -611.5t-429.5 -216.5q-141 0 -249 50v157q119 -67 253 -67q196 0 304 155.5t108 446.5h-4q-89 -185 -319 -185q-185 0 -302.5 124.5t-117.5 322.5q0 138 59 247.5t165 170.5t236 61q216 0 332.5 -169t116.5 -486zM805 950q0 165 -79.5 267
t-207.5 102q-119 0 -198.5 -90t-79.5 -228q0 -150 77.5 -236.5t210.5 -86.5q116 0 196.5 78.5t80.5 193.5z" />
    <glyph glyph-name="uni2076" unicode="&#x2076;" horiz-adv-x="692" 
d="M649 858q0 -130 -83 -214.5t-210 -84.5q-144 0 -223.5 102.5t-79.5 290.5q0 230 106 364t294 134q82 0 149 -23v-124q-58 28 -137 28q-129 0 -202 -88t-75 -244h2q64 131 216 131q109 0 176 -75.5t67 -196.5zM510 846q0 168 -152 168q-69 0 -114 -45t-45 -109
q0 -82 43 -132t114 -50q73 0 113.5 46t40.5 122z" />
    <glyph glyph-name="uni2079" unicode="&#x2079;" horiz-adv-x="692" 
d="M641 1061q0 -238 -102.5 -370t-288.5 -132q-91 0 -156 29v125q29 -16 72.5 -25.5t73.5 -9.5q128 0 195 83.5t67 239.5h-2q-59 -122 -207 -122q-110 0 -179 76.5t-69 193.5q0 133 81 217t210 84q142 0 223.5 -103.5t81.5 -285.5zM494 1145q0 77 -44.5 131.5t-109.5 54.5
q-68 0 -112 -47.5t-44 -126.5q0 -75 38 -118.5t110 -43.5q67 0 114.5 43.5t47.5 106.5z" />
    <glyph glyph-name="uni2070" unicode="&#x2070;" horiz-adv-x="692" 
d="M651 1010q0 -221 -78.5 -336t-232.5 -115q-144 0 -219.5 108.5t-75.5 319.5q0 463 315 463q150 0 220.5 -111.5t70.5 -328.5zM510 1001q0 169 -37 250.5t-119 81.5q-170 0 -170 -338q0 -153 40.5 -235t121.5 -82q82 0 123 83.5t41 239.5z" />
    <glyph glyph-name="uni2080" unicode="&#x2080;" horiz-adv-x="692" 
d="M651 427q0 -221 -78.5 -336t-232.5 -115q-144 0 -219.5 108.5t-75.5 319.5q0 463 315 463q150 0 220.5 -111.5t70.5 -328.5zM510 418q0 169 -37 250.5t-119 81.5q-170 0 -170 -338q0 -153 40.5 -235t121.5 -82q82 0 123 83.5t41 239.5z" />
    <glyph glyph-name="uni2081" unicode="&#x2081;" horiz-adv-x="692" 
d="M629 1h-504v112h184v594l-192 -55v125l323 96v-760h189v-112z" />
    <glyph glyph-name="uni2082" unicode="&#x2082;" horiz-adv-x="692" 
d="M627 1h-553v114l239 236q89 85 124.5 141t35.5 125q0 59 -39 95t-98 36q-115 0 -217 -102v149q82 76 235 76q117 0 186.5 -65.5t69.5 -174.5q0 -156 -204 -348l-164 -155v-4h385v-123z" />
    <glyph glyph-name="uni2083" unicode="&#x2083;" horiz-adv-x="692" 
d="M600 244q0 -118 -86 -191t-225 -73q-136 0 -213 53v142q101 -76 217 -76q82 0 127 39t45 100q0 142 -219 142h-84v116h80q196 0 196 135q0 119 -143 119q-96 0 -186 -69v139q88 51 213 51q111 0 179 -59.5t68 -155.5q0 -153 -145 -205v-4q176 -44 176 -203z" />
    <glyph glyph-name="uni2084" unicode="&#x2084;" horiz-adv-x="692" 
d="M666 205h-111v-204h-131v204h-393v93l368 553h156v-537h111v-109zM428 726h-4q-11 -30 -39 -74l-217 -338h256v324z" />
    <glyph glyph-name="uni2085" unicode="&#x2085;" horiz-adv-x="692" 
d="M285 -24q-124 0 -197 43v146q111 -70 199 -70q87 0 136.5 43.5t49.5 116.5q0 83 -58 117t-173 34q-55 0 -111 -6l-16 -2v453h456v-123h-329v-201h59q144 0 226.5 -70t82.5 -196q0 -132 -89 -208.5t-236 -76.5z" />
    <glyph glyph-name="uni2086" unicode="&#x2086;" horiz-adv-x="692" 
d="M649 275q0 -130 -83 -214.5t-210 -84.5q-144 0 -223.5 102.5t-79.5 290.5q0 230 106 364t294 134q82 0 149 -23v-124q-58 28 -137 28q-129 0 -202 -88t-75 -244h2q64 131 216 131q109 0 176 -75.5t67 -196.5zM510 263q0 168 -152 168q-69 0 -114 -45t-45 -109
q0 -82 43 -132t114 -50q73 0 113.5 46t40.5 122z" />
    <glyph glyph-name="uni2087" unicode="&#x2087;" horiz-adv-x="692" 
d="M309 -10h-155l323 727h-416v134h594v-54z" />
    <glyph glyph-name="uni2088" unicode="&#x2088;" horiz-adv-x="692" 
d="M487 449q164 -74 164 -225q0 -115 -84 -179.5t-229 -64.5q-127 0 -210 66t-83 170q0 154 164 231q-133 76 -133 201q0 100 77 161.5t207 61.5q115 0 189 -57.5t74 -153.5q0 -136 -136 -211zM352 752q-63 0 -100 -28.5t-37 -71.5q0 -87 133 -141q137 54 137 139
q0 102 -133 102zM342 390q-158 -53 -158 -168q0 -52 46.5 -87.5t119.5 -35.5q68 0 115 35t47 84q0 113 -170 172z" />
    <glyph glyph-name="uni2089" unicode="&#x2089;" horiz-adv-x="692" 
d="M641 478q0 -238 -102.5 -370t-288.5 -132q-91 0 -156 29v125q29 -16 72.5 -25.5t73.5 -9.5q128 0 195 83.5t67 239.5h-2q-59 -122 -207 -122q-110 0 -179 76.5t-69 193.5q0 133 81 217t210 84q142 0 223.5 -103.5t81.5 -285.5zM494 562q0 77 -44.5 131.5t-109.5 54.5
q-68 0 -112 -47.5t-44 -126.5q0 -75 38 -118.5t110 -43.5q67 0 114.5 43.5t47.5 106.5z" />
    <glyph glyph-name="uni021A" unicode="&#x21a;" horiz-adv-x="1073" 
d="M1036 1282h-413v-1282h-168v1282h-414v152h995v-152zM627 -119l-166 -260h-123l117 260h172z" />
    <glyph glyph-name="uni021B" unicode="&#x21b;" horiz-adv-x="694" 
d="M641 10q-59 -33 -154 -33q-268 0 -268 302v606h-176v139h176v250l164 53v-303h258v-139h-258v-578q0 -103 35 -146.5t117 -43.5q61 0 106 33v-140zM530 -119l-166 -260h-123l117 260h172z" />
    <glyph glyph-name="uni0492" unicode="&#x492;" horiz-adv-x="1054" 
d="M1014 1282h-576v-458h346v-154h-346v-670h-168v670h-229v154h229v610h744v-152z" />
    <glyph glyph-name="uni0493" unicode="&#x493;" horiz-adv-x="840" 
d="M809 884h-405v-286h258v-133h-258v-465h-164v465h-210v133h210v426h569v-140z" />
    <glyph glyph-name="uni049A" unicode="&#x49a;" horiz-adv-x="1254" 
d="M1192 -384h-154v384h-80l-560 656q-28 32 -38 50h-4v-706h-168v1434h168v-674h4q12 18 38 49l536 625h209l-615 -690l524 -594h140v-534z" />
    <glyph glyph-name="uni049B" unicode="&#x49b;" horiz-adv-x="1086" 
d="M1024 -373h-140v373h-100l-450 490h-4v-490h-164v1024h164v-467h4l430 467h217l-477 -496l383 -399h137v-502z" />
    <glyph glyph-name="uni04A2" unicode="&#x4a2;" horiz-adv-x="1520" 
d="M1458 -384h-155v384h-205v654h-742v-654h-168v1434h168v-629h742v629h168v-1282h192v-536z" />
    <glyph glyph-name="uni04A3" unicode="&#x4a3;" horiz-adv-x="1229" 
d="M1168 -373h-142v373h-174v465h-522v-465h-164v1024h164v-420h522v420h164v-884h152v-513z" />
    <glyph glyph-name="uni04AE" unicode="&#x4ae;" horiz-adv-x="1132" 
d="M1120 1434l-473 -904v-530h-168v526l-461 908h191l321 -648l35 -88h2q10 33 39 88l336 648h178z" />
    <glyph glyph-name="uni04AF" unicode="&#x4af;" horiz-adv-x="991" 
d="M981 1024l-407 -1018v-477h-164v479l-396 1016h182l269 -764l29 -100h2l32 104l283 760h170z" />
    <glyph glyph-name="uni04B0" unicode="&#x4b0;" horiz-adv-x="1132" 
d="M1120 1434l-473 -910h338v-133h-338v-391h-168v391h-329v133h329l-461 910h191l321 -648l35 -88h3q5 17 14.5 39t359.5 697h178z" />
    <glyph glyph-name="uni04B1" unicode="&#x4b1;" horiz-adv-x="991" 
d="M914 0v-133h-340v-338h-164v338h-332v133h332l-396 1024h182l269 -764l29 -100h2l32 104l283 760h170l-407 -1024h340z" />
    <glyph glyph-name="uni04BA" unicode="&#x4ba;" horiz-adv-x="1354" 
d="M1175 0h-168v530q0 232 -245 232q-178 0 -406 -110v-652h-168v1434h168v-646q229 122 426 122q186 0 289.5 -97.5t103.5 -274.5v-538z" />
    <glyph glyph-name="uni04BB" unicode="&#x4bb;" horiz-adv-x="1159" 
d="M1016 0h-164v590q0 319 -238 319q-123 0 -203.5 -93.5t-80.5 -235.5v-580h-164v1516h164v-662h4q118 195 336 195q346 0 346 -418v-631z" />
    <glyph glyph-name="uni04D8" unicode="&#x4d8;" horiz-adv-x="1476" 
d="M86 794h1118q-16 232 -157.5 372t-360.5 140q-216 0 -372 -96v164q157 84 384 84q210 0 365 -89t237 -257t82 -395q0 -213 -84 -383t-235.5 -264t-345.5 -94q-306 0 -468.5 209t-162.5 609zM1204 643h-938q4 -238 126.5 -377t326.5 -139q205 0 335 138.5t150 377.5z" />
    <glyph glyph-name="uni04D9" unicode="&#x4d9;" horiz-adv-x="1071" 
d="M82 553h723q-5 172 -91.5 264.5t-242.5 92.5q-173 0 -317 -114v154q134 98 356 98q216 0 340.5 -140t124.5 -392q0 -154 -61 -278t-170 -193t-240 -69q-200 0 -311 130t-111 361v86zM803 414h-553q2 -144 68.5 -222t187.5 -78q114 0 195.5 82.5t101.5 217.5z" />
    <glyph glyph-name="uni04E8" unicode="&#x4e8;" horiz-adv-x="1544" 
d="M766 -24q-197 0 -350.5 90.5t-237.5 256t-84 377.5q0 227 85 400t244 265.5t367 92.5q192 0 343.5 -91t234 -255.5t82.5 -376.5q0 -228 -83.5 -400.5t-240 -265.5t-360.5 -93zM1270 792q-18 242 -147.5 378t-344.5 136q-207 0 -344.5 -140t-159.5 -374h996zM1270 637
h-996q20 -231 155 -370.5t337 -139.5q219 0 351.5 133.5t152.5 376.5z" />
    <glyph glyph-name="uni04E9" unicode="&#x4e9;" horiz-adv-x="1200" 
d="M594 -24q-225 0 -361.5 143t-136.5 381q0 256 140.5 402t381.5 146q229 0 357.5 -142t128.5 -390q0 -243 -138.5 -391.5t-371.5 -148.5zM930 604q-41 306 -324 306q-136 0 -224 -80t-112 -226h660zM934 465h-668q10 -160 101 -255.5t239 -95.5q307 0 328 351z" />
    <glyph glyph-name="zero.ss20" 
d="M1020 723q0 -355 -125 -551.5t-356 -196.5q-216 0 -334.5 185t-118.5 528q0 374 123 572t360 198q451 0 451 -735zM852 707q0 612 -291 612q-307 0 -307 -623q0 -581 301 -581q297 0 297 592z" />
    <glyph glyph-name="one.ss20" 
d="M987 0h-811v143h324v1114l-332 -98v156l496 151v-1323h323v-143z" />
    <glyph glyph-name="two.ss20" 
d="M961 0h-865v145l418 420q180 182 238.5 279.5t58.5 214.5q0 123 -70.5 191.5t-201.5 68.5q-193 0 -369 -164v172q68 55 178 93t213 38q192 0 302 -104t110 -279q0 -140 -73 -268t-275 -328l-332 -327v-5h668v-147z" />
    <glyph glyph-name="three.ss20" 
d="M953 406q0 -194 -139 -312.5t-365 -118.5q-205 0 -326 78v176q145 -114 332 -114q151 0 240.5 74.5t89.5 201.5q0 281 -400 281h-119v139h113q354 0 354 264q0 244 -270 244q-152 0 -285 -102v159q137 82 326 82q178 0 287.5 -94.5t109.5 -247.5q0 -283 -286 -364v-4
q152 -17 245 -110t93 -232z" />
    <glyph glyph-name="four.ss20" 
d="M1034 381h-184v-381h-162v381h-674v106l637 947h199v-920h184v-133zM688 514v621l4 147h-4l-55 -111l-440 -657h495z" />
    <glyph glyph-name="five.ss20" 
d="M969 438q0 -209 -138.5 -336t-369.5 -127q-200 0 -297 60v174q146 -94 299 -94q152 0 245 85t93 228q0 140 -94 219.5t-273 79.5l-225 -12v719h694v-148h-538v-420l120 4q224 0 354 -113t130 -319z" />
    <glyph glyph-name="six.ss20" 
d="M1022 455q0 -136 -58.5 -247t-161.5 -172t-231 -61q-215 0 -337.5 173t-122.5 483q0 246 72.5 434.5t205.5 290.5t307 102q148 0 238 -41v-155q-111 57 -234 57q-189 0 -304 -163.5t-115 -437.5h4q99 179 327 179q186 0 298 -121.5t112 -320.5zM854 434q0 150 -73.5 237
t-205.5 87q-120 0 -202 -84.5t-82 -204.5q0 -151 81.5 -252.5t205.5 -101.5q123 0 199.5 88.5t76.5 230.5z" />
    <glyph glyph-name="seven.ss20" 
d="M1010 1382l-568 -1382h-170l537 1286h-723v148h924v-52z" />
    <glyph glyph-name="eight.ss20" 
d="M1006 365q0 -184 -131 -287t-353 -103q-183 0 -302.5 104.5t-119.5 270.5q0 276 310 402v4q-258 118 -258 348q0 154 117.5 254t303.5 100q170 0 277.5 -94.5t107.5 -237.5q0 -238 -266 -370v-4q314 -113 314 -387zM791 1106q0 96 -62.5 154.5t-169.5 58.5
q-104 0 -172 -61.5t-68 -149.5q0 -187 234 -283q238 97 238 281zM838 352q0 216 -295 322q-275 -110 -275 -316q0 -107 80 -175t209 -68q121 0 201 65.5t80 171.5z" />
    <glyph glyph-name="nine.ss20" 
d="M1004 803q0 -394 -153.5 -611t-428.5 -217q-142 0 -250 50v157q119 -67 254 -67q195 0 303.5 156.5t108.5 445.5h-4q-92 -185 -320 -185q-185 0 -302.5 125t-117.5 322q0 210 129 344.5t332 134.5q216 0 332.5 -170.5t116.5 -484.5zM827 950q0 163 -80 266t-206 103
q-121 0 -200 -91.5t-79 -226.5q0 -150 78 -236.5t211 -86.5q113 0 194.5 79t81.5 193z" />
    <glyph glyph-name="exclam.ss19" horiz-adv-x="582" 
d="M375 1434l-20 -1031h-114l-20 1031h154zM401 92q0 -46 -32.5 -78t-77.5 -32q-47 0 -79 32t-32 78q0 45 33 78t78 33q44 0 77 -33t33 -78z" />
    <glyph glyph-name="comma.ss19" horiz-adv-x="444" 
d="M92 -216q131 107 131 182q0 24 -10 34.5t-36 22.5q-40 17 -53 36t-13 53q0 38 24 66.5t75 28.5q56 0 90 -39.5t34 -117.5q0 -88 -46 -167t-148 -158z" />
    <glyph glyph-name="semicolon.ss19" horiz-adv-x="444" 
d="M338 936q0 -45 -32.5 -79t-80.5 -34q-46 0 -78 33.5t-32 79.5q0 47 33 79t77 32q45 0 79 -32t34 -79zM94 -216q131 107 131 182q0 24 -10 34.5t-36 22.5q-40 17 -53 36t-13 53q0 38 24 66.5t75 28.5q56 0 90 -39.5t34 -117.5q0 -88 -46 -167t-148 -158z" />
    <glyph glyph-name="question.ss19" horiz-adv-x="918" 
d="M817 1114q0 -206 -207 -381q-112 -96 -144.5 -145t-32.5 -111v-74h-112v78q0 101 33 167.5t125 150.5q87 78 131.5 149.5t44.5 151.5q0 100 -64.5 159.5t-166.5 59.5q-169 0 -293 -133v176q153 96 318 96t266.5 -94.5t101.5 -249.5zM498 92q0 -46 -32.5 -78t-78.5 -32
q-47 0 -79 32t-32 78q0 45 33 78t78 33t78 -33t33 -78z" />
    <glyph glyph-name="quotedblleft.ss19" horiz-adv-x="772" 
d="M353 1399q-131 -107 -131 -182q0 -24 10 -34.5t36 -22.5q40 -17 53 -36t13 -53q0 -38 -24 -66.5t-75 -28.5q-56 0 -90 39.5t-34 117.5q0 88 46 167t148 158zM668 1399q-131 -107 -131 -182q0 -24 10 -34.5t36 -22.5q40 -17 53 -36t13 -53q0 -38 -24 -66.5t-75 -28.5
q-56 0 -90 39.5t-34 117.5q0 88 46 167t148 158z" />
    <glyph glyph-name="quotedblright.ss19" horiz-adv-x="772" 
d="M419 1035q131 107 131 182q0 24 -10 34.5t-36 22.5q-40 17 -53 36t-13 53q0 38 24 66.5t75 28.5q56 0 90 -39.5t34 -117.5q0 -88 -46 -167t-148 -158zM104 1035q131 107 131 182q0 24 -10 34.5t-36 22.5q-40 17 -53 36t-13 53q0 38 24 66.5t75 28.5q56 0 90 -39.5
t34 -117.5q0 -88 -46 -167t-148 -158z" />
    <glyph glyph-name="quoteleft.ss19" horiz-adv-x="469" 
d="M353 1399q-131 -107 -131 -182q0 -24 10 -34.5t36 -22.5q40 -17 53 -36t13 -53q0 -38 -24 -66.5t-75 -28.5q-56 0 -90 39.5t-34 117.5q0 88 46 167t148 158z" />
    <glyph glyph-name="quoteright.ss19" horiz-adv-x="469" 
d="M116 1035q131 107 131 182q0 24 -10 34.5t-36 22.5q-40 17 -53 36t-13 53q0 38 24 66.5t75 28.5q56 0 90 -39.5t34 -117.5q0 -88 -46 -167t-148 -158z" />
    <glyph glyph-name="quotesinglbase.ss19" horiz-adv-x="469" 
d="M98 -222q63 52 98 101.5t35 86.5q0 25 -12.5 34.5t-41.5 22.5q-40 17 -53 36t-13 53q0 38 23.5 66.5t71.5 28.5q59 0 93.5 -39.5t34.5 -117.5q0 -88 -46 -167t-148 -158z" />
    <glyph glyph-name="quotedblbase.ss19" horiz-adv-x="772" 
d="M419 -216q131 107 131 182q0 24 -10 34.5t-36 22.5q-40 17 -53 36t-13 53q0 38 24 66.5t75 28.5q56 0 90 -39.5t34 -117.5q0 -88 -46 -167t-148 -158zM104 -216q131 107 131 182q0 24 -10 34.5t-36 22.5q-40 17 -53 36t-13 53q0 38 24 66.5t75 28.5q56 0 90 -39.5
t34 -117.5q0 -88 -46 -167t-148 -158z" />
    <glyph glyph-name="dcaron.ss19" horiz-adv-x="1381" 
d="M1032 0h-164v174h-4q-114 -199 -352 -199q-194 0 -309 139.5t-115 372.5q0 254 127.5 408t341.5 154q210 0 307 -166h4v633h164v-1516zM868 463v151q0 127 -84.5 211t-205.5 84q-148 0 -235 -109.5t-87 -303.5q0 -176 82 -278.5t221 -102.5q135 0 222 98t87 250z
M1216 1181q82 67 82 128q0 22 -9 31t-32 20q-36 16 -48 33t-12 47q0 34 21.5 60t67.5 26q51 0 81.5 -36t30.5 -105q0 -78 -34.5 -140t-104.5 -117z" />
    <glyph glyph-name="Lcaron.ss19" horiz-adv-x="965" 
d="M932 0h-744v1434h168v-1282h576v-152zM676 1099q82 67 82 128q0 22 -9 31t-32 20q-36 16 -48 33t-12 47q0 34 21.5 60t67.5 26q51 0 81.5 -36t30.5 -105q0 -78 -34.5 -140t-104.5 -117z" />
    <glyph glyph-name="lcaron.ss19" horiz-adv-x="629" 
d="M330 0h-164v1516h164v-1516zM469 1181q82 67 82 128q0 22 -9 31t-32 20q-36 16 -48 33t-12 47q0 34 21.5 60t67.5 26q51 0 81.5 -36t30.5 -105q0 -78 -34.5 -140t-104.5 -117z" />
    <glyph glyph-name="napostrophe.ss19" horiz-adv-x="1241" 
d="M1098 0h-164v584q0 325 -238 325q-121 0 -202.5 -91.5t-81.5 -233.5v-584h-164v1024h164v-170h4q115 195 336 195q169 0 257.5 -110t88.5 -312v-627zM-27 1035q131 107 131 182q0 24 -10 34.5t-36 22.5q-40 17 -53 36t-13 53q0 38 24 66.5t75 28.5q56 0 90 -39.5
t34 -117.5q0 -88 -46 -167t-148 -158z" />
    <glyph glyph-name="uni0122.ss19" horiz-adv-x="1405" 
d="M1260 98q-216 -123 -480 -123q-201 0 -358.5 91t-242.5 257t-85 375q0 330 209 545t535 215q234 0 393 -76v-186q-174 111 -412 111q-157 0 -282.5 -75.5t-196 -213.5t-70.5 -307q0 -271 142.5 -427.5t388.5 -156.5q167 0 291 68v401h-314v152h482v-650zM693 -454
q82 67 82 128q0 22 -9 31t-32 20q-36 16 -48 33t-12 47q0 34 21.5 60t67.5 26q51 0 81.5 -36t30.5 -105q0 -78 -34.5 -140t-104.5 -117z" />
    <glyph glyph-name="uni0123.ss19" horiz-adv-x="1198" 
d="M1032 82q0 -563 -540 -563q-188 0 -332 71v164q172 -96 329 -96q379 0 379 401v113h-4q-117 -197 -352 -197q-124 0 -221 62t-150 177t-53 265q0 262 127.5 416t341.5 154q207 0 307 -166h4v141h164v-942zM868 463v151q0 124 -85 209.5t-203 85.5q-153 0 -238.5 -111
t-85.5 -309q0 -168 82 -271t219 -103t224 97.5t87 250.5zM660.839 1542.62q-81.9805 -66.9834 -81.9805 -127.969q0 -21.9941 8.99805 -30.9922t31.9922 -19.9951q35.9912 -15.9961 47.9883 -32.9922q11.9971 -16.9951 11.9971 -46.9883q0 -33.9912 -21.4951 -59.9854
q-21.4941 -25.9941 -67.4834 -25.9941q-50.9873 0 -81.4795 35.9922q-30.4932 35.9902 -30.4932 104.974q0 77.9814 34.4922 139.966q34.4912 61.9854 104.475 116.972z" />
    <glyph glyph-name="uni0136.ss19" horiz-adv-x="1188" 
d="M1186 0h-234l-555 655q-22 26 -37 52h-4v-707h-168v1434h168v-674h4l37 49l537 625h209l-615 -689zM550 -454q82 67 82 128q0 22 -9 31t-32 20q-36 16 -48 33t-12 47q0 34 21.5 60t67.5 26q51 0 81.5 -36t30.5 -105q0 -78 -34.5 -140t-104.5 -117z" />
    <glyph glyph-name="uni0137.ss19" horiz-adv-x="1018" 
d="M1016 0h-230l-452 492h-4v-492h-164v1516h164v-961h4l430 469h215l-475 -494zM471 -454q82 67 82 128q0 22 -9 31t-32 20q-36 16 -48 33t-12 47q0 34 21.5 60t67.5 26q51 0 81.5 -36t30.5 -105q0 -78 -34.5 -140t-104.5 -117z" />
    <glyph glyph-name="uni0145.ss19" horiz-adv-x="1532" 
d="M1343 0h-204l-740 1143q-26 40 -45 90h-6q8 -46 8 -197v-1036h-168v1434h218l718 -1125l58 -96h4q-10 62 -10 211v1010h167v-1434zM661 -454q82 67 82 128q0 22 -9 31t-32 20q-36 16 -48 33t-12 47q0 34 21.5 60t67.5 26q51 0 81.5 -36t30.5 -105q0 -78 -34.5 -140
t-104.5 -117z" />
    <glyph glyph-name="uni0146.ss19" horiz-adv-x="1159" 
d="M1016 0h-164v584q0 325 -238 325q-121 0 -202.5 -91.5t-81.5 -233.5v-584h-164v1024h164v-170h4q115 195 336 195q169 0 257.5 -110t88.5 -312v-627zM533 -454q82 67 82 128q0 22 -9 31t-32 20q-36 16 -48 33t-12 47q0 34 21.5 60t67.5 26q51 0 81.5 -36t30.5 -105
q0 -78 -34.5 -140t-104.5 -117z" />
    <glyph glyph-name="uni0156.ss19" horiz-adv-x="1178" 
d="M1110 0h-201l-188 432q-78 178 -219 178h-146v-610h-168v1434h428q205 0 321 -102.5t116 -278.5q0 -153 -87.5 -259t-232.5 -139v-4q81 -29 148 -170zM877 1038q0 115 -74.5 179.5t-216.5 64.5h-230v-520h222q133 0 216 77t83 199zM560 -454q82 67 82 128q0 22 -9 31
t-32 20q-36 16 -48 33t-12 47q0 34 21.5 60t67.5 26q51 0 81.5 -36t30.5 -105q0 -78 -34.5 -140t-104.5 -117z" />
    <glyph glyph-name="uni0157.ss19" horiz-adv-x="713" 
d="M700 858q-44 33 -125 33q-109 0 -177 -102.5t-68 -266.5v-522h-164v1024h164v-211h4q34 106 105 167.5t163 61.5q64 0 98 -14v-170zM318 -454q82 67 82 128q0 22 -9 31t-32 20q-36 16 -48 33t-12 47q0 34 21.5 60t67.5 26q51 0 81.5 -36t30.5 -105q0 -78 -34.5 -140
t-104.5 -117z" />
    <glyph glyph-name="tcaron.ss19" horiz-adv-x="901" 
d="M641 10q-59 -33 -154 -33q-268 0 -268 302v606h-176v139h176v250l164 53v-303h258v-139h-258v-578q0 -103 35 -146.5t117 -43.5q61 0 106 33v-140zM713 1181q82 67 82 128q0 22 -9 31t-32 20q-36 16 -48 33t-12 47q0 34 21.5 60t67.5 26q51 0 81.5 -36t30.5 -105
q0 -78 -34.5 -140t-104.5 -117z" />
    <glyph glyph-name="uni0218.ss19" horiz-adv-x="1018" 
d="M920 362q0 -181 -128 -284t-348 -103q-80 0 -180.5 26.5t-142.5 55.5v199q61 -55 160.5 -92t185.5 -37q276 0 276 215q0 90 -59 154.5t-242 169.5q-177 100 -248 190t-71 219q0 170 127 276.5t328 106.5q193 0 282 -51v-188q-112 88 -291 88q-119 0 -194.5 -59.5
t-75.5 -157.5q0 -71 22.5 -114t76 -85t180.5 -113q190 -106 266 -200t76 -216zM446 -454q82 67 82 128q0 22 -9 31t-32 20q-36 16 -48 33t-12 47q0 34 21.5 60t67.5 26q51 0 81.5 -36t30.5 -105q0 -78 -34.5 -140t-104.5 -117z" />
    <glyph glyph-name="uni0219.ss19" horiz-adv-x="799" 
d="M725 274q0 -133 -102.5 -216t-272.5 -83q-145 0 -254 62v176q121 -98 266 -98q195 0 195 143q0 58 -38 94.5t-173 98.5q-136 58 -192 124.5t-56 176.5q0 127 102 212t259 85q121 0 219 -48v-165q-100 73 -232 73q-81 0 -130.5 -40t-49.5 -103q0 -68 38 -104.5t157 -86.5
q146 -62 205 -130t59 -171zM329 -454q82 67 82 128q0 22 -9 31t-32 20q-36 16 -48 33t-12 47q0 34 21.5 60t67.5 26q51 0 81.5 -36t30.5 -105q0 -78 -34.5 -140t-104.5 -117z" />
    <glyph glyph-name="uni037E.ss19" horiz-adv-x="444" 
d="M338 936q0 -45 -32.5 -79t-80.5 -34q-46 0 -78 33.5t-32 79.5q0 47 33 79t77 32q45 0 79 -32t34 -79zM94 -216q131 107 131 182q0 24 -10 34.5t-36 22.5q-40 17 -53 36t-13 53q0 38 24 66.5t75 28.5q56 0 90 -39.5t34 -117.5q0 -88 -46 -167t-148 -158z" />
    <glyph glyph-name="quotereversed.ss19" horiz-adv-x="469" 
d="M310 976q-103 79 -148.5 158.5t-45.5 166.5q0 78 34 117.5t90 39.5q51 0 75 -28.5t24 -66.5q0 -34 -13 -53t-53 -36q-26 -12 -36 -22.5t-10 -34.5q0 -75 131 -182z" />
    <glyph glyph-name="glyph666" horiz-adv-x="799" 
d="M336 -454q82 67 82 128q0 22 -9 31t-32 20q-36 16 -48 33t-12 47q0 34 21.5 60t67.5 26q51 0 81.5 -36t30.5 -105q0 -78 -34.5 -140t-104.5 -117z" />
    <glyph glyph-name="uni021A.ss19" horiz-adv-x="1073" 
d="M1036 1282h-413v-1282h-168v1282h-414v152h995v-152zM458 -454q82 67 82 128q0 22 -9 31t-32 20q-36 16 -48 33t-12 47q0 34 21.5 60t67.5 26q51 0 81.5 -36t30.5 -105q0 -78 -34.5 -140t-104.5 -117z" />
    <glyph glyph-name="uni021B.ss19" horiz-adv-x="694" 
d="M641 10q-59 -33 -154 -33q-268 0 -268 302v606h-176v139h176v250l164 53v-303h258v-139h-258v-578q0 -103 35 -146.5t117 -43.5q61 0 106 33v-140zM310 -454q82 67 82 128q0 22 -9 31t-32 20q-36 16 -48 33t-12 47q0 34 21.5 60t67.5 26q51 0 81.5 -36t30.5 -105
q0 -78 -34.5 -140t-104.5 -117z" />
    <glyph glyph-name="glyph669" horiz-adv-x="992" 
d="M866 1522q-6 -68 -34.5 -124t-75.5 -96t-110.5 -62t-139.5 -22q-77 0 -140 21.5t-109 61t-72.5 95.5t-30.5 126h161q3 -39 13.5 -73t33 -59.5t58 -40.5t88.5 -15q46 0 80.5 15.5t58.5 41.5t37.5 60t17.5 71h164z" />
    <glyph glyph-name="uni0237" unicode="&#x237;" horiz-adv-x="496" 
d="M330 43q0 -125 -25.5 -222.5t-75 -164.5t-122.5 -102t-168 -35q-72 0 -138 30v154q75 -45 142 -45q223 0 223 358v1008h164v-981z" />
    </font>
</defs>
</svg>
